<?xml version="1.0" encoding="UTF-8"?><svg id="Layer_2" xmlns="http://www.w3.org/2000/svg" viewBox="0 0 90.58 52.98"><defs><style>.cls-1{fill:#231f20;}</style></defs><g id="Layer_1-2"><path class="cls-1" d="m40.38,47.88c1.16.05,2.31.07,3.47.07.55-.01,1.1-.03,1.65-.05,0,0,0-.01.01-.02.14,0,.28,0,.41-.01.42-.05.82-.19,1.16-.44,0,0,0,0,.01-.01.23.12.47.2.72.26.37.08.78.11,1.16.03,4.92-.37,9.81-1.09,14.57-2.18,1.14-.2,2.28-.42,3.42-.64.12,0,.25,0,.38-.02.33-.05.66-.13.97-.24.34-.12.67-.26.98-.43.3-.16.58-.36.92-.45.63-.16,1.32-.01,1.98-.02,0,0,0,0,0,.01.02,0,.03,0,.05-.01.34,0,.67-.07.96-.24.62-.16,1.24-.32,1.86-.48.15-.06.3-.12.44-.17,1.06-.19,2.1-.55,3.1-.93,1.29-.5,2.54-1.08,3.75-1.75,1.2-.67,2.38-1.41,3.47-2.24.53-.41,1.03-.87,1.37-1.46.35-.59.54-1.26.69-1.92.05-.22.1-.44.15-.66.1-.36.17-.73.22-1.1-.01-.02-.02-.03-.04-.05.09-.22.16-.43.18-.67.05-.44-.08-.83-.22-1.22,0-.16-.02-.31-.04-.47-.01-.11-.04-.15.05-.21.08-.05.18-.07.26-.13.15-.11.25-.29.25-.48,0-.16-.08-.29-.16-.42.03-.3-.12-.67-.19-.94-.02-.07-.05-.12-.1-.15-.48-3.44-2.1-6.73-3.58-9.93-.18-.3-.37-.59-.56-.89-.02-.02-.03-.03-.05-.05-.08-.07-.16-.15-.24-.22-.26-.48-.5-1-.98-1.29-.42-.25-.91-.28-1.35-.47-.21-.09-.54-.43-.81-.48-.06-.19-.12-.39-.19-.58-.14-.38-.3-.76-.48-1.13,0,0,0-.01-.01-.02-.2-.47-.44-.92-.71-1.34-.32-.49-.67-.96-1.07-1.38-.23-.24-.49-.49-.79-.62-.88-.75-1.79-1.45-2.73-2.11-.95-.6-1.94-1.13-2.96-1.61-1.48-.92-3.02-1.75-4.62-2.49-.85-.39-1.71-.76-2.58-1.09-.43-.16-.85-.31-1.29-.44-.09-.03-.18-.05-.27-.08-.02,0-.04,0-.06,0-.1-.02-.2-.04-.3-.06-1.34-.24-2.7.26-3.96.65-.02,0-.04.01-.06.02,0,0,0,0,0,0-.06.01-.11.02-.17.03h-.05c-.05.02-.1.03-.15.04-.02,0-.04,0-.06.01-.05,0-.1.02-.14.03-.02,0-.05,0-.07.01-.05,0-.09.02-.14.02-.03,0-.05,0-.08.01-.05,0-.1.02-.15.02-.02,0-.05,0-.07.01-.07.01-.14.02-.22.03,0,0-.01.02-.01.03,0,.01-.01.03-.02.04,0,0,0,.01-.01.02-.05,0-.1,0-.15,0-.31,0-.63-.06-.94-.06-.03-.05-.05-.1-.07-.15.02.06,0,.04-.01,0-.01,0-.03.02-.04.03-.62-.75-1.64-1.23-2.49-1.63-.61-.28-1.21-.48-1.82-.61-.02,0-.04-.02-.06-.02,0,0,0,0,0,0-.06-.02-.13-.05-.19-.07-.1,0-.21,0-.31,0,0,0,0,0,0,0-.02,0-.05,0-.07,0-.07,0-.15,0-.22,0,0,0,0,0,0,0-.04,0-.07,0-.11,0-.02,0-.05,0-.07,0-.06,0-.13,0-.19,0-.03,0-.05,0-.08,0-.04,0-.08,0-.13,0h0c-.08,0-.16,0-.23,0-.04,0-.08,0-.12,0-.15,0-.3,0-.45,0-.82.02-1.62.04-2.43-.03-.81-.07-1.61-.16-2.42-.18-.09,0-.18,0-.28,0-.03,0-.06,0-.09,0-.06,0-.12,0-.18,0-.04,0-.07,0-.11,0-.06,0-.11,0-.17,0-.04,0-.08,0-.11,0-.05,0-.11,0-.16.01-.04,0-.08,0-.11,0-.05,0-.1,0-.16.01-.04,0-.08,0-.11.01-.05,0-.11.01-.16.02-.04,0-.07,0-.11.01-.06,0-.11.01-.17.02-.03,0-.07,0-.1.01-.06,0-.13.02-.19.03-.02,0-.05,0-.07.01-.09.01-.18.03-.26.04-.03,0-.06,0-.08.01-.06.01-.12.02-.18.03-.04,0-.07.01-.11.02-.05,0-.1.02-.16.03-.04,0-.08.02-.12.02-.05,0-.1.02-.15.03-.04,0-.08.02-.13.02-.05,0-.09.02-.14.03-.05,0-.09.02-.14.03-.04,0-.09.02-.13.03-.08.02-.15.03-.23.05-.14.03-.28.06-.42.08-.14.03-.28.06-.42.09,0,0,0,0,0,0h0c-.62.13-1.24.27-1.85.47-.1.03-.19.06-.29.1-.28-.03-.58.06-.84.15-.31.11-.61.26-.9.42-.42.15-.84.31-1.25.48-.53.23-1.06.5-1.63.64-.91-.31-1.84-.54-2.82-.62-.24-.02-.49-.03-.73-.03-.48-.06-.96-.08-1.44-.06-1.01.05-1.98.3-2.87.76-.31.16-.62.34-.92.53-.38.17-.76.36-1.14.55-.17.07-.34.13-.51.2-.08.05-.16.09-.24.14-.03.04-.05.08-.08.12-1,.58-1.96,1.23-2.87,1.95-.44.35-.87.71-1.29,1.09-1.59.95-2.85,2.56-3.52,4.22-.26.02-.52.05-.78.09-.13.03-.26.06-.39.09-.06.01-.12.02-.18.03,0,.01-.02.03-.03.04-.06.01-.13.02-.19.03-.49.08-.97.2-1.43.39-.01,0-.03,0-.04.01,0,0,0,0,0,0,0,0,0,0,0,0-.18.05-.36.1-.55.17,0,0-.01,0-.02,0,0,0-.01,0-.02,0-.06.02-.12.04-.18.07-.02,0-.04.01-.05.02-.03.01-.07.03-.1.05,0,0-.02,0-.02.01h0c-.07.03-.14.07-.21.1-.14.07-.28.14-.41.22-.06.03-.11.07-.17.1-.24.14-.47.3-.7.46-.23.17-.46.36-.73.59-.25.22-.5.45-.74.69-.13.13-.26.26-.38.39-.01.03-.03.06-.04.08-.07.08-.15.15-.22.23-.48.51-.89,1.05-1.24,1.64-.03.03-.06.07-.09.1,0,.01,0,.03,0,.04-.02.01-.04.03-.05.06-.14.35-.29.69-.42,1.04-.09.25-.18.51-.26.77-.02.03-.04.05-.06.08-.25.34-.49.68-.74,1.02-.38.53-.77,1.06-1.15,1.59-.13.16-.25.32-.35.49-.03.04-.03.07-.02.1-.29.52-.54,1.07-.81,1.6-.14.28-.28.57-.44.85-.06.1-.1.2-.09.32,0,.06.02.11.04.16-.21.63-.42,1.27-.62,1.9-.12.17-.22.34-.31.52-.03.02-.06.05-.08.07,0,.03-.02.07-.03.1-.02.09-.04.18-.05.27-.02.08-.03.15-.04.23-.13.98-.02,1.98.2,2.95.05.23.11.47.17.71.08.6.24,1.19.47,1.77.01.05.02.09.03.14.05.1.11.2.16.31.1.2.2.41.31.6.46,1.01,1.13,1.98,2.02,2.65.02.01.04.02.06.03.02.02.03.03.05.05,1.36,1.31,2.98,2.28,4.68,3.09.3.17.61.34.92.51.21.19.44.35.72.39.2.03.4,0,.58-.08.08.02.17.03.26.02,0,0,0,0,.01,0,.61.51,1.23,1.08,1.94,1.44.02,0,.04.02.06.02.01.1.07.2.18.26.15.08.33.04.42-.08.04.01.09.02.13.03.11.02.22.04.33.05.93.34,1.86.66,2.79.97.06,0,.13.02.19.03.63.25,1.27.48,1.92.69.49.16.98.31,1.47.44.47.17.95.34,1.43.49,1.68.54,3.4.82,5.14,1.04,1.75.22,3.51.43,5.27.59,1.01.09,2.01.17,3.02.22,0-.01,0-.02,0-.03.23.01.47-.02.69-.09.09-.03.14-.08.16-.14.07-.03.14-.05.21-.08.08.08.17.15.27.21.05.09.14.13.25.15.03,0,.07,0,.1,0,.01,0,.02,0,.03,0-.01,0-.02.02-.03.03.05,0,.1,0,.16,0,.08.02.16.03.25.03.05,0,.09,0,.13-.03,1.06,0,2.12-.04,3.18-.14Zm-3.2-.84s-.03,0-.05,0c0,0,0-.02,0-.02.01,0,.03.01.04.02Zm10.15-.85s.02-.03.03-.04c0,.02.02.04.03.05-.02,0-.04,0-.06-.01ZM16.85,9.58s.05-.04.07-.06c.07-.12.14-.24.22-.35.39-.57.88-1.06,1.44-1.43.02-.01.03-.02.05-.03.19-.13.4-.24.61-.33,0,0,0,0,0,0,.08-.03.15-.07.23-.1,0,0,0,0,0,0,.09-.04.19-.07.28-.1.06-.02.13-.04.19-.06.03,0,.06-.02.1-.03.03,0,.06-.02.09-.02.04-.01.09-.02.13-.03.02,0,.04,0,.06-.01.05-.01.11-.02.16-.03.01,0,.02,0,.03,0,.06,0,.12-.02.18-.03,0,0,.01,0,.02,0,.06,0,.13-.02.19-.02,0,0,0,0,0,0,.13-.01.26-.02.39-.02.54-.02,1.09.03,1.62.11.49.08.97.19,1.45.32.1.03.2.06.3.09,0,0,0,0,0,0,.1.03.2.06.3.1,0,0,0,0,.01,0,0,0,0,0,0,0,.03-.03.06-.05.1-.05.37,0,.75.03,1.1.14.37.11.66.29.98.5.01,0,0,.02,0,.02-.46-.23-1.01-.35-1.54-.38.18.07.36.14.55.22,0,0,.01,0,.02,0,.19.08.38.16.57.25,0,0,.02,0,.02.01.19.08.37.17.56.26,0,0,.02,0,.02.01.09.04.18.09.27.13,0,0,.02,0,.02.01.08.04.17.08.25.13,0,0,.02,0,.02.01.09.04.17.09.26.13.01,0,.03.02.04.02.08.04.16.08.24.13,0,0,.01,0,.02,0,.16.01.32.1.46.2.05.03.09.07.13.11.9.48,1.8.96,2.68,1.48,1.32.78,2.58,1.68,3.76,2.66.1.08.19.16.29.24.02.02.04.03.06.05.1.08.19.17.29.25,0,0,.01.01.02.02.09.08.19.17.28.25.01,0,.02.02.03.03.1.09.2.18.3.28,0,0,0,0,.01.01.2.19.4.39.6.59,0,0,0,0,0,0,.2.2.39.41.58.62h0c.4.45.79.92,1.14,1.4h0c.07.1.15.2.22.31.01.02.03.04.04.06.03.04.06.08.09.13.02.03.03.05.05.08.03.04.05.08.08.12.02.03.04.06.05.09.03.04.05.08.08.12.02.03.04.07.06.1.03.05.07.11.1.16.03.05.06.1.09.15.01.03.03.05.04.08.03.05.05.1.08.14.01.03.03.05.04.08.03.05.06.11.09.16.01.02.02.04.03.06.04.07.08.15.11.22,0,.01.01.02.02.03.03.06.06.13.09.19.01.02.02.05.03.07,0,0,0,0,0,0,.02.05.05.1.07.15.01.03.02.05.04.08,0,.02.02.04.03.06.01.03.03.06.04.1.01.02.02.05.03.07.03.08.06.15.09.23.02.04.03.08.05.12,0,.01,0,.02.01.03.03.08.06.16.09.24,0,.01,0,.02.01.03.01.04.03.08.04.12h0s.02.06.03.09c.03,0,.05.01.08.02.09.04.07.18,0,.22,0,.02.01.05.02.07,0,.01,0,.02,0,.03.01.04.02.09.03.13h0c.15.64.2,1.3.07,1.93-.06.29-.17.57-.33.82.14-.04.28-.34.33-.46.09-.24.11-.49.13-.75,0-.2-.03-.46.08-.63.03-.04.08-.04.11,0,.17.23.11.68.08.95-.03.3-.11.59-.27.85-.13.22-.35.44-.63.33-.01,0-.02-.01-.03-.02-.06.06-.12.12-.18.18-.03.02-.06.05-.09.07,0,0-.02.01-.02.02,0,0,0,0,0,0-.26.19-.54.32-.85.41.05.02.11.03.17.04.22.04.39.11.62.06.41-.08.82-.35,1.09-.66.65-.74.67-1.84.48-2.77,0-.04,0-.08-.01-.12,0-.02-.02-.04-.03-.06-.01-.05-.02-.1-.04-.15-.52-1.96-1.65-3.74-2.96-5.27-.28-.33-.57-.65-.88-.95-.7-.81-1.41-1.59-2.21-2.3-1.66-1.48-3.52-2.76-5.5-3.76-.21-.11-.42-.21-.64-.31-2.37-1.46-5.14-3.24-8.01-2.99.19-.11.38-.22.56-.33.56-.34,1.12-.69,1.68-1.03.82-.38,1.66-.74,2.51-1.08.04-.01.09-.03.13-.04.46-.11.93-.19,1.4-.25.09,0,.17,0,.26.01.08-.03.16-.05.25-.07.06-.02.11-.03.17-.04.01,0,.03,0,.04-.01.06-.01.12-.03.18-.04.18-.04.37-.07.55-.09.15,0,.3,0,.45,0,.43.03.86.13,1.28.24.86.24,1.7.53,2.56.78.34.1.67.2,1.01.31.59.27,1.19.55,1.78.82.27.12.46.2.72.3h0s.05.02.07.03c.1.04.19.08.29.12.07.03.14.06.21.09,0,0,.02,0,.02.01.07.03.14.07.22.1.45.22.87.47,1.28.76.08.06.16.12.24.17.03.02.05.04.08.06.05.04.11.08.16.12.03.02.06.05.09.07.05.04.11.09.16.13.02.02.05.04.07.06.08.07.16.13.24.2h0c1.18,1.03,2.17,2.27,3.09,3.54h0s.06.09.09.13c.12.17.25.35.37.52.08.11.16.23.24.34h0c.24.34.47.68.71,1.03.07.13.14.26.22.39-.01.02-.02.04-.03.06-.02.07,0,.14.05.19.06.07.14.1.23.1.13.17.25.33.37.48.08.1.16.2.24.3.08.11.16.22.24.33.04.06.09.12.13.17.02.02.07.09.07.09.06.08.13.16.19.24h0s.02.03.03.04c.12.15.25.3.38.45.08.09.16.18.24.27.02.02.04.05.06.07.07.07.13.15.2.22,0,0,0,0,.01.01.14.15.27.3.41.45.61.74,1.18,1.51,1.66,2.35.19.33.37.67.51,1.03.15.37.18.77.31,1.14.01.03.07.05.08,0,.05-.3-.03-.63-.09-.93-.07-.34-.15-.68-.27-1-.25-.66-.59-1.26-1-1.83-.58-.82-1.28-1.53-1.96-2.27,0,0,0,0,0,0,.13-.07.24-.17.36-.25.16-.12.33-.23.49-.35.23-.16.02-.55-.23-.39-.17.11-.34.22-.51.32-.14.09-.29.16-.42.27-.08-.11-.16-.22-.24-.32-.02-.03-.04-.06-.06-.09.19-.1.37-.24.53-.34.25-.17.46-.37.68-.57.22-.2.42-.42.61-.66.19-.24.33-.49.49-.75.05-.08-.07-.18-.13-.1-.18.21-.41.41-.61.6-.21.19-.43.38-.66.56-.23.18-.48.32-.73.47-.17.1-.36.19-.54.3-.1-.15-.2-.3-.31-.44.11-.05.2-.09.27-.13.35-.18.68-.42.96-.69.24-.23-.12-.57-.36-.36-.27.24-.56.42-.89.56-.09.04-.21.07-.33.11-.11-.17-.23-.34-.34-.52.24-.03.48-.14.68-.23.31-.13.61-.29.88-.49.56-.42.95-.95,1.28-1.56.06-.11-.09-.19-.16-.1-.36.5-.88.91-1.41,1.23-.25.15-.52.29-.8.4-.15.06-.29.1-.44.15-.12.03-.24.05-.34.12-.1-.17-.21-.33-.31-.5.29-.03.59-.17.84-.29.36-.17.68-.4.98-.67.22-.2-.1-.51-.33-.33-.26.22-.56.4-.88.53-.28.12-.62.15-.88.3-.09-.14-.17-.28-.26-.43.16-.03.31-.08.46-.15.08-.04.17-.07.24-.13.07-.05.12-.12.18-.17.03-.02.01-.08-.02-.09-.09-.01-.16-.05-.25-.06-.08-.01-.19,0-.27,0-.2.01-.39.05-.58.12-.01,0-.03.01-.04.02-.05-.09-.11-.18-.16-.27.22-.05.43-.13.62-.24.28-.15.47-.38.7-.58.04-.03-.01-.09-.05-.06-.25.13-.55.17-.82.24-.24.06-.49.11-.73.19-.1-.16-.2-.31-.31-.47.09-.02.18-.06.27-.09.2-.07.4-.15.58-.25.36-.19.67-.46.99-.72.15-.12-.05-.38-.21-.27-.31.22-.67.37-1.02.52-.16.07-.32.14-.49.2-.15.05-.32.08-.44.17-.08-.11-.16-.21-.25-.32.17-.07.34-.18.48-.25.35-.19.7-.4,1.02-.65.31-.24.61-.5.88-.79.13-.14.26-.28.38-.43.13-.16.2-.34.3-.51.01-.02-.02-.04-.04-.03-.14.13-.31.23-.46.35-.14.13-.29.25-.44.38-.28.23-.58.44-.89.64-.3.19-.61.37-.93.53-.17.08-.35.16-.52.24-.06.02-.11.05-.17.07-.03-.03-.06-.06-.08-.09-.07-.07-.14-.14-.21-.21.53-.21,1.02-.5,1.48-.83.22-.15.01-.52-.21-.36-.5.35-1.03.62-1.59.85,0,0-.01,0-.02.01-.08-.07-.16-.15-.24-.22.18-.09.36-.22.48-.3.32-.21.62-.45.83-.77.06-.09.11-.18.18-.25.09-.09.2-.1.31-.16.16-.09.29-.24.4-.38.24-.3.45-.62.5-1.01.01-.09-.1-.11-.16-.07-.28.22-.49.52-.7.81-.1.13-.23.28-.29.44-.05.14-.04.2-.18.31-.07.06-.15.1-.23.13-.33.16-.62.36-.94.54-.16.09-.32.18-.48.26-.05.03-.11.05-.16.08-.07-.05-.14-.11-.21-.16.19-.12.36-.28.49-.39.3-.24.56-.51.8-.81.23-.28.45-.58.63-.89.1-.16.19-.33.27-.51.07-.17.11-.36.19-.53.04-.1-.13-.17-.17-.07-.15.3-.38.59-.58.86-.21.29-.45.56-.71.82-.25.24-.51.46-.79.67-.14.1-.28.2-.43.29-.09.06-.18.11-.25.18-.1-.07-.21-.14-.31-.2.22-.11.43-.28.62-.43.27-.21.52-.44.73-.7.19-.24.36-.49.5-.77.13-.26.27-.56.25-.86,0-.09-.11-.11-.16-.04-.17.23-.27.51-.41.76-.14.25-.31.48-.51.69-.2.22-.43.41-.67.58-.24.17-.53.29-.74.49-.01.01-.02.02-.03.04-.17-.1-.35-.19-.53-.28.51-.23.98-.66,1.32-1.08.36-.44.84-1.15.67-1.75,0-.02-.03-.03-.04-.01-.21.19-.33.45-.47.69-.16.26-.33.51-.53.74-.2.23-.42.43-.67.61-.25.17-.52.3-.78.46-.03.02-.06.05-.08.08,0,0-.01,0-.02,0-.14-.07-.29-.14-.43-.21.16-.1.3-.22.4-.3.16-.13.31-.26.43-.43.13-.18.2-.38.31-.57.01-.02-.02-.04-.04-.03-.15.13-.33.22-.5.32-.17.1-.33.21-.5.31-.16.09-.33.18-.5.26-.09.04-.19.08-.27.13-.1-.04-.2-.09-.3-.13.06-.03.11-.07.17-.1.25-.16.52-.26.75-.46.21-.18.41-.39.57-.62.17-.24.24-.5.34-.78.03-.09-.1-.13-.14-.06-.14.22-.33.41-.5.6-.17.19-.34.37-.53.54-.19.16-.36.35-.58.46-.18.09-.38.14-.58.2-.13-.05-.27-.1-.4-.15.34-.15.66-.47.59-.75,0-.01-.02-.03-.03-.03-.19,0-.39.18-.56.26-.2.1-.5.1-.66.26,0,0,0,0-.01.01-.28-.09-.57-.18-.85-.26.31-.13.61-.27.92-.4.65-.27,1.31-.51,1.98-.72.66-.21,1.34-.36,2-.55.67-.19,1.34-.32,2.04-.38.15-.01.31-.03.46-.04.22.06.44.13.65.21.22.04.43.11.64.18h0s.08.03.12.05c0,0,0,0,0,0,.16.06.32.13.48.21,0,0,0,0,0,0,.04.02.08.04.11.06h.01c.11.06.21.12.32.18.01,0,.02.01.04.02.03.02.06.03.08.05.02.01.03.02.05.03.03.02.05.03.08.05.03.02.06.04.09.06.03.02.05.03.08.05.03.02.06.04.09.06.02.01.03.02.05.03.03.02.06.04.09.06.01,0,.03.02.04.03.04.03.09.06.13.09,1.81,1.28,3.39,2.87,4.83,4.56,0-.16-.03-.3-.15-.43-.14-.15.04-.39.22-.28.32.2.34.64.26.97,0,.03-.02.07-.03.1.18.21.35.43.53.64,0,0,.02.02.02.03.01.02.03.04.04.05.04.05.09.11.13.16,0,0,0,0,0,0,0,0,.01.02.02.02.04.06.09.11.13.17,0,0,.01.01.02.02,0,0,0,0,0,0,.04.06.09.12.13.18.06,0,.12.01.18.02.13.01.25,0,.34.11.02.03.02.05,0,.08-.08.1-.2.1-.32.09.03.04.06.09.08.13,0,.01.02.02.02.04.04.06.08.12.11.18,0,.01.02.02.02.04.04.06.07.12.11.18,0,.01.01.02.02.04.17.29.33.58.48.88,0,0,0,0,0,.01.03.05.05.11.08.16.01.02.02.05.04.07.02.04.04.09.06.13.02.03.03.07.05.1,0,0,0,.02.01.03.06-.04.13-.04.2.02.02.02,0,.06-.03.05-.06-.01-.09,0-.11.05.01.03.03.06.04.09.02.04.03.07.05.11.02.04.04.08.06.13.02.04.03.07.05.11.02.05.04.09.06.14h0c.41.92.78,1.86,1.18,2.77,0,0,0,0,0,0,.02.05.04.1.06.14.02-.05.09-.08.15-.07.13.02.27.02.37.12.03.03.02.07-.01.09-.07.04-.15.05-.23.04.02.13.02.27-.02.39.18.4.37.81.55,1.21.04.08.07.17.11.25.02.04.03.08.05.12.02.05.05.11.07.16.02.04.03.08.05.12.02.05.04.11.06.16.02.04.03.08.05.12.02.05.04.11.06.16.02.04.03.08.05.12.02.05.04.11.06.16.01.03.03.07.04.1,0,.01,0,.02.01.03.02.05.04.1.06.16,0,.02.02.05.03.07,0,.02.01.04.02.06.02.06.04.12.06.18,0,.01,0,.03.01.04,0,.02.01.04.02.07.03.09.06.19.09.28.02.06.04.13.06.19h0c.06.2.11.4.16.6h0c.16.68.25,1.4.14,2.08h0s-.02.09-.02.14c0,.03-.01.06-.02.08,0,0,0,0,0,0,0,.03-.01.06-.02.08,0,0,0,0,0,0,0,0,0,.02,0,.02,0,.02-.01.04-.02.06,0,.03-.02.06-.03.1-.26.84-.87,1.45-1.61,1.89-.06.03-.11.07-.17.1-.26.14-.53.27-.8.39,0,0,.01,0,.02,0,.2.01.4.02.6,0,.22-.02.44-.06.65-.13,0,0,0,0,.01,0,.03-.02.07-.03.1-.05.09-.03.17-.07.25-.12.17-.09.32-.22.46-.36.17-.15.32-.31.44-.48.44-.63.65-1.31.7-1.99.04-.28.05-.57.04-.87-.03-.71-.18-1.41-.43-2.09-.14-.39-.31-.76-.49-1.14-.16-.34-.31-.66-.58-.92-.23-.67-.46-1.35-.7-2.02-.3-.88-.63-1.75-.95-2.63-.3-.81-.6-1.62-.99-2.39-.77-1.49-1.92-2.77-3.07-3.98-1.13-1.18-2.34-2.28-3.66-3.26-.73-.55-1.49-1.05-2.31-1.48-.13-.07-.26-.13-.41-.2,2.37.03,4.74.14,7.11.34.25.02.5.05.75.07,0,0,0,0,.01,0,0,0,.01,0,.02,0,1.15.27,2.26.66,3.37,1.07.21.14.42.28.62.44,1.22.93,2.27,2.08,3.26,3.25.6.72,1.2,1.44,1.78,2.18.3.46.59.93.88,1.4.67,1.12,1.31,2.26,1.85,3.45.12.27.25.55.35.83.21.55.34,1.12.53,1.68.15.46.31.92.44,1.38.12.41.23.83.33,1.25,0,0-.01.01-.02.02-.05.04-.01.13.05.12h0c.03.14.07.29.1.43.04.18.08.37.12.55.01.1.02.21.04.31.02.15.05.29.09.44,0-.07,0-.15.01-.22,0,0,0,0,0,0,0-.03,0-.05,0-.08,0-.02,0-.04,0-.06,0-.04,0-.08,0-.12,0-.02,0-.03,0-.05,0-.05,0-.1,0-.15,0,0,0-.01,0-.02,0-.06,0-.11,0-.17,0-.01,0-.03,0-.04,0-.04,0-.09,0-.13,0-.02,0-.04,0-.06,0-.04,0-.07,0-.11,0-.02,0-.04,0-.07,0-.03,0-.07,0-.1,0-.02,0-.05,0-.07,0-.03,0-.06,0-.1,0-.02,0-.05,0-.07,0-.03,0-.06-.01-.1,0-.02,0-.05,0-.07,0-.02,0-.03,0-.05h0s0-.02,0-.02c0,0,0-.02,0-.02,0-.02,0-.05,0-.07,0-.03,0-.06-.01-.09,0-.01,0-.03,0-.04,0-.01,0-.02,0-.04,0-.03-.01-.07-.02-.1,0-.02,0-.05-.01-.07,0,0,0-.01,0-.02,0,0,0,0,0-.01,0-.02,0-.05-.01-.07,0-.02,0-.04-.01-.07,0-.02,0-.05-.01-.07,0-.02,0-.04-.01-.05,0-.02,0-.03,0-.05-.01-.06-.02-.11-.03-.17-.03-.13-.05-.26-.08-.38,0,0,0-.02,0-.03,0-.04-.02-.09-.03-.13,0-.03-.01-.06-.02-.09h0s0-.03-.01-.05c0-.03-.01-.06-.02-.09,0-.02-.01-.04-.02-.06,0-.03-.02-.07-.02-.1,0-.02-.01-.04-.02-.06-.01-.05-.02-.11-.04-.16,0-.01,0-.03-.01-.04,0-.03-.01-.05-.02-.08,0-.03-.01-.05-.02-.08,0-.02-.01-.05-.02-.07.29-.04.58-.11.86-.21.3-.12.52-.29.76-.49.06-.05,0-.15-.07-.13-.51.19-1.09.35-1.63.39,0,0-.01,0-.02,0-.03-.11-.05-.21-.08-.32,0,0,0,0,0,0,.46-.09.89-.34,1.28-.6.1-.06.2-.14.32-.18.08-.03.16-.03.24-.07.21-.11.41-.28.59-.43.14-.12-.05-.37-.2-.26-.18.12-.36.23-.54.35-.08.06-.13.13-.2.19-.09.08-.23.13-.34.17-.41.15-.85.23-1.26.38,0,0,0-.01,0-.02,0-.01,0-.02,0-.03-.02-.08-.04-.15-.05-.23v-.04c.12-.04.25-.11.37-.18.14-.08.25-.2.39-.29.03-.02,0-.05-.02-.05-.16.02-.31,0-.47.03-.14.03-.28.06-.41.11-.06-.17-.13-.34-.2-.51.09-.01.18-.04.27-.07.22-.08.38-.23.57-.37.13-.1.02-.3-.13-.22-.27.15-.6.14-.91.17-.06-.15-.13-.29-.19-.44.53-.03,1.03-.24,1.49-.5.05-.03.08-.07.08-.12.12.04.31-.08.4-.14.21-.15.37-.33.55-.5.11-.1-.03-.27-.15-.2-.22.12-.44.21-.64.36-.08.06-.23.18-.26.3-.04-.02-.1-.03-.16,0-.49.22-1.03.26-1.56.29-.06-.13-.12-.25-.19-.37-.02-.04-.03-.07-.05-.11.18,0,.37-.04.53-.08.31-.07.61-.18.9-.31.52-.24,1.16-.6,1.38-1.16.02-.05-.04-.1-.08-.08-.26.09-.47.22-.7.37-.25.16-.52.29-.79.4-.26.11-.54.19-.81.25-.2.04-.45.05-.64.15-.06-.13-.13-.26-.2-.39.27-.04.55-.13.79-.21.44-.15.77-.43,1.13-.7.04-.03.02-.1-.03-.08-.38.15-.8.2-1.19.3-.2.06-.4.1-.6.14-.11.02-.23.03-.34.05-.05-.1-.1-.2-.15-.29,0-.01-.02-.03-.02-.04.2-.03.4-.09.58-.14.32-.09.64-.21.95-.35.31-.14.61-.31.88-.51.13-.09.26-.19.38-.3.13-.12.21-.26.33-.39.04-.05-.01-.13-.07-.09-.14.09-.31.14-.46.22-.13.07-.25.14-.38.21-.28.15-.57.29-.87.4-.29.12-.59.21-.9.29-.22.05-.48.07-.71.14-.07-.12-.13-.24-.2-.36.29-.1.57-.27.83-.41.15-.09.3-.17.44-.27.15-.11.28-.25.43-.35.03-.02.01-.07-.03-.06-.16.04-.34.05-.51.09-.18.04-.35.1-.53.16-.3.1-.64.21-.92.38-.08-.13-.16-.26-.24-.39.53-.19,1.05-.45,1.51-.76.52-.34,1.13-.75,1.45-1.29.04-.07-.04-.15-.11-.11-.28.14-.53.35-.79.52-.26.17-.52.33-.79.48-.51.28-1.04.49-1.58.68-.1-.15-.2-.3-.3-.45.27-.05.55-.13.8-.25.29-.14.52-.41.82-.51.14-.04.27-.06.4-.13.14-.07.26-.18.38-.29.2-.19.43-.46.5-.74.02-.08-.06-.13-.13-.1-.24.11-.46.32-.67.49-.12.09-.24.18-.34.29-.1.1-.17.22-.27.31-.21.19-.58.21-.85.29-.29.08-.58.16-.87.21-.02,0-.04,0-.06.02-.07-.1-.15-.2-.23-.3.28-.07.55-.21.8-.34.28-.14.55-.3.8-.48.25-.18.48-.37.69-.59.23-.23.4-.48.6-.74.05-.07-.06-.14-.11-.09-.42.42-.95.77-1.46,1.07-.25.14-.5.28-.76.4-.29.13-.59.2-.87.33,0,0-.01,0-.02,0-.08-.1-.16-.2-.25-.3.22-.05.44-.13.64-.25.29-.17.53-.38.79-.59.12-.1-.04-.3-.17-.22-.48.32-1.12.41-1.67.55,0,0-.02,0-.02,0-.05-.06-.1-.11-.15-.17.22,0,.44-.13.64-.21.14-.05.3-.08.44-.13.14-.05.25-.12.37-.21.23-.17.46-.35.64-.58.13-.16.32-.41.28-.63,0-.03-.04-.04-.06-.03-.19.03-.37.25-.51.37-.2.17-.39.35-.61.49-.2.14-.4.33-.61.44-.22.12-.51.1-.71.24-.02.01-.03.03-.04.04-.08-.09-.17-.19-.25-.28.16-.03.31-.11.42-.17.28-.15.45-.35.66-.57.04-.04-.02-.1-.06-.06-.2.17-.51.27-.76.35-.16.05-.4.05-.55.15-.17-.18-.35-.36-.53-.54-.06-.06-.12-.12-.19-.18.04-.02.09-.04.13-.05,1.1-.04,2.14-.41,3.2-.68.85-.22,1.71-.3,2.56-.21,0,0,.01,0,.02,0,.36.19.69.44.98.73,0-.22-.05-.43-.23-.6-.05-.05-.03-.15.04-.16.24-.05.41.13.49.34.09.25.06.54.04.81.08.1.15.2.22.31.74,1.14,1.06,2.49,1.45,3.78.43,1.43.86,2.87,1.3,4.3.42,1.4.91,2.79,1.23,4.21.01.06.03.12.04.17,0,.03.01.06.02.09.02.14.04.27.06.41,0,.06,0,.12,0,.18,0,.02,0,.03,0,.05,0,.05,0,.1,0,.15,0,.02,0,.03,0,.05,0,.05,0,.1,0,.15,0,.01,0,.02,0,.03,0,.26-.02.53-.06.79,0,0,0,0,0,0,0,.07-.02.13-.03.2-.04.24-.09.48-.15.72-.01.04-.02.09-.04.13,0,.02-.01.03-.02.05,0,.03-.02.05-.02.08,0,.02-.01.04-.02.06,0,0,0,0,0,0h0s-.03.08-.04.11c0,0,0,0,0,0-.01.03-.02.06-.04.09,0,.01,0,.02-.01.03,0,.02-.01.03-.02.05-.04.1-.08.19-.13.29h0s-.01.02-.02.03c-.01.03-.03.05-.04.08,0,.01-.01.03-.02.04-.01.03-.03.05-.04.08,0,.02-.02.03-.03.05-.01.02-.03.05-.04.07-.01.02-.02.03-.03.05-.02.04-.05.07-.07.11-.01.02-.03.04-.04.07-.01.02-.02.03-.04.05-.01.02-.03.04-.04.06-.01.02-.02.03-.04.05-.02.02-.03.04-.05.06-.01.02-.02.03-.04.05-.02.02-.04.04-.05.06-.01.01-.02.03-.04.04-.02.02-.04.05-.06.07-.01.01-.02.02-.03.03-.03.03-.06.07-.1.1-.03.03-.06.06-.1.09-.01,0-.02.02-.03.03-.02.02-.05.04-.07.06-.01.01-.03.02-.04.03-.02.02-.04.04-.07.05-.01.01-.03.02-.04.03-.02.02-.05.04-.07.06,0,0,.02,0,.03-.01,1.12-.07,1.88-1.51,2.17-2.63,0-.07,0-.15,0-.22.13-.61.14-1.23.07-1.85-.03-.23-.06-.46-.11-.69.02,0,.04-.01.06-.02-.06-.27-.12-.54-.19-.81-.03-.12-.07-.25-.1-.37,0-.03-.02-.06-.02-.09-.03-.12-.07-.24-.1-.36,0,0,0-.01,0-.02-.04-.12-.07-.24-.11-.36,0-.03-.02-.05-.02-.08-.04-.12-.07-.24-.11-.37h0c-.05-.17-.11-.35-.16-.52-.35-1.14-.68-2.28-.87-3.46-.47-1.63-.93-3.28-1.44-4.9-.14-.44-.29-.87-.49-1.28-.02-.05-.05-.09-.07-.14.32.14.65.29.97.44,1.47.68,2.9,1.44,4.3,2.27,2.79,1.64,5.42,3.53,7.8,5.72.18.16.35.32.52.49.09.14.17.29.25.44.21.41.39.85.52,1.29.14.45.34.93.39,1.39,0,.07.04.13.1.15-.04.83-.26,1.65-.63,2.41-.14.16-.23.37-.33.55-.13.23-.28.45-.38.69-.04.09.05.21.15.15.07-.04.14-.1.21-.16.07,0,.14-.03.2-.09.31-.4.56-.82.76-1.27,0,0,0,0,0,0,.21-.35.41-.72.72-1,.31-.28.74-.33,1.09-.55.03-.02.06-.04.08-.06.05.04.1.09.15.13.37.34.71.72,1.02,1.11.42.71.81,1.44,1.17,2.19,1.35,2.8,2.33,5.8,2.85,8.86,0,.02,0,.04.01.06,0,0,0,0,0,0-.04.36-.03.72.02,1.07-.1.16-.18.34-.25.51,0,0,0,.02-.01.03-.04.03-.07.09-.07.16,0,.02,0,.03,0,.05-.03.11-.05.23-.04.34,0,.04-.02.08-.03.12-.03.02-.05.04-.06.08-.04.09-.09.18-.13.27-.16.1-.21.32-.09.46-.02.03-.04.06-.07.08-.07.08-.15.16-.22.24-.16.15-.32.29-.47.45-.05.06-.06.12-.05.17-.01.01-.02.03-.03.04-.07.09,0,.23.11.2.42-.1.9-.45,1.12-.82.03-.04.04-.08.06-.12.11-.1.21-.21.31-.33.03-.04.06-.08.09-.12.04.28,0,.58-.02.85,0,.11-.02.22-.02.33-.05.22-.11.44-.17.66-.37,1.28-.98,2.39-1.71,3.45-1.82,1.48-3.91,2.46-6.16,3.32-1.88.72-3.78,1.41-5.7,2.02-.22.06-.44.12-.67.17-.13,0-.25-.01-.38-.02-.33-.02-.68-.1-1.02-.15-.23-.13-.51-.21-.72-.26-.39-.09-.8-.09-1.2-.05-.2.02-.39.06-.59.11-.16.05-.36.09-.49.21-.24.24-.04.4.24.35.2-.03.39-.12.59-.17.2-.05.41-.08.62-.09.06,0,.12,0,.19,0-.03.01-.05.02-.08.04-.36.19-.66.49-1,.72-.22.15-.46.28-.7.4-1.41.32-2.83.62-4.25.9-3.9.76-7.84,1.35-11.79,1.78-1.18.13-2.36.24-3.54.34.04.07.06.15.07.23,0,.01,0,.02,0,.03,0,0,0,.02,0,.03-.16-.21-.37-.38-.57-.56-.23-.21-.39-.43-.41-.71.19-.34.3-.72.32-1.11.05-.13.1-.25.15-.38.07-.19.12-.39.14-.59.02-.21-.05-.38-.11-.58-.02-.05-.09-.04-.09.01-.02.26-.05.51-.1.76,0,.03-.01.05-.02.08-.07.15-.15.29-.22.41-.05.09-.11.18-.16.26-.26.35-.49.72-.73,1.08-.26.39-.58.73-.91,1.05-.07.07-.14.14-.2.2-.85.06-1.7.11-2.55.15-.7.04-1.4.05-2.09.1-.78,0-1.56-.01-2.34-.03-.03-.04-.07-.07-.12-.08-.2-.04-.4-.03-.6-.05-.2-.01-.4-.06-.59-.12-.36-.12-.71-.43-1.1-.45-.03,0-.06.03-.06.06,0,.02,0,.05,0,.07-.07.03-.13.07-.19.11-.13.08-.27.17-.4.25-.05.03-.11.06-.17.08-2.05-.11-4.09-.29-6.12-.53-.77-.09-1.53-.19-2.3-.29-.03,0-.06-.01-.09-.02-1.65-.3-3.3-.62-4.95-.93-.45-.09-.9-.17-1.36-.26-.24-.05-.49-.1-.73-.14-.58-.21-1.16-.43-1.73-.64-1.64-.61-3.27-1.22-4.91-1.83-.41-.15-.83-.31-1.25-.47-.25-.19-.48-.41-.73-.61-.55-.43-.93-1.15-1.2-1.78-.16-.37-.31-.78-.4-1.2,0-.05,0-.1.01-.15.05-.55.14-1.09.27-1.62,0,0,0-.01.01-.02.18-.22.3-.51.06-.74-.12-.12-.34-.07-.39.1-.05.15-.09.31-.13.46-.04.04-.07.08-.08.09-.09.11-.16.23-.21.37-.1.3-.08.63-.03.94,0,.05.01.09.02.14-.01.09-.03.19-.04.28-.09.72-.26,1.49-.09,2.22.01.05.03.1.04.14-.07.01-.14.02-.21.03-.06,0-.18,0-.28,0-.81-.37-1.6-.76-2.37-1.22-1.43-.94-2.75-2.03-3.82-3.33,0,0-.01-.02-.02-.02-.12-.24-.22-.49-.32-.74,0,0,0-.02-.01-.03-.66-1.07-1.11-2.28-1.33-3.52-.01-1.6.23-3.2.69-4.72.45-1.5,1.11-2.93,1.87-4.31.06-.04.11-.08.16-.13.07-.05.15-.09.22-.11.13-.04.44.02.34.24-.06.14.12.25.2.12.21-.33.16-.73.14-1.12,0-.03.02-.06.02-.09.07-.25.15-.5.22-.74.07-.24.14-.47.21-.71,1-1.61,2.07-3.21,3.47-4.48,1.21-1.1,2.66-1.94,4.21-2.48.17-.02.34-.04.51-.06.7-.08,1.39-.16,2.09-.23.68-.07,1.37-.12,2.06-.18.32-.02.65-.05.97-.07.65.09,1.29.23,1.92.41.5.14.99.31,1.48.49.1.04.19.07.29.1.65.3,1.29.63,1.91.97,1.23.67,2.42,1.42,3.57,2.22.57.4,1.13.81,1.68,1.24h0c.25.19.5.39.75.59,0,0,0,0,0,0,.67.54,1.34,1.09,2,1.65.23.18.46.37.68.55.03.03.05.05.08.08.21.18.43.35.64.53,0,0,0,0,0,0,.02.02.05.04.07.06.04.03.08.07.12.1.09.08.19.16.28.23.02.02.04.04.07.05.25.2.5.4.75.6.01.01.03.02.04.03.13.1.25.2.38.29h0c.23.17.45.35.68.52,0,0,0,0,0,0,.04.03.08.06.12.09.1.05.2.1.31.14.2.08.41.13.61.23.07.04.14-.07.07-.11-.19-.12-.33-.28-.5-.42-.15-.13-.31-.25-.47-.38-.32-.26-.65-.5-.97-.75-.62-.49-1.2-1.04-1.75-1.61-.55-.58-1.09-1.17-1.73-1.67-.26-.2-.53-.39-.82-.55h0c.22-.04.45-.13.64-.21.31-.14.62-.32.9-.53.57-.43.91-.99,1.09-1.67.04-.13-.15-.18-.2-.06-.23.56-.69,1.06-1.16,1.43-.24.19-.5.33-.8.41-.28.08-.62.09-.88.21,0,0,0,0-.01,0-.15-.14-.3-.29-.45-.42-.16-.14-.33-.28-.5-.42.16-.09.32-.21.45-.33.23-.21.38-.41.5-.7.02-.04-.04-.08-.08-.06-.24.13-.46.27-.69.41-.2.12-.41.22-.61.33,0,0,0,0,0,0-.11-.09-.22-.18-.34-.26.44-.28.85-.62,1.17-1.02.1-.12.19-.26.27-.4.07-.13.09-.29.16-.42.1-.18.3-.23.38-.43.06-.16.09-.34.14-.51.02-.07-.07-.1-.11-.05-.08.13-.18.25-.27.38-.1.13-.1.22-.13.37-.05.2-.23.29-.38.41-.12.1-.24.2-.35.31-.4.39-.82.75-1.3,1.04-.13-.1-.27-.2-.41-.3.14-.09.27-.19.4-.29.28-.23.53-.49.76-.77.22-.28.4-.57.54-.89.07-.17.13-.34.18-.51.05-.19.06-.37.09-.55.02-.1-.12-.14-.15-.04-.1.31-.3.62-.47.9-.17.28-.35.57-.56.82-.21.25-.45.48-.7.69-.16.13-.33.24-.5.35-.13-.09-.26-.18-.39-.27.24-.21.47-.44.68-.69.15-.17.28-.35.39-.56.12-.23.16-.44.24-.68.01-.04-.04-.05-.06-.03-.13.18-.3.33-.45.5-.14.17-.28.34-.42.51-.23.26-.48.48-.76.69-.19-.13-.39-.25-.59-.38.06-.03.11-.06.16-.1.33-.21.62-.48.86-.78.5-.64.94-1.49,1.07-2.3,0-.06-.07-.13-.12-.07-.48.61-.75,1.36-1.28,1.95-.23.25-.48.49-.77.67-.16.1-.35.17-.53.26-.14-.08-.27-.17-.41-.25,0,0,.02-.01.03-.02.2-.14.37-.32.55-.48.37-.33.69-.7.96-1.11.13-.19-.18-.37-.31-.18-.26.37-.57.72-.92,1.02-.17.14-.36.25-.55.36-.07.05-.15.09-.24.13-.08-.04-.16-.09-.23-.13.17-.09.33-.2.46-.29.33-.23.69-.52.88-.89.19-.35.41-.69.59-1.05.15-.31.34-.7.3-1.06-.03,0-.07-.02-.1-.03-.2.29-.27.68-.44.99-.08.16-.18.32-.28.47-.12.18-.27.29-.44.41-.29.21-.55.45-.85.65-.22.14-.56.27-.77.47-.11-.05-.21-.11-.32-.16.17-.11.33-.23.48-.36.37-.34.69-.8.92-1.25.12-.23-.22-.43-.34-.2-.24.44-.55.77-.95,1.07-.18.14-.38.27-.58.39-.05.03-.09.05-.14.08-.19-.08-.38-.15-.58-.22,0,0,0-.01.01-.02.03-.05-.04-.1-.08-.06-.02.02-.04.03-.06.04-.12-.04-.24-.07-.37-.11.05-.04.09-.08.13-.11.22-.2.42-.45.6-.69.14-.2-.19-.45-.34-.26-.16.21-.34.39-.55.56-.1.08-.19.15-.29.22-.07.04-.14.08-.2.13-.12-.02-.24-.05-.35-.07,0,0,0,0,0,0,.22-.18.41-.38.59-.6.32-.41.61-.89.64-1.43,0-.12-.15-.15-.21-.06-.26.41-.47.85-.79,1.22-.15.18-.33.34-.51.49-.13.1-.27.19-.4.29-.1-.01-.19-.02-.29-.03.08-.07.15-.14.2-.2.23-.24.33-.52.5-.8.05-.08-.07-.18-.14-.1-.18.22-.45.39-.67.59-.14.13-.36.27-.44.47-.05,0-.1,0-.15,0-.12-.02-.25-.04-.37-.05.21-.19.38-.43.49-.69.1-.22-.2-.42-.34-.2-.18.29-.45.53-.76.67-.1.05-.21.07-.3.13-.1,0-.19,0-.29-.01.14-.11.27-.22.39-.35.19-.19.37-.4.51-.63.1-.17.3-.47.22-.68-.01-.03-.04-.05-.07-.04-.19.05-.32.3-.44.44-.16.19-.32.38-.5.56-.18.18-.38.34-.59.48-.11.07-.24.14-.35.21-.03,0-.06,0-.1,0,.1-.07.19-.14.27-.22.19-.17.36-.37.5-.58.15-.23.21-.45.26-.7.02-.11-.11-.16-.17-.07-.26.37-.58.74-.92,1.04-.17.14-.35.26-.55.37-.05.03-.1.05-.15.07.04-.04.07-.08.11-.12.3-.35.54-.72.6-1.18,0-.02-.03-.03-.04-.02,0,0-.02.02-.03.03.18-.23.37-.46.56-.69Zm-12.41,12.44s-.04-.04-.07-.06c.02-.01.04-.02.06-.04,0,.03,0,.07,0,.1Z"/><path class="cls-1" d="m85.07,35.14c-.2.19-.35.39-.52.6-.03.04,0,.12.06.1.25-.09.47-.17.69-.34.22-.16.42-.34.62-.53.2-.19.39-.4.57-.61.16-.2.31-.36.26-.63,0-.04-.07-.09-.11-.08-.24.03-.36.17-.51.36-.17.21-.35.4-.53.6-.17.19-.35.37-.53.54Z"/><path class="cls-1" d="m85.08,33.32c.06-.08-.06-.16-.13-.1-.17.15-.31.32-.47.48-.17.18-.37.31-.57.45-.37.25-.73.52-1.09.79-.7.53-1.45,1.01-2.22,1.44-1.59.89-3.28,1.58-5.01,2.15-.5.17-.99.34-1.49.49-.5.16-.97.38-1.46.56-.04.02-.03.08.02.07.47-.09.94-.14,1.4-.24.46-.11.92-.25,1.37-.38.89-.26,1.76-.57,2.62-.91,1.71-.68,3.38-1.51,4.86-2.61.4-.3.82-.6,1.12-1,.17-.22.33-.44.53-.63.18-.18.36-.35.51-.56Z"/><path class="cls-1" d="m85.79,30.3c-.16.09-.27.22-.38.37-.07.09-.11.17-.16.27-.09.16-.15.2-.29.3-.15.11-.29.24-.43.36-.17.14-.36.24-.52.38-.63.54-1.25,1.1-1.91,1.6-1.32.99-2.74,1.85-4.23,2.55-.86.4-1.74.75-2.62,1.11-.05.02-.03.09.02.08,1.67-.29,3.28-.99,4.75-1.8.75-.41,1.47-.87,2.16-1.37.68-.5,1.38-1.02,1.98-1.62.17-.17.31-.33.45-.53.14-.19.3-.36.43-.55.08-.11.12-.24.23-.33.08-.07.19-.11.27-.18.17-.15.33-.31.4-.53.03-.09-.08-.16-.16-.12Z"/><path class="cls-1" d="m86.12,30.32c.17-.06.33-.16.45-.3.1-.12.23-.3.17-.47-.02-.04-.07-.08-.12-.05-.11.08-.16.2-.24.3-.09.11-.2.19-.33.24-.17.06-.1.34.08.28Z"/><path class="cls-1" d="m77.3,34.76c.67.06,1.29-.16,1.89-.44.6-.28,1.18-.59,1.74-.93,1.14-.68,2.21-1.46,3.2-2.34.28-.25.56-.51.83-.77.2-.19.57-.53.55-.83,0-.05-.04-.09-.09-.09-.25-.01-.51.27-.68.42-.24.22-.47.46-.72.68-.47.43-.96.83-1.47,1.22-1.02.78-2.08,1.48-3.2,2.1-.66.37-1.34.73-2.07.95-.02,0-.01.03,0,.03Z"/><path class="cls-1" d="m40.76,45.62c-.11-.02-.18-.07-.29-.08-.09,0-.18,0-.26-.01-.2,0-.41,0-.61,0-.38,0-.76.01-1.14.02-.41,0-.82,0-1.22.05-.42.04-.81.11-1.24.04-.38-.07-.74-.12-1.12-.12-.39,0-.79,0-1.18-.02-.8-.02-1.6.03-2.4.03-.07,0-.07.1,0,.11,1.55.16,3.15.44,4.7.22.43-.06.82.02,1.24.07.39.04.79.05,1.18.05.39,0,.79,0,1.18,0,.2,0,.41,0,.61-.01.09,0,.18,0,.26-.02.11-.01.18-.06.29-.09.11-.03.11-.2,0-.22Z"/><path class="cls-1" d="m46.75,45.49c-.61-.15-1.28,0-1.89.05-.66.04-1.32.1-1.98.1-.16,0-.15.23,0,.24.68.05,1.34.09,2.02.05.61-.03,1.33-.03,1.86-.35.03-.02.03-.08-.01-.09Z"/><path class="cls-1" d="m66.71,42.67c-.6.08-1.19.18-1.79.25-.55.06-1.09.1-1.63.18-1.13.18-2.26.36-3.39.54-1.13.18-2.26.35-3.39.52-1.12.16-2.23.31-3.33.54-.33.07-.65.12-.99.12-.32,0-.64.07-.95.11-.65.08-1.29.16-1.94.24-.19.02-.2.34,0,.32.58-.06,1.16-.13,1.74-.19.26-.03.53-.06.79-.09.31-.04.6-.13.91-.16.56-.06,1.13-.05,1.7-.12.58-.07,1.15-.15,1.72-.22,2.26-.31,4.53-.65,6.77-1.07.31-.06.63-.11.94-.18.31-.06.61-.17.92-.25.64-.17,1.29-.29,1.94-.45.06-.01.03-.1-.03-.1Z"/><path class="cls-1" d="m37.65,44.6c.5-.01.99-.06,1.49-.13.05,0,.05-.09,0-.1-.87-.18-1.73-.25-2.61-.29-.91-.05-1.82-.1-2.73-.15-1.79-.11-3.57-.26-5.35-.43-1.02-.09-2.03-.17-3.06-.19-.05,0-.06.08-.01.09,1.76.41,3.56.6,5.35.77,1.8.17,3.6.31,5.4.39.5.02,1.01.06,1.52.05Z"/><path class="cls-1" d="m62.65,42.02c-.28.08-.56.15-.85.22-.56.14-1.13.27-1.69.44-.09.03-.07.17.02.16.59,0,1.19-.1,1.77-.22.54-.11,1.18-.2,1.62-.56.06-.05,0-.14-.06-.15-.29-.03-.53.04-.81.11Z"/><path class="cls-1" d="m71.74,40.03c-.59.06-1.17.28-1.74.44-.61.17-1.22.34-1.83.49-.6.15-1.2.28-1.81.41-.3.06-.61.11-.91.18-.31.08-.62.17-.94.23-.07.01-.06.13.02.13.62-.06,1.22-.1,1.83-.21.62-.11,1.24-.24,1.86-.39.6-.14,1.2-.3,1.79-.47.59-.17,1.23-.33,1.77-.65.07-.04.04-.17-.04-.16Z"/><path class="cls-1" d="m54.02,42.21c2.78-.33,5.55-.78,8.3-1.33.76-.15,1.52-.3,2.27-.47.39-.09.77-.22,1.15-.35.38-.13.77-.21,1.16-.3.03,0,.02-.05-.01-.04-.36.07-.72.15-1.09.17-.35.02-.71.03-1.07.08-.68.09-1.36.24-2.04.36-1.38.25-2.77.5-4.15.73-2.75.45-5.5.84-8.28,1.07-.77.06-1.54.11-2.31.15-.76.04-1.58,0-2.33.17-.04,0-.04.06,0,.07.66.17,1.39.12,2.07.12.7,0,1.4-.03,2.1-.06,1.41-.07,2.82-.19,4.22-.36Z"/><path class="cls-1" d="m72.06,38.4c-.6.04-1.19.3-1.76.47-.6.18-1.2.37-1.81.5-.05,0-.04.09.01.08.62-.07,1.23-.13,1.84-.27.58-.13,1.27-.26,1.76-.61.07-.05.05-.18-.05-.17Z"/><path class="cls-1" d="m74.61,37.78c-.5.11-1,.29-1.5.44-.04.01-.02.07.02.06.5-.14,1.02-.26,1.5-.44.03-.01.02-.06-.02-.06Z"/><path class="cls-1" d="m75.23,35.25c-.32.04-.64.08-.95.17-.35.1-.7.23-1.05.34-.65.21-1.25.53-1.9.72-.33.09-.66.15-.99.24-.35.1-.69.25-1.04.38-.65.23-1.31.32-1.99.42-1.37.2-2.71.57-4.05.86-1.35.29-2.7.57-4.05.83-1.52.29-3.04.53-4.55.89-.07.02-.05.13.02.12,1.38-.07,2.74-.28,4.1-.51,1.38-.23,2.75-.49,4.11-.78,1.35-.28,2.71-.57,4.02-.98.3-.09.59-.2.87-.32.34-.14.69-.24,1.05-.34.68-.18,1.4-.23,2.06-.48.35-.13.68-.24,1.05-.31.39-.07.78-.13,1.16-.24.75-.21,1.49-.43,2.17-.81.09-.05.05-.21-.05-.2Z"/><path class="cls-1" d="m65.25,36.64c-.29.06-.59.12-.88.2-.28.08-.57.13-.83.25-.05.02-.02.09.02.09.51.05,1.07-.09,1.57-.18.54-.1,1.07-.21,1.61-.32,1.04-.22,2.07-.49,3.09-.78,1.05-.29,2.09-.62,3.12-.96.99-.33,2.01-.67,2.96-1.11.27-.12.53-.28.78-.43.27-.16.57-.34.87-.41.3-.07.61-.12.91-.21.28-.09.58-.2.78-.41.1-.11.04-.33-.13-.32-.26.02-.48.13-.71.25-.1.05-.21.11-.3.18-.13.09-.26.16-.39.25-.11.08-.21.17-.33.23-.12.06-.25.09-.37.14-.26.1-.55.16-.82.23-1.03.28-2.03.71-3.04,1.07-2.02.7-4.08,1.28-6.16,1.8-.58.15-1.16.28-1.75.41Z"/><path class="cls-1" d="m68.08,34.73c.44,0,.89-.11,1.32-.18.45-.08.91-.2,1.36-.32.88-.24,1.76-.51,2.62-.82,1.73-.61,3.43-1.33,5.07-2.16.45-.23.89-.48,1.33-.72.12-.06.23-.12.35-.19.12-.07.21-.16.33-.22.24-.12.48-.23.7-.38.22-.16.03-.48-.21-.36-.2.1-.4.22-.58.35-.19.13-.4.2-.6.31-.41.22-.83.42-1.24.63-.82.4-1.65.8-2.48,1.17-1.66.73-3.36,1.36-5.08,1.9-.48.15-.96.3-1.44.45-.48.15-.98.29-1.44.5-.02.01-.01.05.01.05Z"/><path class="cls-1" d="m54.58,38.72c.64-.05,1.38-.07,1.97-.35.05-.02.04-.11-.02-.12-.65-.11-1.35.04-1.99.1-.67.06-1.35.1-2.03.13-1.37.05-2.74.03-4.1.06-.06,0-.07.09-.01.1,1.36.22,2.74.25,4.12.2.69-.02,1.38-.06,2.07-.12Z"/><path class="cls-1" d="m59.36,37.7s-.02.04,0,.04c.32.05.64.04.96,0,.3-.04.64-.09.89-.26.06-.04.04-.16-.04-.15-.3.02-.59.13-.88.2-.31.07-.62.12-.93.17Z"/><path class="cls-1" d="m4.75,36.59c-.06-.06-.14-.12-.2-.18-.15-.14-.3-.28-.43-.44-.26-.32-.52-.62-.72-.98-.01-.02-.03,0-.03.01.07.44.2.87.47,1.23.13.17.27.33.42.47.08.07.16.15.25.2.1.06.15.05.26.07.08.01.15-.06.11-.14-.05-.09-.07-.15-.14-.23Z"/><path class="cls-1" d="m13.5,39.94c.22.09.45.21.68.16.08-.01.13-.13.08-.19-.13-.17-.34-.24-.53-.32-.25-.1-.5-.2-.76-.29-.49-.19-.99-.34-1.5-.48-.11-.03-.18.13-.08.18.46.24.91.46,1.39.65.24.1.48.19.71.29Z"/><path class="cls-1" d="m19.11,39.54c.51.14,1.01.31,1.53.44.25.06.5.13.75.19.24.05.51.14.75.12.09,0,.13-.12.05-.17-.2-.12-.45-.16-.68-.22-.26-.07-.53-.12-.8-.18-.52-.12-1.05-.19-1.57-.29-.07-.01-.11.09-.03.12Z"/><path class="cls-1" d="m46,37.1s0,.01,0,.01c3.89.25,7.8-.07,11.67-.53,1.07-.13,2.21-.2,3.23-.57.09-.03.08-.16-.02-.16-.97-.04-1.94.16-2.91.28-.96.12-1.91.23-2.87.32-1.93.19-3.87.32-5.81.42-1.09.06-2.19.15-3.28.23Z"/><path class="cls-1" d="m62.51,35.57s-.04.09.01.09c.3-.02.61-.02.91-.07.31-.05.66-.09.95-.2.17-.07.16-.34-.05-.33-.3.01-.62.12-.91.19-.31.08-.61.22-.91.33Z"/><path class="cls-1" d="m61.88,30.14c-.35.06-.69.21-1.03.31-.35.1-.69.17-1.03.29-.01,0-.02.03,0,.03.37.05.7.02,1.06-.06.36-.07.77-.17,1.08-.39.1-.07.04-.2-.08-.18Z"/><path class="cls-1" d="m65.26,31.04c-.46.01-.92.2-1.35.35-.03,0-.02.05,0,.05.46.03.99,0,1.38-.27.05-.04.04-.13-.03-.13Z"/><path class="cls-1" d="m43.6,33.49c.28-.03.63-.03.88-.18.06-.04.05-.13-.02-.15-.28-.08-.61-.01-.9,0-.32.01-.64.03-.96.03-.64,0-1.28-.06-1.92-.05-.03,0-.03.03,0,.04.6.23,1.28.32,1.92.34.33.01.67.01,1.01-.02Z"/><path class="cls-1" d="m40.75,35.91c.4.07.8.15,1.2.2.43.05.86.07,1.29.09.87.04,1.75.05,2.62.04.86-.01,1.72-.04,2.57-.11.85-.07,1.74-.1,2.55-.37.11-.04.09-.2-.03-.21-.85-.06-1.71.1-2.56.16-.84.06-1.69.12-2.53.14-.84.03-1.69.03-2.53.02-.43,0-.86-.02-1.29-.03-.43,0-.86.03-1.29.03-.02,0-.02.03,0,.03Z"/><path class="cls-1" d="m37.24,37.28c.68.14,1.42.26,2.12.13.08-.02.05-.13-.02-.14-.69-.09-1.4-.03-2.09-.07-.04,0-.05.07-.01.08Z"/><path class="cls-1" d="m31.25,38.32c.32.02.65.04.97.04.17,0,.34,0,.51-.02.15-.01.3-.06.45-.08.1-.01.1-.18,0-.2-.31-.04-.6-.1-.91-.12-.32-.02-.65-.03-.97-.05-.63-.04-1.26-.09-1.89-.17-.64-.07-1.28-.16-1.92-.26-.31-.05-.62-.08-.93-.13-.34-.05-.68-.05-1.01-.13,0,0,0,0,0,0,.33.08.63.24.96.34.3.09.6.17.9.24.64.15,1.28.26,1.92.34.64.09,1.29.15,1.94.19Z"/><path class="cls-1" d="m36.4,38.7c-.4-.04-.79-.08-1.19-.13-.39-.05-.83-.13-1.22-.07-.02,0-.03.03-.01.04.35.18.78.23,1.16.3.38.06.76.11,1.14.16.82.1,1.64.18,2.47.22.82.04,1.65.04,2.48.02.8-.02,1.62-.05,2.41-.24.09-.02.07-.15-.02-.16-.79-.05-1.59.01-2.39.03-.81.02-1.62,0-2.43-.02-.8-.03-1.59-.07-2.38-.15Z"/><path class="cls-1" d="m42.53,40.29c-.83-.13-1.68-.09-2.51-.1-.87-.02-1.75-.02-2.62-.06-1.73-.07-3.46-.2-5.19-.36-.97-.09-1.94-.15-2.9-.28-.05,0-.06.08-.01.09.86.15,1.71.32,2.58.44.85.12,1.71.22,2.56.29,1.73.14,3.46.23,5.2.25.96.01,1.96.04,2.9-.16.06-.01.06-.11,0-.12Z"/><path class="cls-1" d="m44.44,40.42c.52.02,1.1.12,1.61,0,.06-.02.06-.11,0-.13-.51-.13-1.09-.02-1.61,0-.09,0-.09.14,0,.14Z"/><path class="cls-1" d="m35.69,41.76c.52.04,1.08.07,1.58-.08.1-.03.07-.16-.02-.17-.5-.05-1.01,0-1.52-.03-.5-.03-1-.1-1.5-.11-.04,0-.06.06-.02.07.46.2.98.28,1.48.32Z"/><path class="cls-1" d="m83.18,27.39c-.18.18-.37.35-.55.52-.16.14-.43.31-.49.51-.01.04.02.07.05.07.22,0,.48-.23.66-.35.23-.16.44-.34.64-.53.41-.39.75-.84.99-1.35.53-1.15.56-2.49.39-3.72-.01-.08-.13-.08-.13,0,.03,1.18-.1,2.48-.61,3.56-.23.49-.57.91-.95,1.3Z"/><path class="cls-1" d="m83.98,28.37c-.36.43-.75.84-1.17,1.21-.42.37-.86.71-1.32,1.01-.23.15-.47.29-.7.44-.23.14-.52.26-.71.45-.05.05-.01.14.06.14.27,0,.54-.14.78-.25.28-.12.54-.25.8-.41.5-.3.97-.65,1.41-1.03.44-.38.85-.81,1.23-1.26.19-.23.37-.46.54-.71.16-.25.26-.51.36-.79.04-.11-.12-.21-.2-.12-.19.21-.38.41-.55.63-.17.22-.33.45-.51.66Z"/><path class="cls-1" d="m85.54,26.62c.18-.16.31-.3.42-.52.08-.16.21-.42.05-.56-.03-.03-.08-.05-.12-.03-.18.06-.19.27-.24.43-.06.2-.13.42-.22.6-.03.07.05.13.1.08Z"/><path class="cls-1" d="m82.87,25.01c-.03.08.09.12.13.05.13-.2.29-.39.4-.6.09-.17.23-.37.22-.57,0-.07-.08-.13-.15-.09-.18.11-.26.35-.35.54-.1.21-.16.44-.25.66Z"/><path class="cls-1" d="m83.77,23.26c.12-.23.24-.47.31-.71.06-.22.14-.51.01-.71-.07-.11-.21-.1-.28,0-.12.16-.1.43-.13.62-.03.24-.06.48-.14.71-.04.13.16.22.22.09Z"/><path class="cls-1" d="m78.29,26.89c.44-.19.85-.37,1.24-.65.37-.26.71-.56,1.02-.89.31-.33.6-.68.87-1.04.27-.37.53-.76.64-1.22.03-.14-.15-.27-.25-.15-.28.32-.49.68-.74,1.04-.25.37-.53.72-.84,1.05-.29.32-.61.62-.93.91-.34.31-.67.63-1.03.91-.02.02,0,.05.02.04Z"/><path class="cls-1" d="m82.2,22.47c.08-.11.18-.19.26-.3.08-.12.15-.25.21-.37.13-.26.15-.53.26-.79.2-.44.5-.94.43-1.44-.02-.12-.19-.12-.24-.03-.13.21-.16.47-.22.71-.06.25-.08.52-.16.75-.04.12-.12.22-.19.33-.07.11-.12.23-.17.35-.05.11-.1.21-.15.32-.06.14-.08.28-.14.42-.03.07.06.12.1.06Z"/><path class="cls-1" d="m81.91,18.89c-.01.06.08.11.11.05.11-.23.34-.7.07-.89-.05-.03-.11,0-.13.04-.08.11-.03.24-.03.36,0,.15.02.31-.01.45Z"/><path class="cls-1" d="m79.14,21.19c.68-.41,1.13-1.18,1.49-1.86.19-.35.35-.71.49-1.09.13-.37.31-.78.21-1.18-.02-.08-.13-.11-.19-.05-.25.28-.31.65-.44,1-.14.37-.29.73-.47,1.09-.35.69-.86,1.3-1.19,2-.03.06.03.12.09.09Z"/><path class="cls-1" d="m78.31,17.07c.42-.26.66-.73.85-1.18.1-.24.18-.48.23-.72.06-.24.11-.5,0-.73-.04-.08-.16-.09-.22-.03-.14.17-.18.38-.23.6-.05.23-.12.47-.2.69-.15.45-.4.86-.5,1.32,0,.04.03.07.07.05Z"/><path class="cls-1" d="m77.52,15.4c.13-.16.27-.3.37-.48.1-.19.19-.38.26-.58.07-.2.12-.4.16-.61.04-.21.09-.42-.01-.62-.07-.13-.23-.1-.3,0-.12.16-.1.39-.13.57-.03.18-.07.36-.11.54-.04.18-.08.36-.14.53-.06.2-.09.4-.16.59-.01.04.04.07.07.04Z"/><path class="cls-1" d="m76.89,13.18c.12-.22.17-.44.22-.69.04-.22.1-.43,0-.63-.04-.07-.13-.07-.19-.02-.17.16-.18.41-.22.63-.04.24-.05.45-.01.69.02.1.17.11.21.03Z"/><path class="cls-1" d="m76.1,12.04c-.07-.14.06-.33.17-.41.13-.1.05-.29-.11-.26-.18.03-.29.17-.34.34-.05.16,0,.32.09.45.08.12.27.02.2-.11Z"/><path class="cls-1" d="m69.53,20.34c.17-.19.22-.51.26-.75.05-.29.04-.58.06-.86,0-.06-.09-.07-.1-.01-.04.28-.14.54-.21.8-.06.23-.18.52-.15.76,0,.07.09.12.14.06Z"/><path class="cls-1" d="m61.01,12.37c.11.36.21.73.35,1.09.12.32.22.67.45.93.05.06.14.01.14-.06,0-.36-.18-.71-.31-1.04-.13-.34-.31-.67-.46-1-.05-.1-.22-.03-.18.08Z"/><path class="cls-1" d="m62.53,17.03c.06.26.11.54.23.78.02.05.11.03.1-.03-.01-.27-.1-.54-.18-.8-.08-.29-.16-.57-.24-.86-.02-.08-.14-.05-.12.03l.2.87Z"/><path class="cls-1" d="m58.94,11.35c.37.73.72,1.46,1.11,2.18.2.38.4.72.5,1.14.05.21.09.42.14.63.04.18.06.39.21.51.06.05.16.06.2-.03.13-.27-.05-.63-.16-.89-.14-.32-.3-.64-.39-.97-.19-.67-.45-1.3-.76-1.92-.57-1.17-1.14-2.36-1.94-3.4-.21-.28-.44-.54-.69-.78-.11-.11-.23-.22-.36-.3-.11-.07-.22-.17-.35-.12-.01,0-.02.01-.03.03,0,.05,0,.07.05.09,0,0,0,0,.01,0,0,0,0-.01.01-.02,0,0,0,0,0,0,.05.02.3.41.34.46.13.16.26.32.38.48.22.3.42.6.62.91.4.66.76,1.33,1.1,2.02Z"/><path class="cls-1" d="m61.1,16.16c.05.29.08.58.17.86.03.08.17.08.16-.02-.02-.3-.09-.59-.16-.89-.03-.12-.2-.07-.18.05Z"/><path class="cls-1" d="m58.39,12.75c.09.21.16.48.37.61.05.03.14,0,.15-.06.03-.24-.11-.47-.22-.68-.06-.12-.13-.24-.2-.36-.08-.13-.19-.24-.28-.37-.02-.03-.06-.01-.05.02.04.13.05.27.09.4.04.15.1.29.15.43Z"/><path class="cls-1" d="m56.78,12.22c-.06-.09-.23-.04-.19.08.06.19.12.38.21.55.08.16.15.33.31.43.04.02.12,0,.12-.05.02-.17-.05-.31-.12-.47-.09-.19-.21-.36-.33-.54Z"/><path class="cls-1" d="m57.48,14.39c.03.09.05.18.11.26.05.06.14,0,.15-.06,0-.09-.04-.18-.07-.27-.03-.09-.06-.18-.09-.28-.04-.13-.25-.07-.2.06l.1.3Z"/><path class="cls-1" d="m55.53,12.76c.1.22.19.44.29.67.09.2.15.45.34.57.08.05.17,0,.2-.08.07-.21-.06-.46-.14-.66-.09-.23-.2-.45-.3-.68-.22-.45-.47-.88-.8-1.25-.07-.08-.22,0-.18.11.17.45.39.88.6,1.32Z"/><path class="cls-1" d="m55.16,14.29c-.17-.28-.36-.54-.57-.79-.05-.06-.15,0-.13.07.12.3.26.59.42.87.16.28.31.58.56.8.07.06.17,0,.15-.09-.08-.32-.27-.59-.44-.87Z"/><path class="cls-1" d="m56.67,18.82c.08.4.19.8.26,1.2.07.38.08.84.28,1.18.06.1.21.08.24-.03.12-.38-.02-.85-.1-1.23-.09-.43-.2-.85-.37-1.25-.08-.19-.18-.35-.27-.52-.11-.21-.18-.42-.23-.65-.09-.43-.33-.79-.56-1.17-.07-.12-.24-.01-.18.11.19.38.31.79.56,1.14.14.2.23.39.27.63.04.2.06.39.1.59Z"/><path class="cls-1" d="m45.8,15.8c.12.21.21.36.43.45.07.03.13-.04.13-.1.01-.23-.11-.4-.24-.59-.13-.19-.28-.38-.45-.53-.07-.06-.2,0-.17.1.06.23.18.46.3.67Z"/><path class="cls-1" d="m46.95,17.66c.11.25.16.55.39.72.05.04.12,0,.14-.06.08-.27-.1-.58-.22-.82-.15-.29-.33-.57-.52-.84-.1-.14-.34-.01-.24.14.18.27.33.55.46.85Z"/><path class="cls-1" d="m39.82,10.12c.09.1.18.23.32.25.06.01.14-.03.14-.11-.01-.14-.12-.25-.21-.36-.1-.12-.21-.23-.31-.35-.14-.15-.36.07-.23.23.1.11.19.22.29.33Z"/><path class="cls-1" d="m41.5,11.98c.25.24.52.61.86.72.06.02.14-.05.12-.12-.13-.34-.5-.59-.75-.83-.3-.29-.61-.56-.93-.83-.12-.1-.28.06-.17.17.28.3.57.6.87.89Z"/><path class="cls-1" d="m42.91,15.25s.13.03.17,0c.01,0,.02-.02.03-.03.04-.03.06-.11.04-.16-.14-.34-.45-.64-.68-.92-.24-.29-.51-.55-.75-.84-.24-.29-.48-.58-.74-.86-.27-.28-.55-.55-.81-.84-.26-.29-.48-.61-.76-.89-.27-.25-.55-.49-.85-.7-.63-.44-1.24-.92-1.94-1.26-.08-.04-.14.07-.07.12.61.47,1.23.91,1.77,1.45.26.27.53.53.81.78.28.26.6.46.87.73.54.52,1.01,1.13,1.5,1.7.25.29.46.6.7.9.22.27.43.62.72.82Z"/><path class="cls-1" d="m44.02,16.46c.08.07.15.16.25.19.05.02.12-.04.1-.1-.04-.1-.12-.17-.19-.24-.08-.08-.16-.16-.24-.24-.1-.1-.26.06-.16.16.08.08.16.16.25.23Z"/><path class="cls-1" d="m41.18,14.39c-.07-.11-.15-.22-.23-.33-.16-.21-.32-.41-.51-.6-.18-.18-.39-.33-.58-.51-.2-.19-.32-.43-.5-.64-.32-.39-.76-.72-1.17-1.01-.41-.3-.86-.59-1.35-.75-.05-.01-.08.05-.05.08.36.36.77.65,1.16.97.39.32.75.68,1.15.98.2.16.43.27.6.47.18.2.3.45.45.67.15.21.3.41.45.62.07.09.13.19.2.28.09.12.19.16.31.24.08.05.17-.04.15-.12-.03-.13-.03-.23-.1-.35Z"/><path class="cls-1" d="m42.18,15.81c-.14-.17-.31-.31-.46-.47-.05-.06-.15.02-.11.08.11.19.19.39.32.58.11.16.23.31.35.46.23.29.5.72.85.89.08.04.21-.03.17-.13-.13-.35-.48-.65-.72-.94-.13-.16-.26-.32-.39-.48Z"/><path class="cls-1" d="m40.6,15.33c-.28-.35-.58-.68-.88-1-.3-.32-.6-.63-.91-.94-.31-.31-.62-.66-1-.89-.08-.05-.15.04-.12.12.2.38.52.7.8,1.02.28.32.57.63.85.95.28.31.56.63.82.95.14.17.28.35.41.53.12.16.22.33.4.42.1.05.26-.01.25-.14-.04-.38-.39-.73-.62-1.01Z"/><path class="cls-1" d="m39.2,15.28c-.23-.23-.46-.46-.7-.67-.49-.43-1.02-.8-1.59-1.11-.06-.03-.12.04-.07.09.47.44.94.88,1.41,1.32.22.21.45.43.66.66.21.22.42.45.7.57.06.03.12-.05.11-.11-.07-.3-.3-.54-.52-.75Z"/><path class="cls-1" d="m40.54,16.93c-.08-.18-.35-.02-.27.16.11.24.23.46.37.68.11.16.24.38.44.43.04,0,.09-.02.09-.07,0-.2-.18-.38-.28-.55-.13-.21-.25-.42-.35-.65Z"/><path class="cls-1" d="m42.35,19.76c-.05-.46-.45-.87-.78-1.16-.03-.03-.08.01-.05.05.16.18.29.37.41.58.11.19.19.39.32.56.03.03.1.03.1-.03Z"/><path class="cls-1" d="m20.96,14.03c.36.13.67.37,1.01.55.33.17.65.36.98.55.64.37,1.26.78,1.87,1.19.61.41,1.21.82,1.85,1.18.65.36,1.2.9,1.82,1.32.36.24.79.33,1.13.59.32.25.6.53,1.01.65.07.02.13-.08.08-.13-.27-.25-.6-.4-.93-.55-.37-.17-.61-.48-.91-.75-.55-.48-1.24-.81-1.82-1.26-.31-.24-.58-.51-.89-.75-.3-.23-.6-.45-.91-.66-.62-.41-1.25-.79-1.91-1.12-.36-.18-.73-.34-1.1-.48-.41-.16-.84-.21-1.25-.35-.02,0-.02.02,0,.03Z"/><path class="cls-1" d="m31.71,21.16c.22.2.45.38.68.56.42.33.83.72,1.34.91.08.03.17-.08.11-.15-.33-.44-.83-.74-1.26-1.07-.21-.16-.42-.33-.63-.49-.21-.15-.43-.34-.69-.41-.04-.01-.07.03-.06.07.11.23.32.41.5.58Z"/><path class="cls-1" d="m29.96,21.05c-.17-.12-.35-.23-.51-.35-.34-.25-.56-.6-.86-.88-.58-.55-1.3-.99-1.97-1.42-.69-.43-1.39-.85-2.12-1.22-.35-.18-.71-.35-1.07-.51-.37-.16-.74-.33-1.14-.4-.02,0-.04.02-.02.04.3.27.65.45.99.66.34.2.68.4,1.01.61.68.42,1.37.84,2.03,1.29.66.44,1.3.95,1.99,1.35.36.21.75.33,1.07.61.16.14.3.29.45.43.12.12.26.26.43.31.08.02.14-.07.11-.14-.07-.16-.24-.27-.38-.37Z"/><path class="cls-1" d="m31.53,22.22c-.27-.19-.54-.38-.83-.54-.07-.04-.18.05-.12.12.2.27.44.48.71.68.29.21.56.39.91.45.08.01.13-.07.08-.13-.22-.24-.48-.39-.75-.57Z"/><path class="cls-1" d="m25.85,19.73c-.29-.18-.59-.35-.89-.51-.6-.32-1.21-.62-1.85-.84-.06-.02-.09.07-.04.1.56.37,1.14.71,1.7,1.07.28.18.55.35.83.53.26.17.55.42.86.47.12.02.24-.1.17-.22-.17-.28-.51-.44-.78-.6Z"/><path class="cls-1" d="m28.54,21.94c.26.12.48.28.7.47.18.16.37.33.6.4.07.02.1-.06.06-.11-.16-.2-.39-.32-.61-.43-.27-.14-.5-.31-.71-.52-.36-.38-.84-.64-1.27-.94-.16-.11-.31.15-.15.26.45.31.88.64,1.38.87Z"/><path class="cls-1" d="m25.25,21.26c-.09-.07-.17.07-.11.15.23.3.51.54.83.73.29.17.65.39,1,.36.07,0,.12-.09.06-.15-.25-.22-.61-.32-.9-.48-.31-.18-.6-.39-.88-.6Z"/><path class="cls-1" d="m20.91,22.2c-.25-.14-.5-.31-.78-.37-.04,0-.08.03-.05.07.15.24.41.4.64.56.26.17.53.33.8.48.51.28,1.07.63,1.65.69.07,0,.11-.09.06-.13-.44-.37-1.03-.58-1.54-.85-.26-.14-.52-.29-.77-.44Z"/><path class="cls-1" d="m24.63,24.5c.71.35,1.44.7,2.22.88.76.17,1.5.56,2.28.61.06,0,.09-.09.03-.12-.71-.32-1.51-.38-2.22-.73-.7-.35-1.44-.6-2.16-.92-.19-.08-.35.19-.16.28Z"/><path class="cls-1" d="m30.46,27.21c-.6-.27-1.26-.37-1.89-.53-.64-.16-1.28-.35-1.91-.55-1.29-.42-2.54-.93-3.77-1.48-.68-.31-1.33-.71-2.04-.93-.04-.01-.07.04-.04.07.49.43,1.1.72,1.67,1.02.6.31,1.22.59,1.85.85,1.25.52,2.53.96,3.84,1.3.73.19,1.5.44,2.26.4.06,0,.11-.1.04-.13Z"/><path class="cls-1" d="m32.2,27.65c.39.19.9.38,1.34.29.08-.01.08-.14,0-.15-.21-.04-.42-.03-.63-.06-.23-.03-.45-.08-.67-.15-.04-.01-.07.05-.03.07Z"/><path class="cls-1" d="m24.04,26.89c.45.2.94.47,1.44.54.11.02.17-.11.08-.18-.4-.3-.94-.45-1.4-.62-.24-.09-.48-.19-.72-.28-.26-.09-.52-.15-.78-.21-.03,0-.05.03-.02.05.22.13.43.26.67.38.24.12.5.22.74.33Z"/><path class="cls-1" d="m68.06,27.67c.75-.19,1.45-.43,2.13-.81.33-.19.66-.39.97-.6.31-.21.61-.42.81-.73.04-.06-.03-.17-.11-.14-.34.14-.62.36-.92.57-.3.21-.62.41-.94.59-.64.37-1.3.74-1.98,1.05-.04.02-.01.07.03.07Z"/><path class="cls-1" d="m69.65,25.76c.73-.2,1.43-.59,2.03-1.04.3-.22.53-.52.81-.76.25-.22.64-.44.75-.76.01-.03-.03-.08-.06-.06-.3.12-.5.46-.74.67-.29.27-.64.43-.96.66-.61.43-1.25.83-1.85,1.27-.01,0,0,.03.01.02Z"/><path class="cls-1" d="m73.55,22.91c.17-.15.3-.33.44-.51.13-.16.23-.31.28-.51.02-.07-.06-.13-.12-.09-.19.11-.31.25-.45.43-.13.17-.27.34-.37.53-.07.14.1.27.21.16Z"/><path class="cls-1" d="m71.48,22.99c.34-.04.66-.22.92-.43.22-.17.67-.5.63-.82,0-.07-.06-.11-.13-.1-.14.03-.23.14-.33.24-.12.13-.24.26-.37.38-.25.22-.52.42-.75.66-.02.02,0,.06.02.06Z"/><path class="cls-1" d="m71.87,20.52c-.13.12-.23.27-.31.43-.06.13.11.22.19.11.09-.13.2-.24.31-.35.1-.1.27-.16.34-.28.04-.08-.01-.17-.1-.17-.16,0-.32.16-.43.26Z"/><path class="cls-1" d="m58.98,24.45c.21.03.45,0,.66-.05.28-.05.55-.11.81-.19.25-.08.49-.17.73-.27.2-.08.47-.15.54-.38.02-.06-.02-.12-.08-.14-.2-.07-.42.08-.59.16-.24.11-.48.21-.73.3-.22.09-.45.17-.67.25-.22.08-.47.14-.68.26-.01,0-.01.04,0,.04Z"/><path class="cls-1" d="m60.97,24.86c-.62.1-1.22.41-1.79.65-.07.03-.05.15.03.12.6-.18,1.27-.32,1.81-.64.08-.04.02-.15-.06-.13Z"/><path class="cls-1" d="m59.49,26.71c-.06.04-.02.12.05.11.39-.05.86-.19,1.18-.42.05-.04.04-.14-.04-.13-.4.03-.85.23-1.19.44Z"/><path class="cls-1" d="m61.78,18.68c-.05-.26-.11-.55-.25-.77-.03-.04-.1-.04-.11.01-.04.23,0,.49.03.72.04.31.09.61.12.92.03.28.05.56.07.84.02.24,0,.5.16.69.04.05.11.02.14-.02.13-.21.08-.48.06-.72-.02-.28-.06-.56-.1-.84-.04-.28-.08-.55-.13-.83Z"/><path class="cls-1" d="m62.83,19.42c.02.22.06.44.11.65.08.37.16.94.48,1.19.04.03.12.03.13-.03.07-.39-.17-.84-.26-1.21-.06-.21-.1-.43-.15-.64-.03-.11-.06-.21-.09-.32-.02-.08-.1-.19-.11-.27,0-.04-.07-.03-.07,0,0,.08-.04.16-.05.25,0,.12,0,.25.01.37Z"/><path class="cls-1" d="m63.44,22.16c-.07.29-.1.69.11.93.04.04.11,0,.11-.05,0-.13-.03-.25-.04-.38-.02-.15-.02-.3,0-.45.02-.12-.16-.17-.18-.05Z"/><path class="cls-1" d="m63.52,24.19c0,.46-.03.93.05,1.39.01.06.11.06.12,0,.08-.46.05-.93.05-1.39,0-.14-.22-.14-.22,0Z"/><path class="cls-1" d="m44.1,18.9c.03.34.16.67.26.99.1.33.14.69.33.98.04.07.17.07.19-.02.06-.35-.07-.71-.17-1.05-.11-.33-.23-.68-.45-.96-.05-.06-.16-.01-.15.06Z"/><path class="cls-1" d="m43.68,25.56c.19-.11.19-.36.22-.55.03-.26,0-.48-.05-.73-.02-.1-.17-.09-.19,0-.05.23-.1.45-.14.68-.03.18-.11.4,0,.56.04.05.1.08.16.04Z"/><path class="cls-1" d="m43.06,26.48c-.06.15-.11.3-.17.45-.05.14-.12.28-.12.44,0,.1.14.17.21.09.1-.11.15-.27.2-.41.06-.16.12-.32.18-.48.07-.19-.24-.28-.31-.09Z"/><path class="cls-1" d="m36.2,25.14c.27.18.55.35.84.51.24.13.51.3.8.25.06,0,.09-.09.06-.14-.15-.23-.44-.31-.67-.43-.28-.14-.55-.3-.82-.47-.51-.33-.99-.71-1.5-1.05-.04-.02-.09.02-.06.06.35.5.85.92,1.35,1.26Z"/><path class="cls-1" d="m38.44,26.26c.28.07.57.18.86.21.05,0,.07-.07.02-.09-.26-.11-.58-.15-.86-.22-.07-.02-.1.09-.03.1Z"/><path class="cls-1" d="m33.79,24.85c.42.54.92,1,1.5,1.36.28.17.56.32.86.44.28.12.64.3.95.22.07-.02.09-.11.04-.16-.21-.21-.56-.25-.83-.36-.29-.12-.58-.26-.86-.41-.57-.32-1.11-.71-1.58-1.16-.05-.05-.12.02-.08.08Z"/><path class="cls-1" d="m33.27,26.25c.07.03.12-.08.07-.13-.24-.24-.55-.4-.85-.55-.1-.05-.17.08-.09.15.27.21.54.42.87.53Z"/><path class="cls-1" d="m52.84,26.11c.2.05.38.12.59.13.22.02.44,0,.66-.03.37-.06.9-.15,1.16-.46.05-.06.02-.15-.06-.15-.37-.01-.75.19-1.11.26-.2.04-.4.07-.61.1-.2.03-.42.09-.62.1-.03,0-.04.05,0,.05Z"/><path class="cls-1" d="m57.72,26.42c-.4-.05-.84.16-1.22.27-.18.05-.11.34.08.29.38-.11.87-.16,1.17-.42.04-.04.02-.13-.04-.13Z"/><path class="cls-1" d="m72.48,26.8s.02.14.07.09c.24-.19.5-.36.74-.55.24-.19.5-.37.68-.62.05-.08-.05-.15-.12-.12-.26.13-.48.35-.69.55-.23.21-.45.43-.68.65Z"/><path class="cls-1" d="m74.6,25.11s.01.09.05.07c.1-.06.2-.13.29-.2.09-.07.2-.14.26-.23.02-.04-.02-.09-.06-.08-.1.04-.18.12-.26.19-.1.08-.19.17-.28.25Z"/><path class="cls-1" d="m75.83,24.03s.02.09.06.06c.26-.17.48-.37.71-.58.2-.18.49-.39.57-.65.02-.07-.05-.14-.12-.12-.26.08-.47.38-.65.57-.21.23-.41.46-.58.72Z"/><path class="cls-1" d="m75.24,20.41c.19-.1.31-.19.45-.36.13-.16.26-.33.37-.51.1-.16.19-.34.26-.52.08-.21.1-.42.14-.63,0-.06-.07-.1-.1-.04-.17.33-.41.66-.61.97-.11.17-.23.33-.36.48-.13.15-.21.28-.31.45-.06.1.06.21.16.16Z"/><path class="cls-1" d="m74.77,17.29c-.02.07.05.12.11.09.25-.12.39-.38.5-.62.1-.23.19-.47.15-.72,0-.03-.06-.05-.08-.02-.15.19-.23.42-.35.62-.12.21-.27.42-.33.66Z"/><path class="cls-1" d="m67.76,32.2c-.31-.04-.59.02-.89.09-.32.07-.64.15-.96.23-.6.15-1.2.31-1.76.57-.02.01-.01.05.01.05.62-.01,1.24-.14,1.85-.27.31-.07.62-.14.92-.21.31-.07.6-.15.87-.32.06-.04.03-.12-.04-.13Z"/><path class="cls-1" d="m68.84,32.11c.11-.03.23-.06.34-.11.05-.02.1-.04.15-.06.06-.03.09-.06.14-.09.07-.05.03-.15-.06-.13-.06.01-.11.01-.17.04-.05.02-.1.04-.15.06-.11.05-.21.11-.32.16-.07.04-.02.16.06.13Z"/><path class="cls-1" d="m70.62,31.53c.36-.13.72-.24,1.07-.39.33-.14.74-.27,1-.52.05-.05.02-.17-.07-.16-.36.03-.69.24-1.01.38-.36.17-.69.38-1.05.57-.06.03-.02.14.05.12Z"/><path class="cls-1" d="m59.54,32.56c-.27-.05-.56.03-.83.08-.29.06-.57.14-.86.19-.58.11-1.2.16-1.76.35-.08.02-.09.14,0,.16.58.13,1.22.06,1.8-.04.3-.05.61-.1.91-.18.27-.07.59-.16.79-.36.06-.06.04-.18-.05-.2Z"/><path class="cls-1" d="m48.85,30.21c-.39.02-.79.03-1.18.02-.2,0-.39,0-.59,0-.16,0-.34,0-.48.1,0,0,0,0-.01.01-.1-.06-.2-.11-.32-.13-.26-.05-.56.02-.66.29-.02.06.04.13.1.13.22-.01.44-.02.64.1.23.15.34.42.46.65.28.57.61,1.12.92,1.68.04.07.15.02.12-.05-.14-.39-.26-.79-.41-1.18-.13-.35-.24-.72-.43-1.04-.07-.11-.14-.21-.23-.3.25.12.62.12.86.13.41.03.82.03,1.23.01.41-.02.82-.05,1.22-.1.38-.05.8-.11,1.13-.31.06-.04.06-.15-.02-.16-.36-.05-.75.01-1.11.05-.41.04-.81.08-1.22.1Z"/><path class="cls-1" d="m54.24,29.57c-.29-.07-.66.07-.94.15-.34.1-.67.22-1.01.33-.11.03-.06.19.05.17.35-.06.7-.1,1.05-.17.29-.06.67-.1.9-.29.06-.06.03-.17-.05-.19Z"/><path class="cls-1" d="m55.53,29.63c.11-.04.22-.09.33-.13.11-.05.2-.1.3-.17.1-.06.03-.2-.08-.18-.12.02-.21.04-.32.08-.1.04-.21.08-.31.12-.17.07-.1.35.08.28Z"/><path class="cls-1" d="m57.33,28.95c-.11.06-.01.23.1.17.13-.07.27-.14.4-.22.12-.07.26-.12.36-.22.06-.06,0-.16-.08-.14-.13.03-.26.12-.38.18-.13.07-.27.14-.4.22Z"/><path class="cls-1" d="m20.13,15.2c.22.11.41.25.65.35.19.08.39.21.6.21.1,0,.16-.13.09-.21-.15-.15-.38-.19-.58-.26-.24-.09-.48-.12-.72-.19-.05-.02-.09.07-.04.09Z"/><path class="cls-1" d="m16.37,17.27c.3.04.61.11.91.16.26.04.56.16.83.11.08-.02.11-.13.05-.18-.21-.17-.53-.18-.8-.22-.33-.04-.64-.02-.97.02-.06,0-.08.1-.01.11Z"/><path class="cls-1" d="m18.91,17.93c.35.18.76.47,1.17.48.05,0,.07-.06.04-.09-.27-.3-.76-.42-1.13-.56-.1-.04-.17.13-.07.18Z"/><path class="cls-1" d="m23.84,39.34c.06,0,.11-.1.04-.14-.58-.29-1.29-.34-1.93-.44-.65-.1-1.32-.18-1.98-.19-.02,0-.03.03,0,.04.63.22,1.28.37,1.94.49.62.12,1.3.31,1.94.23Z"/><path class="cls-1" d="m26.02,39.64c.23.04.45.11.68.03.04-.02.07-.07.03-.11-.19-.15-.4-.15-.63-.18-.28-.03-.55-.05-.83-.08-.1-.01-.12.16-.02.18.26.05.52.11.78.16Z"/><path class="cls-1" d="m24.56,43.05c.06,0,.07-.08.01-.1-.76-.25-1.52-.44-2.31-.6-.77-.16-1.54-.33-2.3-.52-.76-.19-1.52-.41-2.27-.63-.76-.22-1.53-.5-2.31-.65-.06-.01-.1.07-.04.11.66.41,1.43.68,2.16.94.77.27,1.55.5,2.34.72,1.55.42,3.12.8,4.73.75Z"/><path class="cls-1" d="m23.88,41.68c4.67.91,9.41,1.44,14.18,1.48,1.36.01,2.71-.03,4.06-.18.06,0,.06-.09,0-.1-2.38-.17-4.77-.19-7.16-.3-2.35-.11-4.7-.29-7.05-.51-1.34-.12-2.68-.28-4.02-.45-.03,0-.04.05,0,.06Z"/><path class="cls-1" d="m24.56,40.37s-.03.03-.01.04c.21.13.49.2.72.26.28.08.57.15.86.22.56.13,1.13.23,1.7.32.54.08,1.09.14,1.64.18.29.02.59.04.89.05.27,0,.58.04.83-.03.12-.04.11-.19,0-.23-.24-.08-.54-.06-.79-.08-.28-.02-.56-.03-.84-.05-.56-.04-1.12-.1-1.68-.17-.56-.07-1.12-.16-1.67-.25-.28-.05-.56-.1-.83-.15-.26-.05-.54-.13-.81-.12Z"/><path class="cls-1" d="m40.77,41.77c.4.02.82.09,1.23.06.07,0,.09-.11.02-.13-.38-.13-.81-.14-1.2-.16-.43-.02-.85-.02-1.27,0-.11,0-.12.18,0,.18.41,0,.82.02,1.23.05Z"/><path class="cls-1" d="m44.68,41.18s0,.01,0,.02c.29.11.61.12.91.13.33.02.66.03,1,.04.65.02,1.3,0,1.95-.02.65-.03,1.3-.07,1.94-.13.61-.05,1.27-.08,1.84-.34.04-.02.03-.1-.01-.11-.61-.11-1.26.01-1.86.07-.65.06-1.29.1-1.94.14-.63.03-1.27.06-1.9.08-.32.01-.63.02-.95.03-.31,0-.65,0-.95.09Z"/><path class="cls-1" d="m49.48,40.27c.3,0,.61,0,.91-.02.28-.01.57-.03.83-.17.07-.04.05-.14-.02-.17-.26-.09-.54-.07-.8-.05-.3.02-.61.04-.91.05-.59.02-1.19.04-1.78.09-.07,0-.1.12-.02.13.6.11,1.19.15,1.8.15Z"/><path class="cls-1" d="m47.39,38.71c-.43-.09-.88-.03-1.33-.05-.46-.01-.92-.05-1.38-.04-.09,0-.1.12-.02.14.44.16.89.22,1.36.24.45.02.94.04,1.37-.12.07-.03.1-.15,0-.17Z"/><path class="cls-1" d="m40.39,37.41c.64.14,1.28.19,1.93.2.31,0,.63,0,.95,0,.29-.02.66-.02.93-.16.11-.05.07-.21-.03-.24-.27-.08-.61-.03-.89-.02-.32.01-.63.02-.95.02-.63,0-1.26-.06-1.89-.1-.18-.01-.22.27-.04.31Z"/><path class="cls-1" d="m27.1,10.54c-.17.14-.28.35-.38.54-.09.17-.22.34-.12.52.02.05.08.06.13.05.21-.04.26-.29.33-.46.08-.19.16-.4.16-.6,0-.06-.07-.08-.12-.05Z"/><path class="cls-1" d="m28.38,12.78c.14-.06.15-.23.18-.36.04-.18.06-.36.1-.55.03-.13-.16-.18-.19-.05-.05.18-.12.35-.17.53-.04.13-.11.29-.02.41.03.04.06.05.1.03Z"/><path class="cls-1" d="m30.76,13.24c.3-.25.4-.69.52-1.05.05-.14-.17-.23-.24-.1-.17.34-.41.71-.38,1.1,0,.05.06.08.1.04Z"/><path class="cls-1" d="m31.21,14.55s.06.05.09.02c.28-.27.34-.76.45-1.12.04-.14-.16-.19-.21-.06-.14.35-.38.76-.32,1.15Z"/><path class="cls-1" d="m30.39,15.72c.18.14.38-.12.47-.24.15-.21.28-.44.42-.66.08-.12-.1-.26-.2-.16-.18.19-.38.36-.56.55-.1.11-.31.36-.13.5Z"/><path class="cls-1" d="m32.14,15.63c.12-.11.17-.27.23-.41.07-.17.13-.35.19-.52.02-.06-.07-.1-.11-.05-.17.27-.46.59-.48.91,0,.09.1.12.16.07Z"/><path class="cls-1" d="m31.49,15.95c-.22.27-.53.51-.83.69-.26.15-.67.25-.82.52-.03.04,0,.1.03.12.32.2.79-.07,1.06-.24.36-.23.61-.51.85-.86.12-.18-.16-.39-.3-.23Z"/><path class="cls-1" d="m31.97,16.73s0,0,0,0,0,0,0,0Z"/><path class="cls-1" d="m33.17,17.38s.05.08.09.09c.25.05.43-.25.56-.44.14-.21.31-.49.28-.76,0-.04-.04-.07-.08-.04-.21.13-.35.38-.5.57-.13.16-.39.36-.34.59Z"/><path class="cls-1" d="m33.05,17.67s0-.1-.05-.09c-.32.11-.59.21-.88.39-.22.14-.55.27-.59.56,0,.05.04.1.08.11.27.08.54-.19.75-.33.27-.19.47-.4.69-.64Z"/><path class="cls-1" d="m33.83,18.55c.26-.28.66-.71.63-1.13,0-.06-.07-.11-.13-.07-.17.1-.27.26-.39.41-.13.16-.27.33-.42.48-.14.15-.29.28-.46.41-.14.11-.35.21-.34.42,0,.05.02.1.07.12.19.1.37-.04.52-.16.19-.14.36-.3.52-.47Z"/><path class="cls-1" d="m34.61,18.65c.16.09.29-.14.36-.24.11-.18.19-.35.25-.55.04-.12-.12-.2-.21-.12-.15.15-.26.3-.37.48-.06.1-.2.33-.04.43Z"/><path class="cls-1" d="m34.14,18.83c-.09.15-.2.28-.33.4-.12.11-.27.19-.28.37,0,.03.02.07.05.09.2.09.36-.05.5-.19.15-.14.28-.3.38-.48.13-.21-.2-.41-.33-.2Z"/><path class="cls-1" d="m35.58,18.5c-.24.31-.44.64-.7.93-.12.14-.25.27-.39.39-.13.11-.3.19-.36.37-.03.09.05.17.13.17.18.01.33-.14.46-.26.16-.14.31-.3.44-.46.25-.32.46-.68.52-1.09,0-.07-.06-.1-.11-.04Z"/><path class="cls-1" d="m36.29,19.18c-.12.13-.25.26-.36.4-.1.12-.22.25-.2.42,0,.05.07.07.12.07.15-.03.23-.2.31-.32.1-.15.18-.31.26-.46.04-.08-.06-.17-.13-.1Z"/><path class="cls-1" d="m35.32,20.4c-.09.07-.18.15-.27.22-.04.03-.08.07-.12.11-.04.04-.05.1-.07.15-.03.07.05.13.12.12.05,0,.1-.01.15-.04.05-.03.1-.07.15-.11.09-.07.18-.14.27-.22.07-.06.06-.18,0-.24-.07-.07-.17-.06-.24,0Z"/><path class="cls-1" d="m36.97,20.45c-.18.38-.46.64-.75.94-.06.07,0,.2.1.16.45-.15.74-.58.89-1.01.05-.14-.17-.23-.24-.1Z"/><path class="cls-1" d="m24.78,10.87c.17-.04.23-.2.3-.34.04-.07.08-.15.12-.23.04-.08.04-.14.04-.23,0-.08-.1-.14-.16-.09-.06.04-.11.07-.16.13-.06.08-.1.16-.15.24-.08.14-.18.27-.13.44.02.06.08.09.13.08Z"/><path class="cls-1" d="m22.26,12.17s.03.08.08.1c.21.08.39-.12.53-.26.17-.16.32-.36.45-.56.07-.1.13-.2.2-.29.09-.12.2-.18.32-.28.18-.16.28-.38.3-.61.02-.14-.17-.18-.25-.1-.17.14-.31.34-.37.55-.07.24-.19.39-.38.56-.17.15-.35.29-.53.43-.14.12-.37.25-.35.46Z"/><path class="cls-1" d="m22.63,10.86c.14-.04.23-.2.28-.33.03-.07.07-.14.08-.22,0-.06,0-.13,0-.19,0-.07-.08-.09-.13-.05-.05.04-.11.08-.15.13-.05.05-.09.13-.13.19-.06.11-.13.27-.09.39.02.06.08.1.14.08Z"/><path class="cls-1" d="m20.42,10.75c.15-.05.22-.2.27-.34.07-.17.12-.34.13-.53,0-.1-.14-.17-.21-.09-.11.14-.19.29-.25.46-.05.14-.11.31-.03.45.02.03.05.04.08.03Z"/><path class="cls-1" d="m19.28,10.78c.05,0,.11-.03.14-.08.17-.29.37-.64.38-.98,0-.03-.03-.05-.06-.03-.28.2-.45.55-.59.86-.03.07-.03.13.02.19.03.04.06.04.11.05Z"/><path class="cls-1" d="m39.53,2.18c-.18.19-.33.37-.45.6-.06.12-.23.41-.05.51.18.1.32-.19.39-.31.12-.24.19-.46.24-.72.01-.07-.07-.14-.13-.08Z"/><path class="cls-1" d="m44.51,4.72c-.18.18-.35.35-.51.55-.15.18-.31.34-.34.58-.01.09.06.22.17.17.24-.1.35-.27.51-.47.16-.2.29-.41.43-.63.1-.16-.12-.32-.25-.19Z"/><path class="cls-1" d="m45.35,7.31c.39-.01.63-.47.72-.79.04-.13-.14-.19-.21-.09-.09.13-.2.26-.31.37-.1.1-.24.22-.3.35-.03.07,0,.16.09.16Z"/><path class="cls-1" d="m46.05,8.33c.24-.27.48-.62.55-.98,0-.03-.03-.05-.05-.03-.27.23-.49.52-.75.76-.12.12-.24.23-.37.34-.13.1-.28.19-.32.36-.01.05.01.12.07.13.32.04.67-.36.86-.58Z"/><path class="cls-1" d="m47.04,8.43c-.15.13-.28.28-.42.41-.16.15-.33.28-.52.41-.16.11-.33.21-.5.31-.16.1-.32.17-.41.34-.02.04,0,.11.05.12.4.09.81-.3,1.08-.55.3-.27.63-.64.77-1.02.01-.03-.03-.05-.05-.03Z"/><path class="cls-1" d="m47.49,9.18c-.15.12-.28.23-.41.37-.11.13-.27.23-.28.41,0,.07.06.12.12.12.19.02.34-.17.46-.3.14-.15.21-.31.27-.51.03-.1-.09-.15-.16-.1Z"/><path class="cls-1" d="m48.33,11.01c-.21.13-.39.31-.56.48-.16.16-.35.34-.4.57-.02.08.05.18.14.14.23-.08.37-.28.53-.45.17-.18.33-.37.47-.57.07-.11-.07-.25-.18-.18Z"/><path class="cls-1" d="m48.46,14.01c.2-.07.27-.29.38-.45.13-.19.25-.4.41-.57.04-.05-.01-.11-.06-.08-.23.1-.44.21-.61.41-.13.16-.34.39-.26.61.02.06.08.1.14.08Z"/><path class="cls-1" d="m48.98,15.01c.3-.32.56-.68.73-1.08.04-.11-.12-.17-.18-.08-.21.35-.44.68-.73.97-.3.29-.65.47-.97.72-.11.09-.06.3.1.25.4-.13.77-.48,1.06-.78Z"/><path class="cls-1" d="m51.06,13.92c-.1.07-.2.1-.29.19-.11.1-.2.22-.29.33-.13.15-.33.36-.27.58.01.04.05.06.09.07.22.01.38-.24.49-.4.08-.11.16-.22.23-.33.08-.12.08-.23.13-.36.02-.05-.05-.1-.09-.07Z"/><path class="cls-1" d="m50.09,15.25s0-.1-.06-.07c-.3.17-.63.28-.93.45-.25.14-.65.24-.81.49-.05.07,0,.19.08.21.31.06.67-.2.92-.35.32-.19.54-.45.78-.72Z"/><path class="cls-1" d="m50.9,16.19c.45-.39.8-.84.94-1.42.01-.05-.05-.1-.09-.05-.36.39-.71.81-1.11,1.16-.21.18-.44.33-.68.47-.2.11-.5.2-.62.41-.04.08,0,.16.08.19.24.09.55-.11.76-.22.26-.15.51-.33.73-.52Z"/><path class="cls-1" d="m51.38,16.89c0,.06.05.11.11.11.27,0,.46-.27.62-.45.19-.21.38-.4.48-.66.02-.06-.05-.14-.11-.11-.26.11-.45.3-.65.49-.18.17-.45.36-.45.63Z"/><path class="cls-1" d="m51.04,17.22s0-.06-.03-.06c-.22.07-.45.08-.66.18-.19.09-.4.17-.48.37-.02.06.03.15.09.16.21.04.4-.1.57-.21.19-.12.33-.31.51-.45Z"/><path class="cls-1" d="m51.95,17.56c-.17.12-.36.22-.55.31-.21.1-.45.15-.65.27-.16.09-.1.39.1.37.45-.04.94-.35,1.3-.6.19-.13.37-.27.53-.43.08-.08.16-.18.23-.27.07-.1.07-.19.11-.29.02-.04-.02-.1-.07-.07-.07.05-.16.07-.24.12-.08.06-.15.12-.22.18-.18.15-.35.29-.54.42Z"/><path class="cls-1" d="m52.26,18.61c-.01.08.03.15.11.15.25.01.44-.23.62-.37.21-.17.4-.36.53-.6.03-.05-.02-.12-.08-.1-.25.07-.46.21-.66.37-.18.14-.48.3-.52.55Z"/><path class="cls-1" d="m51.19,19.41c.2-.07.39-.14.59-.21.2-.07.11-.39-.09-.32l-.63.22c-.17.06-.33.11-.43.26-.03.04,0,.1.05.12.18.06.34-.01.51-.07Z"/><path class="cls-1" d="m52.38,19.62c-.24.13-.48.25-.74.34-.2.07-.55.1-.65.31-.02.05-.03.11.02.15.21.17.52.02.74-.06.29-.11.57-.24.83-.4.25-.16.47-.34.68-.55.1-.1.2-.2.28-.31.1-.13.16-.27.25-.41.03-.04-.04-.1-.07-.06-.19.2-.45.38-.67.55-.21.16-.44.3-.67.43Z"/><path class="cls-1" d="m52.18,21.16c.35.06.73-.29.98-.5.32-.26.61-.54.82-.91.03-.05-.03-.11-.08-.08-.34.2-.65.45-.98.68-.17.12-.33.23-.5.34-.14.09-.26.19-.31.35-.02.05.02.11.07.12Z"/><path class="cls-1" d="m53.98,20.84c-.19.1-.35.25-.53.37-.18.12-.37.24-.57.34-.13.07-.94.3-.72.55.21.25.88-.16,1.08-.28.34-.21.72-.5.87-.88.03-.08-.07-.13-.13-.1Z"/><path class="cls-1" d="m53.97,21.71c-.24.12-.48.26-.71.39-.2.11-.49.21-.61.42-.04.07,0,.15.07.17.26.1.58-.1.78-.24.24-.16.44-.38.57-.64.03-.07-.03-.13-.1-.1Z"/><path class="cls-1" d="m61.66,3.27c-.23.14-.42.36-.61.55-.2.19-.44.35-.55.61-.02.04,0,.11.06.1.3-.02.52-.22.72-.43.2-.2.43-.47.48-.75.01-.06-.05-.11-.1-.08Z"/><path class="cls-1" d="m64.14,6.76c-.11.04-.23.01-.34.06-.11.05-.22.13-.31.21-.15.13-.43.38-.36.61.02.05.06.08.11.08.21.02.39-.25.52-.38.08-.08.17-.17.24-.26.06-.08.09-.22.16-.29.01-.01,0-.03-.02-.03Z"/><path class="cls-1" d="m64.73,8.82c-.21.14-.59.33-.54.63,0,.03.03.04.05.05.12.04.24-.02.34-.11.12-.1.22-.21.33-.33.11-.12-.03-.34-.18-.24Z"/><path class="cls-1" d="m65.63,12.01c.08-.06.01-.18-.08-.13-.25.11-.52.19-.77.3-.18.08-.45.2-.49.41-.01.06.02.11.08.13.21.08.45-.1.61-.21.23-.16.43-.34.65-.5Z"/><path class="cls-1" d="m65.72,12.75c-.1.06-.21.09-.31.15-.1.06-.2.12-.3.18-.09.06-.18.11-.27.16-.12.07-.13.12-.21.23-.05.07.02.16.09.16.13,0,.19,0,.31-.06.11-.06.22-.14.32-.21.09-.07.16-.14.24-.22.09-.1.13-.2.21-.3.03-.05-.03-.11-.08-.08Z"/><path class="cls-1" d="m65.81,14.9c.07,0,.15,0,.21-.01.09-.03.17-.11.24-.16.07-.05.14-.1.2-.16.07-.07.12-.16.19-.22.06-.06-.02-.15-.09-.11-.08.04-.18.06-.27.09-.09.04-.17.09-.25.14-.07.04-.15.09-.2.15-.05.06-.07.13-.09.2-.02.04.02.08.06.08Z"/><path class="cls-1" d="m65.46,16.08c.06-.02.08-.06.08-.11.04.04.1.06.16.04.23-.06.45-.18.65-.3.2-.13.31-.27.44-.46.02-.03-.01-.07-.05-.06-.41.12-.8.29-1.18.5-.08.04-.1.12-.08.19-.02-.02-.05-.03-.09-.02-.22.04-.44.01-.66.04-.18.03-.38.05-.47.22-.04.08-.01.16.05.21.15.11.36.04.53-.01.21-.06.4-.18.6-.24Z"/><path class="cls-1" d="m65.28,16.8c-.21.04-.44.03-.61.16-.09.07-.05.23.04.28.2.11.45.04.66-.01.24-.05.47-.13.69-.22.43-.18.81-.42,1.03-.83.02-.03-.01-.08-.05-.06-.4.14-.77.36-1.17.51-.19.07-.39.13-.6.17Z"/><path class="cls-1" d="m66.98,17.11c-.29.11-.55.25-.65.56,0,.03.02.07.05.07.33,0,.54-.22.72-.47.05-.07-.04-.19-.12-.16Z"/><path class="cls-1" d="m66,17.73c-.23.12-.47.15-.71.21-.19.05-.4.05-.53.22-.05.07,0,.15.05.2.17.13.47.02.66-.05.23-.09.44-.25.64-.38.12-.08.02-.26-.11-.19Z"/><path class="cls-1" d="m66.99,18.25c-.3.13-.58.31-.88.43-.17.07-.34.12-.52.18-.13.04-.24.08-.33.19-.03.04,0,.11.04.14.26.16.7-.08.95-.2.31-.15.63-.35.83-.63.04-.05-.02-.13-.08-.11Z"/><path class="cls-1" d="m66.89,19.05c-.2.05-.41.12-.54.29-.11.14-.01.36.18.31.22-.06.37-.23.5-.41.07-.09-.05-.21-.14-.18Z"/><path class="cls-1" d="m65.71,19.68c-.12.05-.24.09-.37.14-.07.03-.11.09-.09.16.02.06.1.12.16.09.12-.05.24-.1.36-.15.06-.03.11-.08.09-.16-.02-.06-.09-.11-.16-.09Z"/><path class="cls-1" d="m66.95,19.79c-.24.11-.48.22-.73.3-.23.07-.45.08-.64.25-.06.05-.04.15.02.19.26.14.52.04.78-.07.27-.11.51-.28.7-.5.08-.1-.02-.22-.13-.17Z"/><path class="cls-1" d="m49.48,9.36c.28.2.52.42.74.68.22.26.41.54.55.84.13.28.2.58.3.86-.17.06-.35.1-.52.16-.14.06-.28.12-.42.19-.25-.22-.45-.48-.67-.72-.05-.05-.15,0-.12.07.14.36.42.64.73.87.03.02.08.02.11,0,.29-.18.69-.41,1.04-.4.07,0,.11-.05.11-.11.05-.45-.14-.92-.33-1.33-.21-.43-.49-.81-.85-1.12-.25-.22-.77-.7-1.12-.48-.18.11-.31.37-.37.57-.07.19-.07.39.07.55.03.03.08,0,.08-.03,0-.24.11-.43.26-.62.15-.2.24-.11.41.01Z"/><path class="cls-1" d="m48.15,8.38s.11.03.14,0c.06-.1.02-.15-.03-.24-.04-.09-.12-.3.02-.36.09-.04.2.16.25.22.09.11.16.23.3.28.07.02.18-.04.17-.13-.02-.13-.09-.21-.17-.31-.08-.1-.16-.21-.26-.29-.16-.13-.37-.12-.52.03-.15.15-.17.37-.09.56.04.08.1.21.19.25Z"/><path class="cls-1" d="m34.53,15.54s.01-.02,0-.02c0,0,0,0-.01,0,.15.03.33-.14.3-.32-.02-.13-.11-.23-.22-.3-.15-.11-.32-.21-.48-.31-.09-.06-.19,0-.22.09-.08.23-.04.48.11.67.11.14.33.27.52.21Zm-.22-.48s.09.06.14.1c.02.02.05.07.06.07-.09-.02-.18.06-.14.15-.06-.06-.11-.12-.15-.2-.04-.07-.06-.15-.06-.23.05.04.1.07.16.11Z"/><path class="cls-1" d="m22.95,8.23c.08-.04.08-.15.03-.21-.17-.21-.57-.55-.86-.41-.06.03-.06.11-.02.15.09.09.23.11.35.16.07.04.14.08.2.14-.23.05-.47,0-.67-.13-.07-.05-.13.05-.09.11.26.33.69.37,1.05.19Z"/><path class="cls-1" d="m36.71,18.67s.06-.07.02-.09c-.31-.2-.58-.45-.75-.78-.08-.16-.15-.33-.17-.51-.02-.15,0-.23.15-.25.1-.01.22,0,.31,0,.2.01.4.06.6.09.23.03.43.09.62.24.32.24.53.62.53,1.02-.16.05-.32.07-.49.06-.18-.01-.33-.1-.51-.11-.06,0-.09.08-.05.12.27.28.85.24,1.18.12.05-.02.08-.05.08-.1.04-.54-.24-1.02-.66-1.34-.23-.17-.5-.36-.78-.43-.27-.07-.58-.1-.86-.08-.66.05-.57.75-.36,1.19.21.44.64.79,1.13.84Z"/><path class="cls-1" d="m46.68,6.41s.11.02.15-.02c.16-.14.22-.35.18-.55-.03-.15-.17-.43-.36-.37-.04.01-.07.06-.06.1.02.11.14.18.17.3.02.09,0,.18-.04.26-.14-.12-.25-.27-.35-.43-.03-.06-.14-.04-.13.04.03.28.21.51.44.66Z"/><path class="cls-1" d="m64.64,5.81c-.05,0-.09.04-.09.09,0,.04,0,.08.02.12-.04-.02-.1-.01-.13.04-.22.33-.02.78.36.88.09.02.17-.03.2-.11.09-.29.08-1-.35-1.02Zm-.02.34s.04.09.06.13c.03.08.04.16.04.24-.09-.1-.12-.25-.1-.38Z"/><path class="cls-1" d="m65.56,9.01c-.1-.03-.19.05-.19.15-.04.54.1,1.08.5,1.46.02.02.07,0,.06-.03-.16-.38-.27-.78-.27-1.19.35.23.55.71.38,1.1-.04.08.08.16.12.07.32-.59.05-1.35-.6-1.56Z"/><path class="cls-1" d="m40.58,30.82c.25.19.69.18.99.14.38-.04.73-.16,1.06-.33.32-.17.6-.4.84-.68.11-.13.22-.27.37-.35.17-.08.36-.08.55-.08.37,0,.74-.01,1.06-.21.29-.18.48-.46.73-.68.31-.28.66-.23,1.05-.29.19-.03.34-.09.5-.19.19-.12.38-.25.61-.28.63-.07,1.69.65,2.14-.1.03-.05-.03-.1-.08-.08-.68.42-1.37-.15-2.08-.08-.38.04-.65.33-1.02.38-.37.04-.74-.03-1.1.09-.31.1-.54.33-.78.53-.11.09-.22.18-.36.24-.17.07-.35.06-.53.06-.35,0-.73,0-1.04.2-.3.19-.48.5-.74.73-.29.26-.62.43-.99.56-.19.07-.39.11-.59.14-.19.03-.4.02-.57.09-.08.03-.09.12-.02.18Z"/><path class="cls-1" d="m65.28,23.23c-.11.02-.08.2.03.19.23,0,.44.1.64.21.21.11.41.23.63.32.43.18.83.3,1.3.33.05,0,.08-.07.04-.1-.18-.16-.36-.32-.56-.44-.23-.14-.49-.23-.74-.33-.43-.18-.88-.26-1.34-.18Z"/><path class="cls-1" d="m71.55,18.05c.42.12.9-.02,1.25-.27.19-.13.35-.29.49-.48.14-.2.23-.44.37-.64.16-.22.41-.29.64-.42.19-.11.32-.28.45-.45.27-.35.45-.72.46-1.17,0-.04-.06-.04-.06,0-.02.45-.22.97-.64,1.17-.4.19-.87.18-1.17.55-.26.32-.36.73-.67,1.02-.32.31-.72.46-1.13.58-.05.02-.05.09,0,.11Z"/><path class="cls-1" d="m61.98,28.15c-.17.09-.34.19-.51.25-.21.07-.38.03-.58-.07-.03-.02-.09.02-.06.06.29.39.91.15,1.26.02.32-.12.62-.15.94,0,.29.14.55.32.84.45.58.26,1.21.44,1.84.49.26.02.62-.06.83.11-.06.02-.12.05-.17.07-.05.02-.03.09.02.08.09-.01.17-.03.26-.05.16.17.3.33.55.37.35.05.74-.07,1.08-.14.4-.08.78-.2,1.18-.27.12-.02.09-.22-.03-.21-.44.04-.89.02-1.34.04-.2,0-.39.03-.59.05-.08,0-.15,0-.2,0,.57-.16,1.12-.36,1.67-.59.4-.16.8-.34,1.19-.53.38-.19.83-.36,1.12-.69.05-.05,0-.13-.07-.12-.4.07-.78.31-1.14.49-.4.19-.81.38-1.22.56-.59.25-1.18.48-1.78.71-.24-.27-.5-.4-.87-.39-.39,0-.77.02-1.16-.04-.39-.06-.77-.17-1.13-.34-.33-.15-.64-.39-.99-.48-.34-.09-.64,0-.95.16Z"/><path class="cls-1" d="m71.51,29.84s-.05.06,0,.07c.32.1.69,0,1.01-.07.38-.09.75-.32,1.16-.28.45.05.89.34,1.26.59.36.25.7.58,1.09.78.02.01.05,0,.05-.04-.07-.24-.22-.46-.4-.65,1.08-.12,2.09-.5,3.05-1.01,1.07-.57,2.07-1.28,2.94-2.13.45-.43,1.08-.97,1.22-1.61.02-.1-.08-.18-.17-.13-.5.26-.85.8-1.24,1.2-.41.41-.84.79-1.3,1.15-.92.72-1.95,1.3-3.02,1.77-.52.23-1.04.45-1.57.67-.11-.11-.24-.22-.36-.31-.37-.29-.8-.58-1.26-.7-.44-.11-.85-.02-1.24.2-.19.1-.36.23-.54.34-.21.13-.42.17-.66.16Z"/><path class="cls-1" d="m77.92,24.84c-.15.21-.24.5-.45.66-.21.15-.54.19-.79.27-.19.06-.36.14-.52.23-.14.02-.27.08-.39.17-.11.08-.22.24-.34.38-.05.04-.09.09-.14.13,0,0,0,0,0,0-.1.08-.2.12-.31.09-.03,0-.05.03-.03.06.16.18.44.14.62.02.13-.09.54-.67.72-.45.05.07.17.07.24.03.27-.16.62-.11.92-.14.33-.04.64-.1.9-.33.27-.25.36-.61.45-.95.04-.17.1-.32.21-.45.09-.1.23-.14.29-.24,0-.02.01-.03.01-.05.13-.07.27-.14.41-.18.35-.11,1-.26,1-.74,0-.05-.07-.08-.1-.04-.09.1-.16.19-.28.25-.11.06-.24.1-.36.14-.24.07-.48.13-.72.21-.53.18-.99.49-1.32.95Z"/><path class="cls-1" d="m50.93,32.32c-.1-.07-.19-.15-.29-.22-.14-.1-.37-.28-.55-.21-.04.02-.08.05-.08.11.01.21.25.32.41.42.1.06.21.11.32.17.11.06.16.05.27.08.09.03.15-.09.09-.15-.07-.07-.08-.13-.17-.19Z"/><path class="cls-1" d="m82.6,37.21c-.33.11-.63.32-.95.46-.33.15-.67.29-1,.43-.68.3-1.34.65-2.02.96-1.34.6-2.72,1.13-4.12,1.58-.39.13-.79.26-1.18.38-.39.12-.79.22-1.15.42-.07.04-.03.14.04.14.36,0,.71-.08,1.05-.17.36-.09.72-.19,1.08-.29.71-.21,1.42-.44,2.12-.7,1.39-.51,2.77-1.09,4.08-1.77.38-.2.74-.42,1.09-.66.33-.23.72-.41,1.01-.67.04-.03,0-.1-.05-.09Z"/><path class="cls-1" d="m83.72,36.34c-.17-.02-.35.13-.49.23-.06.04-.14.09-.19.15-.08.08-.11.19-.2.26-.04.03,0,.07.04.06.11-.05.23-.03.34-.07.09-.03.17-.08.25-.12.15-.09.32-.16.38-.33.03-.1-.05-.17-.14-.18Z"/><path class="cls-1" d="m54.93,43.11c-.29.05-.59.09-.88.12-.58.07-1.16.14-1.74.19-.56.05-1.12.07-1.68.12-.48.04-1.03.09-1.42.4-.03.02,0,.07.03.07.53,0,1.06-.07,1.59-.09.56-.02,1.13-.05,1.69-.1.54-.05,1.08-.12,1.62-.22.28-.05.56-.11.84-.16.24-.05.55-.06.73-.24.05-.05.02-.11-.04-.14-.23-.09-.51.01-.74.05Z"/><path class="cls-1" d="m57.35,42.81c-.37.07-.76.14-1.12.29-.01,0-.02.03,0,.03.36.06.74.03,1.09-.02.33-.04.81-.06,1.09-.27.06-.04.06-.15-.02-.17-.33-.07-.72.08-1.04.14Z"/><path class="cls-1" d="m44.99,44.64c.53-.08,1.1-.13,1.59-.36.12-.05.05-.22-.06-.23-.52-.03-1.07.09-1.59.14-.53.05-1.07.1-1.6.12-1.07.05-2.14,0-3.21.09-.05,0-.07.08-.01.09,1.05.31,2.17.32,3.27.28.54-.02,1.08-.06,1.62-.14Z"/><path class="cls-1" d="m43.27,43.41c-.11,0-.13.17-.03.19.34.06.67.1,1.01.07.3-.02.68-.05.93-.23.07-.05.05-.17-.05-.17-.3-.02-.63.1-.93.12-.31.03-.63.04-.94.02Z"/><path class="cls-1" d="m17.38,42.35c-.34-.25-.8-.34-1.2-.45-.4-.11-.8-.23-1.21-.35-.4-.12-.8-.23-1.2-.36-.43-.13-.86-.21-1.29-.34-.06-.02-.1.08-.04.1.39.18.75.4,1.16.56.42.16.84.32,1.26.46.42.14.85.26,1.28.38.39.11.81.23,1.22.17.09-.01.08-.13.02-.17Z"/><path class="cls-1" d="m27.68,44.9c-.74-.26-1.52-.39-2.29-.54-.79-.15-1.57-.33-2.35-.51-.77-.18-1.53-.36-2.29-.56-.38-.1-.75-.22-1.13-.34-.37-.12-.73-.25-1.12-.26-.07,0-.08.09-.03.12.32.24.69.34,1.07.46.39.13.78.24,1.17.36.75.24,1.5.47,2.26.66.76.2,1.53.36,2.3.52.78.15,1.59.3,2.39.27.12,0,.13-.16.03-.2Z"/><path class="cls-1" d="m8.97,38.89c-.61-.31-1.28-.48-1.89-.79-.3-.15-.58-.32-.87-.47-.26-.14-.56-.38-.85-.42-.04,0-.08.05-.07.09.11.27.43.46.65.64.29.22.62.4.95.57.62.31,1.3.64,2,.7.17.01.23-.24.09-.32Z"/><path class="cls-1" d="m12.37,38.35c.69.28,1.39.54,2.1.79.71.25,1.44.38,2.15.62.71.24,1.4.53,2.13.7.4.09.8.18,1.18.34.37.15.79.31,1.2.34.07,0,.09-.1.04-.13-.3-.16-.65-.24-.98-.32-.38-.09-.76-.18-1.12-.33-.67-.28-1.36-.48-2.06-.69-.36-.11-.74-.22-1.09-.38-.33-.15-.66-.31-1-.45-.68-.28-1.37-.51-2.06-.77-.4-.15-.79-.3-1.19-.43-.36-.11-.77-.3-1.15-.29-.02,0-.03.03-.02.04.22.24.58.37.87.51.33.16.67.3,1.01.44Z"/><path class="cls-1" d="m12.52,36.99c-.23-.1-.46-.2-.69-.31-.21-.09-.42-.23-.65-.26,0,0,0,0,0,0-.08,0-.15.08-.09.16.14.18.37.29.57.4.22.12.45.23.68.33.22.1.45.19.68.27.23.08.49.21.74.18.11-.01.21-.16.1-.24-.18-.14-.41-.19-.62-.26-.24-.08-.48-.17-.71-.27Z"/><path class="cls-1" d="m55.21,24.61c.36.02.72-.07,1.07-.16.34-.08.68-.18,1.02-.29.34-.11.67-.23,1-.36.31-.13.69-.24.93-.49.06-.06.02-.19-.08-.18-.33.02-.64.21-.94.34-.34.14-.68.27-1.03.39-.33.12-.67.22-1.01.32-.33.1-.68.17-.98.33-.06.03-.02.11.03.11Z"/><path class="cls-1" d="m56.54,23.31c.59.11,1.22-.04,1.78-.23.28-.1.55-.21.82-.34.27-.14.55-.27.73-.52.06-.09-.04-.19-.13-.17-.26.06-.49.21-.72.34-.27.14-.55.26-.84.36-.54.19-1.11.29-1.65.49-.03.01-.04.07,0,.08Z"/><path class="cls-1" d="m57.81,21.98c.41.07.93-.11,1.24-.39.09-.08,0-.22-.11-.19-.22.05-.43.16-.64.25-.18.08-.35.15-.5.27-.02.02,0,.06.02.06Z"/><path class="cls-1" d="m59.86,21.29c.12-.09.23-.17.35-.26.1-.07.22-.16.28-.27.03-.07-.02-.13-.09-.12-.12.02-.24.11-.34.18-.11.08-.22.16-.33.24-.13.1,0,.33.13.23Z"/><path class="cls-1" d="m59.78,20.33c.03-.05,0-.13-.07-.13-.28.01-.54.22-.78.35-.14.07-.28.13-.41.2-.06.03-.12.06-.17.11-.04.04-.04.08-.1.11-.03.02,0,.05.02.05.05,0,.12.02.17.02.06,0,.12-.02.18-.04.15-.04.29-.11.43-.17.25-.11.6-.25.73-.51Z"/><path class="cls-1" d="m57.72,20.26c.37-.01.98-.21,1.15-.56.03-.06-.02-.13-.09-.12-.2.04-.36.17-.53.27-.18.11-.38.18-.57.28-.06.03-.03.14.04.14Z"/><path class="cls-1" d="m57.79,19.5c.16-.07.31-.15.46-.24.12-.08.27-.17.34-.31.04-.07-.02-.15-.1-.13-.15.03-.27.15-.39.23-.13.09-.27.19-.4.28-.11.07-.02.22.1.17Z"/><path class="cls-1" d="m57.75,18.68c.23-.07.5-.12.71-.25.05-.03.03-.11-.03-.11-.25,0-.5.11-.73.19-.11.03-.06.21.05.18Z"/><path class="cls-1" d="m73.68,13.18c-.06.12.07.26.19.19.44-.25.73-.73.95-1.17.22-.44.41-.97.37-1.46,0-.08-.13-.13-.17-.05-.2.43-.34.88-.56,1.3-.22.43-.55.77-.78,1.2Z"/><path class="cls-1" d="m73.43,12.11c.33-.17.57-.6.76-.91.17-.28.46-.7.37-1.03-.01-.04-.05-.05-.09-.03-.17.08-.23.22-.32.38-.1.17-.19.33-.29.5-.19.31-.5.61-.61.96-.03.11.09.19.18.14Z"/><path class="cls-1" d="m73.06,10.74c.38-.19.65-.75.74-1.15.03-.13-.13-.19-.21-.09-.13.19-.23.39-.36.58-.11.17-.25.35-.31.55-.02.08.06.13.13.1Z"/><path class="cls-1" d="m72.27,9.47c.09-.07.11-.21.15-.31.05-.11.11-.24.18-.34.04-.05-.01-.16-.08-.11-.12.09-.23.17-.31.3-.07.11-.16.28-.11.41.03.07.11.1.17.04Z"/><path class="cls-1" d="m32.59,36.77c-.54-.24-1.2-.25-1.78-.29-.63-.05-1.25-.11-1.88-.15-.63-.04-1.25-.09-1.88-.13-.32-.02-.64-.04-.96-.05-.2,0-.55-.07-.7.08,0,0,0,0,0,0,.12.17.43.16.62.19.32.04.64.07.96.11.63.07,1.25.13,1.88.19.63.06,1.25.11,1.88.16.59.05,1.27.17,1.85.01.05-.01.07-.1.02-.12Z"/><path class="cls-1" d="m35.09,36.95c.07-.02.05-.12-.02-.13-.22-.02-.44.01-.66.01-.24,0-.48-.03-.72-.06-.08-.01-.12.12-.04.13.44.08,1,.17,1.44.05Z"/><path class="cls-1" d="m28.63,35.3c.61.14,1.2.28,1.83.33.31.02.62.04.93.05.31.01.63.03.92-.08.09-.04.09-.15,0-.19-.28-.11-.58-.1-.87-.11-.31,0-.62-.02-.93-.04-.62-.04-1.24-.03-1.86-.07-.06,0-.07.09-.01.11Z"/><path class="cls-1" d="m30.93,34.67c.14.03.27.05.41.07.25.03.56.11.8,0,.07-.03.05-.12,0-.16-.2-.15-.52-.13-.76-.14-.14,0-.28-.01-.42-.01-.15,0-.31.04-.46.04-.05,0-.06.08-.01.09.15.03.29.09.44.12Z"/><path class="cls-1" d="m35.12,34.78c-.29-.13-.62-.1-.94-.12-.35-.01-.71-.03-1.06-.04-.2,0-.2.3,0,.31.34.02.68.03,1.02.05.32.01.65.07.96-.03.07-.02.1-.13.02-.17Z"/><path class="cls-1" d="m34.17,33.68c.05-.02.03-.1-.01-.11-.35-.11-.74-.07-1.1-.09-.39-.02-.77-.05-1.16-.08-.08,0-.09.11-.02.13.39.13.77.2,1.17.23.37.03.77.06,1.11-.09Z"/><path class="cls-1" d="m33.88,32.36c-.18-.06-.38-.05-.58-.04-.19,0-.39-.01-.58.03-.07.02-.07.13,0,.15.19.05.39.03.58.03.19,0,.39.02.58-.04.06-.02.06-.11,0-.13Z"/><path class="cls-1" d="m38.85,27.75c-.24-.12-.54-.06-.8-.05-.31,0-.61,0-.92-.02-.62-.04-1.25-.09-1.86-.22-.12-.03-.16.15-.05.18.6.16,1.21.32,1.83.37.3.03.61.04.92.04.27,0,.65.04.88-.12.06-.04.08-.14,0-.18Z"/><path class="cls-1" d="m37.12,28.99c.2.02.4.05.6.06.16.01.32.04.46-.05.04-.02.05-.08.01-.11-.24-.2-.7-.16-.99-.18-.2-.02-.4-.02-.6-.03-.2,0-.4.03-.6.03-.03,0-.04.05,0,.06.2.04.38.11.58.14.18.03.36.06.55.08Z"/><path class="cls-1" d="m36.26,29.82c.09.03.15.08.25.1.08.02.16.02.23.03.18,0,.33-.03.49-.07.08-.02.07-.15-.02-.15-.16,0-.32-.01-.47-.02-.15-.01-.32,0-.47-.01-.08,0-.08.1-.02.13Z"/><path class="cls-1" d="m29.14,28.41c.06-.01.08-.11.02-.14-.48-.23-1.08-.25-1.6-.36-.53-.12-1.06-.27-1.61-.34-.03,0-.04.04-.02.06.48.3,1.04.46,1.58.59.51.12,1.11.3,1.63.19Z"/><path class="cls-1" d="m29.96,28.5s-.02.02,0,.02c.15.06.31.12.47.14.13.02.28.05.39-.02.03-.02.02-.06,0-.08-.11-.05-.25,0-.37-.01-.16,0-.31-.02-.47-.05Z"/><path class="cls-1" d="m26.9,28.89c.08-.02.07-.13,0-.16-.2-.08-.42-.1-.64-.13-.24-.03-.49-.08-.73-.14-.45-.11-.9-.25-1.34-.39-.07-.02-.11.08-.05.12.42.26.87.45,1.35.57.43.11.96.25,1.4.13Z"/><path class="cls-1" d="m24.95,29.89c.07-.01.07-.11.02-.14-.21-.13-.51-.12-.76-.16-.26-.04-.52-.07-.78-.06-.06,0-.07.08-.01.1.26.1.54.15.81.19.23.04.49.12.72.07Z"/><path class="cls-1" d="m22.97,30.85c.25.03.5.08.74.07.07,0,.08-.1.02-.12-.24-.08-.51-.09-.76-.12-.11-.01-.11.16,0,.17Z"/><path class="cls-1" d="m75.9,15.6c.18-.04.24-.22.31-.37.08-.17.16-.33.23-.51.15-.36.31-.73.28-1.12,0-.07-.09-.09-.13-.04-.22.31-.32.68-.47,1.02-.08.17-.15.33-.24.49-.08.14-.18.27-.13.43.02.06.08.1.15.08Z"/><path class="cls-1" d="m77.06,15.83s-.05-.07-.08-.03c-.15.15-.26.37-.37.55-.12.21-.25.41-.39.61-.28.39-.63.71-.89,1.11-.05.08.05.15.12.12.46-.2.78-.62,1.06-1.02.25-.35.59-.88.56-1.33Z"/><path class="cls-1" d="m77.05,18.46c0,.11.13.15.2.08.07-.06.11-.1.16-.18.05-.09.1-.17.15-.26.09-.16.17-.34.28-.48.04-.06-.04-.14-.1-.1-.18.13-.33.22-.47.39-.06.07-.11.15-.16.24-.06.11-.06.18-.07.3Z"/><path class="cls-1" d="m77.8,19.62c.17-.32.34-.7.35-1.07,0-.04-.06-.07-.08-.03-.24.26-.41.61-.59.91-.19.31-.39.61-.61.89-.22.29-.46.56-.72.82-.23.24-.58.48-.69.8-.02.06.04.15.11.14.35-.05.64-.37.87-.6.27-.28.52-.58.75-.89.23-.31.43-.63.61-.97Z"/><path class="cls-1" d="m78.49,19.82c-.16.09-.26.27-.36.42-.11.18-.23.35-.34.53-.22.35-.53.67-.7,1.04-.09.19.11.48.33.33.36-.26.61-.67.84-1.05.2-.32.51-.79.45-1.18-.02-.1-.14-.13-.22-.09Z"/><path class="cls-1" d="m78.24,22.2c-.2.27-.51.58-.56.93-.01.11.13.16.21.12.29-.14.49-.55.67-.81.15-.22.47-.55.36-.83,0,0,0-.01-.01-.01-.3-.02-.51.39-.67.6Z"/><path class="cls-1" d="m80.98,20.06c-.17.24-.34.49-.52.74-.18.25-.35.5-.54.75-.16.2-.4.42-.42.68,0,.08.08.13.15.12.26-.07.43-.36.58-.56.19-.25.38-.5.55-.76.17-.26.33-.53.46-.81.06-.13.13-.25.19-.39.06-.13.07-.29.13-.42.03-.06-.05-.11-.08-.05-.06.11-.18.2-.25.31-.09.13-.16.27-.25.39Z"/><path class="cls-1" d="m80.94,21.84c-.1.17-.23.32-.24.53,0,.15.16.21.28.16.18-.09.28-.28.37-.44.11-.18.22-.37.32-.56.18-.35.39-.72.42-1.12,0-.1-.12-.14-.18-.08-.28.28-.46.66-.66,1-.1.17-.2.35-.31.52Z"/><path class="cls-1" d="m51.08,23.91s-.04,0-.02.02c.08.09.17.18.25.27.02.02.05-.01.03-.03-.09-.09-.17-.17-.26-.26Z"/><path class="cls-1" d="m18.07,34.92s-.02.06.02.06c.58.02,1.12.07,1.63.4.23.15.44.31.61.53.18.22.28.49.46.71.18.22.44.36.73.31.24-.04.47-.21.54-.45,0-.02,0-.04.01-.05.38-.24.75-.5,1.08-.8.19-.17.45-.36.71-.49.01,0,.02.02.03.02.23.16.5.13.77.1.26-.04.52-.07.78-.11.18.01.35.01.54,0,.88-.09,1.8-.31,2.63-.62.43-.16.82-.33,1.19-.62.32-.26.74-.71,1.2-.61.26.05.37-.35.11-.4-.86-.16-1.37.73-2.02,1.12-.72.42-1.55.6-2.36.76,0-.05-.04-.09-.09-.1-.3-.05-.6,0-.9.05-.29.04-.58.08-.86.12-.19-.04-.38-.09-.58-.07-.06,0-.12.02-.18.03-.04-.03-.07-.07-.12-.11-.04-.03-.07-.06-.11-.08.08-.04.16-.07.22-.11.25-.12.52-.21.8-.29.29-.08.57-.17.86-.25.3-.08.65-.18.91-.36.05-.04.03-.11-.03-.11-.38-.05-.79.05-1.16.13-.32.06-.63.12-.94.22-.29.09-.58.21-.84.37-.18.11-.41.27-.53.47-.12.09-.22.2-.33.3-.18.15-.39.25-.61.32-.45.13-.94.1-1.35-.12-.16-.09-.32-.01-.38.11-.02-.02-.05-.03-.07-.05-.03-.02-.06-.03-.09-.05-.63-.44-1.56-.65-2.23-.26Zm5.36.17c.06-.07.13-.15.2-.14.01,0,.02,0,.03,0-.08.04-.16.09-.23.14Zm-1.63.82s0,0,0,0c0,0,0,0,0,0,0,0,0,0,0,0Z"/><path class="cls-1" d="m10.35,27.19c.41.35.82.65,1.32.86.5.2,1.05.4,1.59.36.14,0,.15-.18.03-.23-.47-.19-.98-.27-1.46-.45-.49-.18-.99-.36-1.46-.58-.02-.01-.05.02-.03.04Z"/><path class="cls-1" d="m11.31,25.85s.03-.09-.01-.1c-.25-.07-.52-.05-.77-.14-.27-.09-.54-.24-.73-.46-.07-.08-.17.03-.11.11.2.25.44.46.74.57.27.1.61.17.87.03Z"/><path class="cls-1" d="m12.75,33.01c.31.1.63.2.97.17.1,0,.13-.13.05-.18-.26-.19-.56-.28-.86-.38-.32-.1-.63-.2-.94-.31-.62-.22-1.25-.43-1.88-.62-.11-.03-.18.13-.08.19.58.32,1.18.59,1.81.82.31.11.62.22.94.32Z"/><path class="cls-1" d="m15.23,32.39c.24.1.55.26.81.24.07,0,.12-.1.06-.15-.2-.19-.55-.26-.8-.34-.16-.05-.22.19-.07.25Z"/><path class="cls-1" d="m10.13,20.19c.06.03.13.05.2.05.09,0,.13-.02.21-.04.07-.02.08-.14,0-.15-.05,0-.09-.04-.14-.05-.05-.02-.1-.03-.14-.05-.1-.04-.18-.1-.25-.18-.12-.16-.34,0-.22.17.09.11.21.2.34.26Z"/><path class="cls-1" d="m56.32,5.67c.38.42.78.83,1.16,1.25.37.41.73.84,1.12,1.23.19.2.4.38.59.58.19.21.33.49.55.68.08.07.18-.02.14-.11-.12-.26-.35-.47-.51-.71-.15-.23-.28-.47-.44-.7-.31-.46-.7-.89-1.07-1.3-.38-.41-.76-.81-1.18-1.18-.44-.39-.91-.73-1.38-1.09-.07-.05-.16.03-.09.09.39.39.75.83,1.12,1.24Z"/><path class="cls-1" d="m60.19,10.81c.09.18.2.34.32.5.12.16.24.22.4.33.09.06.17-.05.13-.13-.08-.16-.13-.31-.23-.46-.1-.15-.2-.31-.3-.46-.19-.3-.43-.57-.57-.9-.01-.03-.05,0-.04.02.09.38.13.75.31,1.1Z"/><path class="cls-1" d="m54.3,30.62c-.34.08-.66.22-1,.29-.04,0-.02.06.01.05.36-.06.74-.05,1.1-.1.33-.04.66-.09.98-.15.67-.12,1.34-.24,2.01-.38.67-.13,1.33-.27,2-.42.34-.08.68-.14,1.02-.23.27-.07.64-.13.85-.34.04-.04.02-.11-.03-.13-.27-.09-.65.02-.92.07-.34.07-.68.15-1.02.22-.66.15-1.33.29-1.99.44-.66.14-1.33.29-1.99.43-.34.07-.67.15-1.01.24Z"/><path class="cls-1" d="m62.75,29.05c.1-.03.18-.05.25-.14.03-.03,0-.08-.04-.09-.1-.04-.19,0-.29.02-.1.03-.2.06-.3.12-.07.04-.04.16.04.16.12,0,.22-.03.33-.06Z"/><path class="cls-1" d="m59.6,30.81c-.25-.17-.52-.12-.8-.06-.35.08-.69.17-1.03.26-.69.17-1.35.4-2.03.6-.09.03-.05.16.04.14.65-.12,1.31-.22,1.96-.36.31-.07.62-.14.93-.22.3-.07.61-.1.92-.18.09-.02.09-.13.02-.18Z"/><path class="cls-1" d="m60.44,31.6s-.01.02,0,.02.01-.02,0-.02Z"/><path class="cls-1" d="m60.17,32c-.08.03-.04.16.04.16.55-.03,1.08-.17,1.61-.29.27-.06.54-.12.8-.19.24-.06.53-.09.71-.27.06-.07.03-.17-.05-.2-.24-.08-.52.03-.76.09-.27.07-.53.14-.8.21-.52.14-1.06.27-1.55.49Z"/><path class="cls-1" d="m62.3,33.42c.07-.04.03-.13-.04-.14-.28-.04-.6.08-.87.15-.28.07-.57.14-.83.26-.06.03-.03.12.03.12.29-.01.58-.07.87-.13.27-.06.6-.1.84-.25Z"/><path class="cls-1" d="m54.91,34.97c.93.01,1.86-.14,2.76-.32.46-.09.91-.19,1.36-.3.46-.11.9-.22,1.32-.43.13-.06.07-.29-.07-.27-.45.05-.88.17-1.32.29-.45.12-.9.23-1.36.33-.9.2-1.82.35-2.71.6-.06.02-.05.11.02.11Z"/><path class="cls-1" d="m53.27,35.16c-.26.05-.63.06-.83.23-.03.02-.02.07.01.09.24.12.61.05.87.03.24-.01.61,0,.77-.2.03-.04.02-.11-.02-.14-.21-.17-.56-.06-.8-.02Z"/><path class="cls-1" d="m52.17,34.09c.41,0,.82.03,1.23-.02.34-.04.8-.07,1.1-.23.1-.06.05-.21-.06-.22-.18,0-.36.06-.54.09-.18.04-.36.06-.55.1-.4.07-.79.16-1.2.19-.05,0-.06.09,0,.09Z"/><path class="cls-1" d="m53.69,31.93c-.28.04-.63.07-.87.23-.06.04-.05.12.02.14.28.09.62.03.9,0,.24-.03.61-.01.78-.21.04-.05.03-.11-.02-.15-.22-.15-.57-.04-.81,0Z"/><path class="cls-1" d="m66.88,28.15c-.18,0-.32,0-.45.13-.01.01-.01.03,0,.04.13.12.28.12.45.13.15,0,.31,0,.42-.1.03-.03.03-.07,0-.1-.11-.11-.27-.1-.42-.1Z"/><path class="cls-1" d="m66.43,27.2s-.02.09.03.07c.42-.14.82-.32,1.21-.52.2-.1.4-.21.59-.32.18-.1.39-.19.49-.38.05-.09-.01-.21-.12-.21-.2,0-.36.13-.53.23-.19.12-.38.24-.57.36-.38.24-.75.49-1.1.77Z"/><path class="cls-1" d="m68.94,24.96c.22-.02.44-.13.64-.22.21-.1.43-.19.58-.38.04-.06-.01-.15-.08-.14-.22.02-.41.15-.6.26-.2.12-.41.25-.56.43-.02.02,0,.06.02.06Z"/><path class="cls-1" d="m38.65,19.2s.06.01.09.01c0,0,0,.02,0,.03,0,.11.04.23.09.33.1.23.28.4.51.5.05.02.11.02.14-.04.13-.26.07-.56-.11-.78-.11-.14-.32-.29-.52-.3-.01-.01-.03-.01-.04,0-.06,0-.13.02-.18.06-.06.05-.07.16.02.18Zm.51.16c.13.13.21.31.17.49-.16-.09-.28-.22-.36-.39-.03-.07-.06-.15-.07-.22.09.02.18.05.26.13Z"/><path class="cls-1" d="m40.58,21.18c.04-.08.09-.14.17-.18.01,0,0-.03,0-.02-.2.06-.35.18-.4.38-.06.23-.04.47.04.69.12.32.38.65.35,1.01-.03.31-.29.56-.29.88,0,.2.1.42.29.52.01,0,.02.01.03.02.27.11.49-.11.63-.33.16-.26.23-.55.27-.85.03-.26.09-.72-.08-.95-.03-.04-.08-.04-.11,0-.11.17-.07.44-.08.63-.01.25-.04.51-.13.75-.04.12-.19.42-.33.46-.05.02-.11-.01-.15-.1-.11-.22.06-.45.14-.66.19-.45.03-.85-.19-1.26-.07-.14-.14-.28-.18-.43,0,0,.02-.01.02-.02,0-.04.02-.15.04-.19.03-.06.08-.12.13-.17.11-.11.23-.12.38-.14,0,0,.01,0,.02,0,.08-.03.09-.18,0-.22-.03-.01-.05-.02-.08-.02-.18-.04-.37.07-.49.21Z"/><path class="cls-1" d="m28.11,9.27c-.04.06-.02.14.02.19.07.07.14.12.23.15.02.28.32.57.53.72.3.21.65.32,1.01.35.15.01.19-.17.11-.27-.19-.21-.37-.43-.56-.64-.11-.13-.22-.27-.35-.38-.04-.04-.08-.08-.13-.11-.13-.1-.3-.18-.46-.2-.15-.01-.3.03-.41.19Zm.94.54c.14.16.29.32.43.49-.16-.05-.31-.12-.45-.2-.13-.08-.25-.16-.36-.27-.06-.06-.12-.13-.19-.18.05,0,.09,0,.14,0,.09-.01.06-.13,0-.15-.06-.02-.1-.05-.14-.09.21-.02.46.28.57.41Z"/><path class="cls-1" d="m26.32,10.01s.04.01.06.02c.03.01.07.02.1.03.3.08.63.02.83-.25.25-.32.17-.75.08-1.12,0-.01-.02-.01-.02,0,0,.31,0,.71-.19.97-.24.34-.68.21-.96,0-.59-.44-.9-1.19-.96-1.91.13,0,.26,0,.39.01.53.03,1.09.16,1.54.38.01,0,.02,0,0-.02-.32-.2-.61-.39-.98-.5-.36-.11-.73-.15-1.1-.14-.04,0-.08.02-.1.05-.02.02-.03.05-.03.09,0,.9.46,2.03,1.35,2.39Z"/><path class="cls-1" d="m49.48,8.39c.04.31.32.6.61.57.14.07.29.12.44.16.18.05.36.09.55.11.04,0,.09.01.13.02.12.01.24,0,.32-.09.02-.03.02-.05,0-.08-.08-.11-.21-.1-.34-.11-.06,0-.12-.01-.18-.02-.14-.02-.27-.04-.41-.08-.08-.02-.15-.04-.23-.07.02-.07-.05-.15-.13-.13-.23.06-.4-.19-.41-.39-.01-.22.09-.43.16-.64.01-.03.02-.07.03-.1.08-.33.06-.77-.26-.97-.18-.11-.36.14-.22.28.12.13.16.28.15.43-.02.35-.26.75-.21,1.09Z"/><path class="cls-1" d="m52.18,11.42c-.12.3.04.68.11.98.1.42.19.84.29,1.26.04.2.09.41.07.62-.02.22-.13.41-.18.62-.12.58.38,1.2.99,1.12.35-.04.58-.29.66-.59.03-.13.04-.26.02-.39.08,0,.16,0,.23-.04.03-.02.04-.06.01-.09-.1-.1-.24-.1-.37-.12-.06,0-.13.02-.15.07,0,.02,0,.05,0,.07.14.38-.26.84-.65.72-.22-.07-.39-.28-.41-.51-.03-.23.11-.47.14-.7.07-.51-.16-1.07-.28-1.57-.07-.28-.14-.56-.21-.83-.02-.07-.17-.52-.09-.68.02-.04.05-.06.11-.05.03,0,.05-.03.03-.05-.07-.07-.14-.06-.2-.02-.06.04-.1.11-.13.18Z"/><path class="cls-1" d="m54.65,17.43c.08-.06.02-.21-.08-.2-.36.05-.49-.21-.54-.53-.02-.12-.06-.31-.02-.43.03-.09.31-.28.32-.04,0,0,0,0,.01,0,.06-.15-.1-.31-.25-.31-.25,0-.35.29-.35.49,0,.28.04.64.22.87.16.2.46.31.68.14Z"/><path class="cls-1" d="m54.82,19.89c.02.09.12.11.2.08.24-.11.34-.38.3-.63-.03-.19-.16-.45-.37-.45,0,0,0,0,0-.01,0-.06-.09-.08-.11-.01-.02.07-.07.12-.08.19-.02.09-.01.19,0,.28,0,.19.03.37.07.56Zm.24-.51c0,.08,0,.15-.03.21-.02-.1-.03-.19-.03-.29,0-.03,0-.06,0-.08.03.05.06.1.06.16Z"/><path class="cls-1" d="m63.8,3.52c-.02.44-.1.92,0,1.36.07.29.27.58.59.61.24.03.45-.09.54-.32,0-.02-.02-.03-.03-.01-.11.18-.32.15-.49.07-.15-.07-.23-.19-.27-.34-.11-.36-.02-.8,0-1.16,0-.05,0-.09.01-.14.02-.27.05-.56-.04-.81-.07-.21-.25-.39-.49-.34-.07.01-.1.12-.04.16.18.17.23.38.23.6,0,.1,0,.21-.01.32Z"/><path class="cls-1" d="m45.22,51.51c-.26-.22-.66-.29-.99-.36-.37-.08-.74-.17-1.11-.25-.37-.08-.74-.15-1.12-.22-.35-.06-.72-.12-1.08-.1-.06,0-.09.09-.03.12.62.36,1.4.53,2.09.7.37.09.73.18,1.1.27.32.08.73.2,1.06.13.12-.03.18-.21.08-.29Z"/><path class="cls-1" d="m49.8,51.2c-.4-.23-.94-.29-1.39-.4-.49-.12-.97-.24-1.46-.36-.97-.25-1.94-.5-2.91-.74-.14-.03-.19.16-.06.21.95.31,1.91.6,2.88.86.47.12.94.25,1.41.37.25.06.5.13.75.18.23.05.48.12.71.1.11,0,.16-.15.06-.21Z"/><path class="cls-1" d="m51,51.32c-.14-.05-.24.18-.1.24.83.37,1.67.7,2.55.94.43.12.86.23,1.3.32.23.05.45.09.68.12.11.01.22.03.33.04.11,0,.21-.03.32-.04.11-.02.12-.18.03-.23-.38-.2-.8-.28-1.23-.36-.44-.09-.87-.19-1.3-.3-.86-.22-1.72-.45-2.57-.72Z"/><path class="cls-1" d="m54.56,50.74s0,0,0,0,0,0,0,0Z"/><path class="cls-1" d="m59.32,51.55c.35.08.73.16,1.09.13.15-.01.21-.2.08-.29-.29-.2-.67-.31-1.01-.41-.33-.1-.67-.19-1.01-.27-.72-.18-1.44-.35-2.15-.53-.7-.17-1.41-.33-2.12-.49-.71-.16-1.41-.3-2.13-.37-.08,0-.11.12-.04.15,1.32.56,2.75.92,4.13,1.28l2.1.55c.35.09.7.17,1.06.25Z"/><path class="cls-1" d="m62.15,50.29c.13-.02.12-.19.03-.25-.38-.28-.86-.36-1.32-.46-.47-.1-.94-.21-1.41-.31-.93-.2-1.86-.38-2.81-.5-.18-.02-.19.25-.04.3.92.3,1.85.54,2.79.76.45.11.91.21,1.37.32.46.11.93.23,1.4.14Z"/><path class="cls-1" d="m62.71,48.05c-.21.03-.15.36.05.36.61.02,1.23.06,1.84.18.29.05.57.13.85.21.29.08.6.17.89.19.12,0,.19-.16.1-.24-.47-.43-1.18-.57-1.78-.67-.65-.11-1.29-.12-1.94-.02Z"/><path class="cls-1" d="m70.15,48.02c-.23-.08-.47-.15-.7-.22-.11-.03-.22-.07-.33-.09-.15-.03-.29,0-.44-.03-.08-.01-.14.09-.06.14.2.11.34.25.56.33.24.09.49.18.73.27.23.08.46.17.7.22.24.05.5.14.75.1.05,0,.09-.07.05-.11-.15-.16-.37-.24-.56-.33-.23-.11-.45-.19-.69-.27Z"/><path class="cls-1" d="m73.67,47.79c.2.06.39.12.59.18.23.07.42.09.66.11.18.02.24-.26.09-.34-.21-.1-.38-.19-.61-.26-.2-.06-.39-.11-.59-.17-.41-.12-.82-.23-1.22-.34-.81-.21-1.62-.44-2.46-.51-.03,0-.04.04-.01.05.74.4,1.55.64,2.35.89.4.13.81.26,1.21.38Z"/><path class="cls-1" d="m77.47,46.9c.4.09.85.19,1.26.15.1-.01.13-.13.05-.19-.33-.25-.77-.39-1.16-.51-.4-.13-.82-.23-1.22-.34-.41-.11-.82-.21-1.23-.31-.41-.1-.83-.21-1.25-.22-.15,0-.21.21-.08.28.37.21.78.32,1.19.45.4.13.81.25,1.22.36.41.11.82.23,1.23.33Z"/><path class="cls-1" d="m80.81,47.31c-.4-.1-.81-.18-1.22-.26-.07-.01-.1.08-.03.11.39.15.78.29,1.17.42.37.12.76.25,1.15.27.09,0,.12-.13.05-.17-.34-.19-.74-.29-1.12-.38Z"/><path class="cls-1" d="m84.46,46.82c.32.07.72.21,1.04.14.19-.04.18-.28.05-.37-.14-.11-.32-.14-.49-.18-.18-.05-.36-.1-.53-.14-.33-.08-.66-.16-.99-.24-.7-.18-1.4-.36-2.1-.55-1.39-.37-2.76-.78-4.15-1.11-.12-.03-.21.16-.09.21,1.33.59,2.7,1.03,4.1,1.43.7.2,1.4.39,2.1.56.36.09.72.18,1.08.26Z"/><path class="cls-1" d="m85.86,44.6c.12,0,.17-.16.06-.23-.38-.25-.83-.34-1.26-.45-.45-.11-.9-.22-1.35-.34-.45-.11-.9-.22-1.36-.31-.43-.09-.87-.22-1.32-.22-.08,0-.12.12-.04.16.39.21.84.31,1.26.44.44.14.89.26,1.34.38.45.12.9.24,1.35.36.44.11.88.25,1.33.21Z"/><path class="cls-1" d="m86.63,42.73c.16.02.32,0,.48,0,.1,0,.14-.14.05-.19-.13-.06-.25-.15-.38-.21-.13-.06-.27-.09-.4-.14-.29-.09-.58-.17-.87-.26-.57-.18-1.13-.42-1.71-.57-.18-.05-.29.2-.13.3.51.31,1.11.52,1.67.71.29.1.57.19.86.26.14.03.28.08.42.09Z"/><path class="cls-1" d="m88.08,40.97c.18.03.38.09.55.02.08-.03.12-.13.05-.2-.12-.13-.29-.15-.46-.19-.21-.05-.42-.1-.64-.14-.41-.08-.83-.15-1.25-.22-.2-.03-.29.26-.09.31.41.11.81.21,1.22.3.2.04.4.08.6.12Z"/><path class="cls-1" d="m89.48,39.11c.13-.02.15-.22.04-.28-.21-.11-.48-.13-.71-.17-.26-.04-.52-.08-.78-.11-.25-.04-.36.34-.11.38.27.04.54.09.8.12.24.03.52.1.76.05Z"/><path class="cls-1" d="m90.49,37.16c.09,0,.12-.12.05-.17-.24-.17-.56-.24-.84-.3-.2-.04-.28.24-.08.31.27.09.59.19.88.16Z"/></g></svg>