<svg xmlns="http://www.w3.org/2000/svg" xmlns:xlink="http://www.w3.org/1999/xlink" width="278.589" height="29.378" viewBox="0 0 278.589 29.378">
  <defs>
    <clipPath id="clip-path">
      <rect id="Rechteck_222" data-name="Rechteck 222" width="278.589" height="29.378" fill="#dbd4ba"/>
    </clipPath>
  </defs>
  <g id="Gruppe_99" data-name="Gruppe 99" transform="translate(0 0)">
    <g id="Gruppe_82" data-name="Gruppe 82" transform="translate(0 0)" clip-path="url(#clip-path)">
      <path id="Pfad_305" data-name="Pfad 305" d="M255.023,8.716c-5.714,0-8.32,3.573-9.135,6.075H198.357C188.854,7.827,178.1,0,166.816,0,156.08,0,150.3,6.606,150.3,14.529c0,.113.336.079-2.95.079a8.127,8.127,0,0,0-16.112,0c-3.28,0-2.95.033-2.95-.079,0-7.94-5.8-14.529-16.515-14.529C100.49,0,89.735,7.827,80.232,14.791H32.7c-.814-2.5-3.42-6.075-9.135-6.075C16.9,8.716,5.824,13.3,0,15.9c5.824,2.6,16.9,7.187,23.567,7.187,5.714,0,8.32-3.573,9.135-6.074H54.32C51.09,20.8,53.325,27.7,60.137,27.7c6.138,0,12.953-4.92,20.818-10.683H102.22c-.579,6.534,4.042,12.363,11.84,12.363,8.258,0,13.116-6.11,14.056-12.546h3.122a8.127,8.127,0,0,0,16.112,0h3.122c.941,6.436,5.8,12.546,14.056,12.546,7.683,0,12.429-5.717,11.84-12.363h21.265C205.5,22.779,212.314,27.7,218.452,27.7c6.762,0,9.054-6.848,5.831-10.683h21.6c.814,2.5,3.42,6.074,9.135,6.074,6.669,0,17.743-4.586,23.567-7.187-5.824-2.6-16.9-7.188-23.567-7.188M60.137,25.474c-6.536,0-6.772-8.458-.528-8.458a4,4,0,0,1,3.88,3.911,1.109,1.109,0,1,0,2.217,0,6.265,6.265,0,0,0-1.457-3.911H77.183c-6.329,4.58-12.245,8.458-17.046,8.458M84,14.791c8.6-6.244,18.138-12.566,27.772-12.566,9.45,0,14.319,5.546,14.3,12.383h-5.607a8.065,8.065,0,0,0-8.167-6.943,9.647,9.647,0,0,0-9.643,7.126ZM114.06,27.153c-12.614,0-12.575-17.264-1.766-17.264,6.935,0,8.625,10.121,1.264,10.121a1.113,1.113,0,0,0,0,2.225c4.284,0,6.466-2.567,6.907-5.4h5.409c-.914,5.343-4.989,10.321-11.814,10.321m50.469,0c-6.825,0-10.9-4.978-11.814-10.321h5.409c.44,2.836,2.621,5.4,6.907,5.4a1.113,1.113,0,0,0,0-2.225c-7.358,0-5.679-10.121,1.264-10.121,10.79,0,10.866,17.264-1.766,17.264m-6.4-12.546c-6.2,0-5.61.033-5.61-.079,0-6.738,4.835-12.3,14.3-12.3,9.635,0,19.168,6.322,27.773,12.566H175.937c-2.871-9.685-16.469-9.263-17.809-.183m60.323,10.867c-4.8,0-10.716-3.878-17.046-8.458H214.34a6.264,6.264,0,0,0-1.457,3.911,1.109,1.109,0,1,0,2.217,0,4,4,0,0,1,3.88-3.911c6.266,0,5.982,8.458-.528,8.458" transform="translate(0 0)" fill="#dbd4ba"/>
    </g>
  </g>
</svg>
