<svg xmlns="http://www.w3.org/2000/svg" width="15.964" height="18.437" viewBox="0 0 15.964 18.437">
  <path id="Pfad_1" data-name="Pfad 1" d="M6.7,18.227H0V.29H6.7c6.016,0,8.763,4.665,8.763,8.99S12.725,18.227,6.7,18.227Zm-6.4-.3H6.7c5.819,0,8.464-4.482,8.464-8.643S12.52.585,6.7.585H.3V17.923Zm6.4-3.8H4.219V4.373H6.7c3,0,4.57,2.467,4.57,4.916A4.541,4.541,0,0,1,6.7,14.127Zm-2.182-.3H6.7a4.276,4.276,0,0,0,4.27-4.534A4.341,4.341,0,0,0,6.7,4.668H4.518v9.147Z" transform="translate(0.25 -0.04)" fill="#a59351" stroke="#aea46b" stroke-width="0.5"/>
</svg>
