<svg xmlns="http://www.w3.org/2000/svg" width="193.239" height="65.244" viewBox="0 0 193.239 65.244">
  <g id="Logo_Light" data-name="Logo Light" transform="translate(0.25 0.25)">
    <path id="Pfad_1" data-name="Pfad 1" d="M15.216,41.022H0V.29H15.216c13.662,0,19.9,10.592,19.9,20.416S28.9,41.022,15.216,41.022ZM.68,40.332H15.216c13.215,0,19.219-10.178,19.219-19.627S28.431.961,15.216.961H.68V40.332Zm14.536-8.64H9.581V9.561h5.636c6.8,0,10.377,5.6,10.377,11.164S22.037,31.712,15.216,31.712ZM10.261,31h4.955c6.374,0,9.7-5.188,9.7-10.3s-3.323-10.474-9.7-10.474H10.261V31Z" transform="translate(0 0.302)" fill="#a59351" stroke="#aea46b" stroke-width="0.5"/>
    <path id="Pfad_2" data-name="Pfad 2" d="M46.2,41.022H19.48V.29H46.142V10.409H29.857v5.148H45.812V25.735H29.857v5.148H46.2V41.022Zm-26.041-.69H45.54V31.574H29.2V25.065H45.151V16.248H29.2V9.738H45.482V.961H20.16V40.332Z" transform="translate(18.376 0.302)" fill="#a59351" stroke="#aea46b" stroke-width="0.5"/>
    <path id="Pfad_3" data-name="Pfad 3" d="M66.548,41.022H58.483l-.1-.138L45.521,22.264V41.042H35.26V.29h7.948l.1.138,13.02,19.133V.29h10.2V41.022Zm-7.715-.69h7.035V.961H57.006v20.79L42.878.961H35.94V40.332h8.92V20.094L58.852,40.332Z" transform="translate(33.262 0.302)" fill="#a59351" stroke="#aea46b" stroke-width="0.5"/>
    <path id="Pfad_4" data-name="Pfad 4" d="M76.748,41.022H53.35V31.594h6.53V9.9H53.35V.29h23.4V9.9H70.2v21.7h6.549Zm-22.717-.69H76.067V32.265H69.519V9.206h6.549V.961H54.03V9.206h6.53V32.265H54.03Z" transform="translate(50.326 0.302)" fill="#a59351" stroke="#aea46b" stroke-width="0.5"/>
    <path id="Pfad_5" data-name="Pfad 5" d="M82.778,41.827c-6.238,0-15.508-3.866-15.508-14.537v-.335H77.686v.335c0,3.787,3.206,4.359,5.13,4.359,1.613,0,5.364-.276,5.364-2.86,0-2.268-3.479-2.6-5.15-2.762a3.873,3.873,0,0,1-.525-.059c-7.326-.73-14.225-2.623-14.944-11.539h0a12.834,12.834,0,0,1,3.381-9.7A16.32,16.32,0,0,1,82.953-.01c7.21,0,14.983,4.241,14.983,13.551v.335H87.578v-.335c0-2.367-1.788-3.787-4.8-3.787S78.036,11,78.036,12.91c0,2.406,3.692,2.663,5.266,2.781l.389.039c4.139.552,12.729,1.7,14.614,9.7a15.909,15.909,0,0,1,.292,2.88c0,8.442-8.045,13.492-15.838,13.492ZM67.95,27.645c.194,9.9,8.939,13.512,14.828,13.512,7.462,0,15.158-4.793,15.158-12.821a15.965,15.965,0,0,0-.272-2.742c-1.555-6.608-7.657-8.3-14.031-9.172h-.369c-1.768-.158-5.908-.434-5.908-3.491,0-2.328,2.118-3.827,5.4-3.827s5.286,1.558,5.461,4.123h9.036C97.081,4.566,89.968.7,82.933.7A15.637,15.637,0,0,0,71.409,5.217a12.147,12.147,0,0,0-3.187,9.133h0c.7,8.876,7.773,10.316,14.361,10.967.155,0,.311.039.505.059,1.866.178,5.772.533,5.772,3.432,0,2.249-2.2,3.551-6.024,3.551-1.71,0-5.6-.473-5.791-4.695H67.97Z" transform="translate(63.458 0.01)" fill="#a59351" stroke="#aea46b" stroke-width="0.5"/>
    <path id="Pfad_6" data-name="Pfad 6" d="M112.151,41.022H85.43V.29h26.662V10.409H95.807v5.148h15.955V25.735H95.807v5.148h16.343V41.022Zm-26.041-.69h25.38V31.574H95.147V25.065H111.1V16.248H95.147V9.738h16.285V.961H86.11V40.332Z" transform="translate(80.588 0.302)" fill="#a59351" stroke="#aea46b" stroke-width="0.5"/>
    <g id="Gruppe_1" data-name="Gruppe 1" transform="translate(56.123 50.062)">
      <path id="Pfad_7" data-name="Pfad 7" d="M29.735,38.969c.68-.059.933-.217.933-.355V26.68c0-.178-.136-.237-1.069-.316l-.641-.059L28.9,25.99h5.228c3.867,0,5.014,1.44,5.014,2.9s-1.2,2.762-3.887,3.176v.059c3.051.178,4.567,1.795,4.567,3.61,0,2.209-1.963,3.669-5.675,3.669H28.88l.058-.316.8-.079Zm7.151-9.784c0-1.795-.991-2.781-3.284-2.781h-.933v5.543h1.069c2.138-.059,3.129-1.282,3.129-2.742Zm-2.623,9.784h.155a3.1,3.1,0,0,0,3.187-3.117,3.447,3.447,0,0,0-3.712-3.491,7.336,7.336,0,0,0-1.2.059v6.194l1.3.395a1.1,1.1,0,0,0,.272-.02Z" transform="translate(-28.88 -24.767)" fill="#fff"/>
      <path id="Pfad_8" data-name="Pfad 8" d="M40.92,38.139h-.039A3.827,3.827,0,0,1,38.219,39.7a2.249,2.249,0,0,1-2.293-2.189c0-1.5,1.166-2.525,5.072-3.452v-.533c.078-2.189-.8-2.939-2.06-2.939-.738,0-1.594.414-1.594.592s.525.552.525,1.164a1.047,1.047,0,0,1-2.079.039c0-1.124,2.507-2.466,4.217-2.466,2.118,0,2.973.789,2.818,3.689l-.194,3.965c-.039.71.175,1.045.661,1.045a1.578,1.578,0,0,0,.933-.533l.194.2c-.466.572-1.166,1.44-2.021,1.44s-1.38-.533-1.457-1.578ZM36.392,27.133a1.223,1.223,0,0,1,1.166-1.243A1.206,1.206,0,0,1,38.7,27.133a1.156,1.156,0,0,1-1.147,1.184A1.174,1.174,0,0,1,36.392,27.133Zm4.489,10.632.136-3.353c-2.721.651-3.3,1.539-3.3,2.545a1.469,1.469,0,0,0,1.419,1.6,2.342,2.342,0,0,0,1.749-.809Zm-.544-10.632A1.223,1.223,0,0,1,41.5,25.89a1.206,1.206,0,0,1,1.147,1.243A1.144,1.144,0,0,1,41.5,28.316,1.161,1.161,0,0,1,40.337,27.133Z" transform="translate(-22.362 -24.864)" fill="#fff"/>
      <path id="Pfad_9" data-name="Pfad 9" d="M41.07,33.108a4.9,4.9,0,0,1,4.819-5.168c1.749,0,3.109.809,3.109,1.992a1.071,1.071,0,0,1-1.069,1.124,1.154,1.154,0,0,1-1.108-1.3c0-.493.292-.69.292-.828-.078-.256-.7-.572-1.283-.572-1.613,0-2.876,1.6-2.876,4s1.419,4.1,3.284,4.1a2.815,2.815,0,0,0,2.682-1.519l.253.118C48.241,36.8,47.017,37.8,45.306,37.8a4.366,4.366,0,0,1-4.236-4.675Z" transform="translate(-17.381 -22.871)" fill="#fff"/>
      <path id="Pfad_10" data-name="Pfad 10" d="M46.652,39.631c.583-.059.816-.1.816-.375V27.52c0-.493-.136-.671-.661-.809l-.758-.256v-.237l3.187-.848v10.2L51.1,33.714c.913-.828,1.594-1.637,1.594-2.051,0-.316-.35-.513-1.049-.572h-.272l-.039-.335h4.217l-.058.316-.408.039c-.913.059-1.438.69-3.109,2.347l-.622.572,2.662,4.221c.661,1.006.855,1.282,1.594,1.361l.369.039.058.316H52.852l-.428-.75-2.332-3.925-.816.789V39.3c0,.2.117.237.991.316h.369l.058.335H46.186l.058-.316h.408Z" transform="translate(-12.683 -25.37)" fill="#fff"/>
    </g>
    <g id="Gruppe_2" data-name="Gruppe 2" transform="translate(100.781 50.871)">
      <path id="Pfad_11" data-name="Pfad 11" d="M51.86,33.108c0-2.919,1.963-5.168,4.7-5.168,2.118,0,3.381,1.223,3.381,3.038a3.154,3.154,0,0,1-.058.552l-6.063-.039a4.545,4.545,0,0,0-.058.888c0,2.466,1.419,4.083,3.284,4.083a3.017,3.017,0,0,0,2.8-1.519l.233.118C59.128,36.8,57.865,37.8,56.155,37.8A4.369,4.369,0,0,1,51.9,33.128Zm4.081-1.992H58.02c0-1.479-.505-2.781-1.71-2.781s-2.177,1.262-2.449,2.8h2.1Z" transform="translate(-51.86 -23.679)" fill="#fff"/>
      <path id="Pfad_12" data-name="Pfad 12" d="M57.7,37.122c.622-.059.855-.1.855-.375v-5.9c0-1.341-.136-1.539-.894-1.716l-.486-.1V28.8l3.148-.828-.039,3.2h.058c.738-2.091,1.574-3.215,2.837-3.215a1.266,1.266,0,0,1,1.36,1.184,1.131,1.131,0,0,1-1.147,1.2,1.241,1.241,0,0,1-1.224-1.164c-.7.237-1.341,1.184-1.866,2.88v4.773c0,.2.155.256.991.316h.719l.058.335H57.2l.058-.316H57.7Z" transform="translate(-46.842 -23.67)" fill="#fff"/>
      <path id="Pfad_13" data-name="Pfad 13" d="M62.385,39.233c.622-.059.855-.1.855-.375V32.94c0-1.3-.136-1.519-.894-1.7l-.486-.1v-.237l3.129-.828v8.837c0,.2.136.256.991.316h.389l.058.335H61.879l.058-.316h.447Zm.33-12.21a1.186,1.186,0,1,1,1.185,1.2A1.18,1.18,0,0,1,62.715,27.023Z" transform="translate(-42.427 -25.78)" fill="#fff"/>
      <path id="Pfad_14" data-name="Pfad 14" d="M65.695,37.122c.622-.059.855-.1.855-.375v-5.9c0-1.341-.136-1.539-.894-1.716l-.486-.1V28.8l3.148-.828-.039,1.716h.058a5.89,5.89,0,0,1,3.517-1.736,2.239,2.239,0,0,1,1.671.631,3.068,3.068,0,0,1,.7,2.229v6c0,.178.039.237,1.011.335h.369l.058.335H71.155l.058-.316h.428c.7-.079.8-.2.8-.395v-5.4c0-1.539-.622-2.111-1.885-2.111a3.4,3.4,0,0,0-2.254.888v6.667c0,.2.136.256.972.316h.447l.039.335H65.189l.058-.316h.447Z" transform="translate(-39.304 -23.67)" fill="#fff"/>
    </g>
  </g>
</svg>
