<svg xmlns="http://www.w3.org/2000/svg" width="138.5" height="46.094" viewBox="0 0 138.5 46.094">
  <g id="Logo_Light" data-name="Logo Light" transform="translate(0.25 0.25)">
    <path id="Pfad_1" data-name="Pfad 1" d="M10.895,29.021H0V.29H10.895c9.782,0,14.248,7.471,14.248,14.4S20.69,29.021,10.895,29.021ZM.487,28.534H10.895c9.462,0,13.761-7.179,13.761-13.844S20.356.763,10.895.763H.487V28.534ZM10.895,22.44H6.86V6.829h4.035c4.87,0,7.43,3.951,7.43,7.875s-2.546,7.75-7.43,7.75Zm-3.548-.487h3.548c4.564,0,6.943-3.659,6.943-7.263S15.459,7.3,10.895,7.3H7.347V21.953Z" transform="translate(0 0.127)" fill="#a59351" stroke="#aea46b" stroke-width="0.5"/>
    <path id="Pfad_2" data-name="Pfad 2" d="M38.612,29.021H19.48V.29H38.57V7.427H26.91v3.631H38.334v7.179H26.91v3.631h11.7v7.151Zm-18.645-.487H38.139V22.356h-11.7V17.765H37.861V11.546H26.437V6.954H38.1V.763H19.967V28.534Z" transform="translate(7.625 0.127)" fill="#a59351" stroke="#aea46b" stroke-width="0.5"/>
    <path id="Pfad_3" data-name="Pfad 3" d="M57.662,29.021H51.887l-.07-.1L42.607,15.789V29.035H35.26V.29h5.691l.07.1,9.322,13.5V.29h7.3V29.021Zm-5.524-.487h5.037V.763H50.83V15.428L40.714.763H35.747V28.534h6.387V14.259L52.152,28.534Z" transform="translate(13.801 0.127)" fill="#a59351" stroke="#aea46b" stroke-width="0.5"/>
    <path id="Pfad_4" data-name="Pfad 4" d="M70.1,29.021H53.35V22.37h4.675V7.066H53.35V.29H70.1V7.066H65.414v15.3H70.1Zm-16.266-.487H69.616v-5.69H64.927V6.579h4.689V.763H53.837V6.579h4.675V22.843H53.837Z" transform="translate(20.882 0.127)" fill="#a59351" stroke="#aea46b" stroke-width="0.5"/>
    <path id="Pfad_5" data-name="Pfad 5" d="M78.373,29.5c-4.466,0-11.1-2.727-11.1-10.254v-.237h7.458v.237c0,2.671,2.3,3.075,3.673,3.075,1.155,0,3.84-.195,3.84-2.017,0-1.6-2.491-1.837-3.687-1.948a2.814,2.814,0,0,1-.376-.042c-5.246-.515-10.185-1.85-10.7-8.139h0A8.972,8.972,0,0,1,69.9,3.329,11.779,11.779,0,0,1,78.5-.01c5.162,0,10.728,2.991,10.728,9.558v.237H81.81V9.548c0-1.67-1.28-2.671-3.437-2.671s-3.4.877-3.4,2.226c0,1.7,2.644,1.878,3.771,1.962l.278.028c2.964.39,9.114,1.2,10.463,6.845a11.061,11.061,0,0,1,.209,2.031c0,5.955-5.76,9.517-11.34,9.517Zm-10.616-10c.139,6.984,6.4,9.531,10.616,9.531,5.343,0,10.853-3.381,10.853-9.044a11.1,11.1,0,0,0-.195-1.934c-1.113-4.661-5.482-5.857-10.046-6.47h-.264c-1.266-.111-4.23-.306-4.23-2.463,0-1.642,1.517-2.7,3.868-2.7s3.785,1.1,3.91,2.908h6.47C88.614,3.218,83.522.491,78.485.491a11.286,11.286,0,0,0-8.251,3.186,8.491,8.491,0,0,0-2.282,6.442h0c.5,6.261,5.566,7.277,10.283,7.736.111,0,.223.028.362.042,1.336.125,4.132.376,4.132,2.421,0,1.586-1.572,2.5-4.313,2.5-1.224,0-4.007-.334-4.146-3.311h-6.5Z" transform="translate(26.33 0.01)" fill="#a59351" stroke="#aea46b" stroke-width="0.5"/>
    <path id="Pfad_6" data-name="Pfad 6" d="M104.562,29.021H85.43V.29h19.09V7.427H92.86v3.631h11.423v7.179H92.86v3.631h11.7v7.151Zm-18.645-.487h18.172V22.356h-11.7V17.765H103.81V11.546H92.387V6.954h11.66V.763H85.917Z" transform="translate(33.438 0.127)" fill="#a59351" stroke="#aea46b" stroke-width="0.5"/>
    <g id="Gruppe_1" data-name="Gruppe 1" transform="translate(40.184 35.312)">
      <path id="Pfad_7" data-name="Pfad 7" d="M29.492,35.145c.487-.042.668-.153.668-.25V26.477c0-.125-.1-.167-.765-.223l-.459-.042-.042-.223h3.743c2.769,0,3.59,1.016,3.59,2.045s-.863,1.948-2.783,2.24v.042c2.185.125,3.27,1.266,3.27,2.546,0,1.558-1.405,2.588-4.063,2.588H28.88l.042-.223.57-.056Zm5.12-6.9c0-1.266-.71-1.962-2.351-1.962h-.668v3.91h.765c1.531-.042,2.24-.9,2.24-1.934Zm-1.878,6.9h.111a2.2,2.2,0,0,0,2.282-2.2,2.452,2.452,0,0,0-2.658-2.463,5.331,5.331,0,0,0-.863.042v4.369l.932.278a.8.8,0,0,0,.195-.014Z" transform="translate(-28.88 -25.127)" fill="#4c4d4f"/>
      <path id="Pfad_8" data-name="Pfad 8" d="M39.463,34.53h-.028a2.749,2.749,0,0,1-1.906,1.1,1.6,1.6,0,0,1-1.642-1.544c0-1.057.835-1.781,3.632-2.435v-.376c.056-1.544-.57-2.073-1.475-2.073-.529,0-1.141.292-1.141.417s.376.39.376.821a.751.751,0,0,1-1.489.028c0-.793,1.795-1.739,3.019-1.739,1.517,0,2.129.557,2.018,2.6l-.139,2.8c-.028.5.125.737.473.737a1.135,1.135,0,0,0,.668-.376l.139.139c-.334.4-.835,1.016-1.447,1.016s-.988-.376-1.044-1.113Zm-3.242-7.764a.868.868,0,0,1,.835-.877.855.855,0,0,1,.821.877.821.821,0,0,1-.821.835A.833.833,0,0,1,36.221,26.767Zm3.214,7.5.1-2.365c-1.948.459-2.365,1.085-2.365,1.795a1.042,1.042,0,0,0,1.016,1.127,1.688,1.688,0,0,0,1.252-.57Zm-.39-7.5a.868.868,0,0,1,.835-.877.855.855,0,0,1,.821.877.812.812,0,0,1-.821.835A.824.824,0,0,1,39.046,26.767Z" transform="translate(-26.175 -25.166)" fill="#4c4d4f"/>
      <path id="Pfad_9" data-name="Pfad 9" d="M41.07,31.585a3.479,3.479,0,0,1,3.451-3.645c1.252,0,2.226.57,2.226,1.405a.761.761,0,0,1-.765.793.818.818,0,0,1-.793-.918c0-.348.209-.487.209-.584-.056-.181-.5-.4-.918-.4-1.155,0-2.059,1.127-2.059,2.824s1.016,2.894,2.351,2.894a2.022,2.022,0,0,0,1.92-1.071l.181.083a3.007,3.007,0,0,1-5.8-1.363Z" transform="translate(-24.109 -24.364)" fill="#4c4d4f"/>
      <path id="Pfad_10" data-name="Pfad 10" d="M46.481,35.429c.417-.042.584-.07.584-.264V26.887c0-.348-.1-.473-.473-.57l-.543-.181v-.167l2.282-.6v7.193l1.336-1.308c.654-.584,1.141-1.155,1.141-1.447,0-.223-.25-.362-.751-.4h-.195l-.028-.237h3.019l-.042.223-.292.028c-.654.042-1.03.487-2.226,1.656l-.445.4,1.906,2.977c.473.71.612.9,1.141.96l.264.028.042.223H50.92l-.306-.529-1.67-2.769-.584.557v2.268c0,.139.083.167.71.223h.264l.042.237H46.147l.042-.223h.292Z" transform="translate(-22.159 -25.37)" fill="#4c4d4f"/>
    </g>
    <g id="Gruppe_2" data-name="Gruppe 2" transform="translate(72.158 35.882)">
      <path id="Pfad_11" data-name="Pfad 11" d="M51.86,31.585a3.423,3.423,0,0,1,3.367-3.645,2.137,2.137,0,0,1,2.421,2.143,2.192,2.192,0,0,1-.042.39l-4.341-.028a3.159,3.159,0,0,0-.042.626c0,1.739,1.016,2.88,2.351,2.88a2.169,2.169,0,0,0,2-1.071l.167.083A3.187,3.187,0,0,1,54.935,34.9a3.1,3.1,0,0,1-3.047-3.3Zm2.922-1.405h1.489c0-1.043-.362-1.962-1.224-1.962s-1.558.89-1.753,1.976h1.5Z" transform="translate(-51.86 -24.935)" fill="#4c4d4f"/>
      <path id="Pfad_12" data-name="Pfad 12" d="M57.556,34.42c.445-.042.612-.07.612-.264V30c0-.946-.1-1.085-.64-1.21l-.348-.07v-.167l2.254-.584-.028,2.254h.042c.529-1.475,1.127-2.268,2.031-2.268a.9.9,0,0,1,.974.835.8.8,0,0,1-.821.849.884.884,0,0,1-.877-.821c-.5.167-.96.835-1.336,2.031v3.367c0,.139.111.181.71.223h.515l.042.237H57.194l.042-.223h.32Z" transform="translate(-49.778 -24.931)" fill="#4c4d4f"/>
      <path id="Pfad_13" data-name="Pfad 13" d="M62.236,35.269c.445-.042.612-.07.612-.264V30.83c0-.918-.1-1.071-.64-1.2l-.348-.07V29.4l2.24-.584v6.233c0,.139.1.181.71.223h.278l.042.237H61.874l.042-.223h.32Zm.237-8.612a.849.849,0,1,1,.849.849A.837.837,0,0,1,62.472,26.656Z" transform="translate(-47.946 -25.78)" fill="#4c4d4f"/>
      <path id="Pfad_14" data-name="Pfad 14" d="M65.546,34.42c.445-.042.612-.07.612-.264V30c0-.946-.1-1.085-.64-1.21l-.348-.07v-.167l2.254-.584-.028,1.21h.042a4.241,4.241,0,0,1,2.518-1.224,1.616,1.616,0,0,1,1.2.445,2.143,2.143,0,0,1,.5,1.572V34.2c0,.125.028.167.724.237h.264l.042.237H69.456l.042-.223H69.8c.5-.056.57-.139.57-.278V30.357c0-1.085-.445-1.489-1.35-1.489a2.452,2.452,0,0,0-1.614.626v4.7c0,.139.1.181.7.223h.32l.028.237h-3.27l.042-.223h.32Z" transform="translate(-46.65 -24.931)" fill="#4c4d4f"/>
    </g>
  </g>
</svg>
