<?xml version="1.0" encoding="UTF-8"?>
<svg id="Layer_2" data-name="Layer 2" xmlns="http://www.w3.org/2000/svg" viewBox="0 0 150.98 131.9">
  <defs>
    <style>
      .cls-1 {
        fill: #ffed00;
      }

      .cls-2 {
        fill: #010000;
      }
    </style>
  </defs>
  <g id="Ebene_1" data-name="Ebene 1">
    <g>
      <g>
        <path class="cls-1" d="M63.09,52.64c-19.03,13.93,10.79,48.29,32.62,25.61,20.73-21.53-16.55-41.37-32.62-25.61"/>
        <path class="cls-2" d="M62.77,52.1c-3.28,2.42-5.65,5.84-6.23,9.92s.45,7.87,2.29,11.32c1.97,3.69,4.93,6.86,8.41,9.18s7.83,3.86,12.16,3.9c4.85.05,9.51-1.75,13.34-4.68,4.11-3.14,7.86-7.52,9.21-12.61,1.05-3.97.37-8.12-1.77-11.6s-5.61-6.29-9.32-8.13c-4.02-2-8.52-3.09-13.01-3.07s-8.93,1.18-12.61,3.72c-.92.64-1.79,1.36-2.6,2.14-.58.57.31,1.46.89.89,3.05-2.97,7.04-4.74,11.24-5.29s8.52.02,12.5,1.44,7.39,3.55,10.07,6.58c2.46,2.78,4,6.33,3.84,10.08-.2,4.68-2.92,8.83-6.1,12.08-3.43,3.5-7.72,6.19-12.62,6.96-4.02.64-8.19-.14-11.83-1.93s-6.73-4.43-9.06-7.68c-2.16-3.01-3.71-6.59-3.91-10.32s1-7.14,3.48-9.81c.69-.74,1.45-1.42,2.27-2.02.65-.48.02-1.57-.64-1.09h0Z"/>
      </g>
      <path class="cls-2" d="M40.45,60.21c-10.08-.8-19.64-4.14-29.34-6.79-3.42-.94-6.86-1.8-10.32-2.56-.79-.18-1.13,1.04-.34,1.22,5.83,1.29,11.58,2.89,17.31,4.55,4.74,1.38,9.49,2.77,14.34,3.71,2.76.53,5.54.92,8.35,1.14.81.06.81-1.2,0-1.26h0Z"/>
      <path class="cls-2" d="M53.77,38.45c-1.41-8.77-5.58-16.73-9.09-24.79-.99-2.28-1.93-4.58-2.75-6.93-.27-.76-1.49-.43-1.22.34,2.92,8.36,7.38,16.1,10.09,24.54.75,2.35,1.36,4.74,1.75,7.18.13.8,1.35.46,1.22-.34h0Z"/>
      <path class="cls-2" d="M79.64,34.98c.8-4.73,2.06-9.35,3.63-13.88,1.49-4.29,3.21-8.49,4.82-12.74.95-2.51,1.85-5.03,2.66-7.58.25-.78-.97-1.11-1.22-.34-2.79,8.78-6.79,17.14-9.27,26.02-.75,2.69-1.37,5.42-1.83,8.18-.13.8,1.08,1.14,1.22.34h0Z"/>
      <path class="cls-2" d="M103.47,42.08c4.17-2.96,8.7-5.33,13.39-7.35s9.05-3.54,13.55-5.36c2.46-.99,4.89-2.04,7.26-3.22.73-.36.09-1.45-.64-1.09-8.66,4.32-18.08,6.87-26.67,11.35-2.61,1.36-5.13,2.88-7.53,4.59-.66.47-.03,1.56.64,1.09h0Z"/>
      <path class="cls-2" d="M114.97,67.58c9.26,1.55,18.45,3.64,27.8,4.57,2.53.25,5.06.4,7.6.42.81,0,.81-1.26,0-1.26-9.14-.06-18.15-1.87-27.1-3.52-2.65-.49-5.3-.97-7.96-1.42-.8-.13-1.14,1.08-.34,1.22h0Z"/>
      <path class="cls-2" d="M102.32,92.28c6.07,8.49,12.5,16.81,20.06,24.04,2.12,2.03,4.33,3.96,6.65,5.76.63.49,1.53-.39.89-.89-8.24-6.4-15.15-14.38-21.44-22.65-1.73-2.27-3.41-4.57-5.07-6.89-.47-.66-1.56-.03-1.09.64h0Z"/>
      <path class="cls-2" d="M70.39,99.11c-2.94,8.6-5.64,17.35-9.72,25.5-1.1,2.19-2.3,4.33-3.66,6.37-.45.68.64,1.31,1.09.64,5.08-7.6,8.15-16.43,11.09-25.03.81-2.38,1.61-4.76,2.42-7.14.26-.77-.96-1.1-1.22-.34h0Z"/>
      <path class="cls-2" d="M3.79,110.21c11.11-7.37,22.47-14.37,33.68-21.58,3.26-2.09,6.5-4.21,9.73-6.35.67-.45.04-1.54-.64-1.09-11.11,7.37-22.47,14.37-33.68,21.58-3.26,2.09-6.5,4.21-9.72,6.35-.67.45-.04,1.54.64,1.09h0Z"/>
      <path class="cls-2" d="M71.71,61.92c.81,0,.81-1.26,0-1.26s-.81,1.26,0,1.26h0Z"/>
      <path class="cls-2" d="M86.5,59.92c.81,0,.81-1.26,0-1.26s-.81,1.26,0,1.26h0Z"/>
      <path class="cls-2" d="M65.93,70.47c2.2,4.23,6.65,6.56,11.33,6.71s9.14-1.65,12.48-4.68c1.72-1.56,3.2-3.69,3.08-6.1-.04-.81-1.3-.81-1.26,0,.09,1.92-1.02,3.58-2.35,4.87-1.46,1.43-3.26,2.55-5.14,3.35-3.77,1.61-8.31,1.87-12.06.06-2.16-1.05-3.89-2.71-4.99-4.84-.38-.72-1.47-.08-1.09.64h0Z"/>
    </g>
  </g>
</svg>