<?xml version="1.0" encoding="UTF-8"?>
<svg id="Layer_2" data-name="Layer 2" xmlns="http://www.w3.org/2000/svg" xmlns:xlink="http://www.w3.org/1999/xlink" viewBox="0 0 86.69 96.3">
  <defs>
    <style>
      .cls-1 {
        fill: #1d1d1b;
      }

      .cls-2 {
        fill: #ffed00;
      }

      .cls-3 {
        fill: url(#Sonnenuntergang_in_der_Wüste);
      }
    </style>
    <linearGradient id="Sonnenuntergang_in_der_Wüste" data-name="Sonnenuntergang in der Wüste" x1="-28.35" y1="1360" x2="8.92" y2="1360" gradientTransform="translate(-1021.7359 -805.5376) rotate(-53.1679)" gradientUnits="userSpaceOnUse">
      <stop offset="0" stop-color="#d1762a"/>
      <stop offset=".13" stop-color="#f29a65"/>
      <stop offset=".37" stop-color="#fad393"/>
      <stop offset=".39" stop-color="#fbd897"/>
      <stop offset=".54" stop-color="#e4c6af"/>
      <stop offset=".71" stop-color="#ceb1bd"/>
      <stop offset=".76" stop-color="#bf9cae"/>
      <stop offset=".86" stop-color="#a77996"/>
      <stop offset=".95" stop-color="#996487"/>
      <stop offset="1" stop-color="#945d82"/>
    </linearGradient>
  </defs>
  <g id="Ebene_1" data-name="Ebene 1">
    <g>
      <path class="cls-1" d="M5.24,95.26c-2.1-4.09-4.09-9.9.32-13.23,1.66-1.26,3.71-1.93,5.69-2.5,2.49-.71,5.03-1.24,7.54-1.85s5.07-1.32,7.47-2.37,4.08-2.4,5.88-4.13c3.17-3.05,4.14-6.94,4.01-11.21-.06-2.02-.28-4.04-.27-6.07.01-2.24.47-4.17,1.22-6.26.8-2.22,1.59-4.3,2.85-6.32,1.42-2.28,3.13-4.36,4.96-6.32,4.26-4.57,9.17-8.49,14.18-12.2.48-.35.32-.61-.19-.71-.59-.12-1.55.19-2.03.54-4.47,3.31-8.85,6.78-12.81,10.7-3.26,3.23-6.32,6.83-8.35,10.97-1.87,3.82-2.85,7.8-2.67,12.05.17,4.13.81,8.43-1.33,12.2-2.87,5.07-8.01,6.84-13.31,8.14-4.85,1.18-10.18,1.98-14.45,4.73-1.9,1.23-3.46,3.01-3.84,5.3-.54,3.23.81,6.48,2.25,9.3.39.76,3.14-.23,2.87-.77h0Z"/>
      <g>
        <path class="cls-3" d="M61.33,18.6c-10.36,4.27-5.05,17.69,6.32,17.5,7.29.3,14.66-14.06,3.92-16.2,10.12,4.46,17.14,1.27,11.92-7.69-4.71-6.91-16.06-11.04-18.11-1.5-3.97-3.86-4.05-9.33-11.34-9.63-14.14-1.26-8.48,10.37.83,11.36-6.51,0-21.98-.4-17.73,8.14,7.17,14.42,17.89,3.37,23.67-2.44"/>
        <path class="cls-1" d="M60.72,17.87c-3.66,1.56-6.6,4.68-6.38,8.86.2,3.77,2.81,7.07,6.09,8.76,3.56,1.83,8.16,2.27,11.7.21,3-1.74,5.34-4.92,6.08-8.32.38-1.73.26-3.59-.65-5.14-1.09-1.84-3.13-2.79-5.15-3.22-.64-.14-1.4-.02-1.9.44-.32.29-.67.95-.07,1.21,3.55,1.54,7.69,2.83,11.58,1.86,2.86-.71,4.92-2.83,4.65-5.88-.33-3.65-2.83-6.76-5.6-8.96s-6.08-3.66-9.53-3.49c-3.98.19-6.73,2.87-7.6,6.66l2.76-.74c-2.26-2.26-3.35-5.44-5.71-7.58C58.23.05,54.06-.24,50.53.13c-2.38.25-5.44,1.16-6.28,3.7-.66,1.98.45,4.06,1.76,5.5,2.15,2.35,5.21,3.69,8.34,4.05l1.05-1.88c-3.69,0-7.41-.05-11.07.47-3.02.43-7.36,1.25-8.9,4.29-.68,1.35-.5,2.88.07,4.23,1.01,2.37,2.56,4.67,4.6,6.26,3.31,2.58,7.63,2.17,11.2.39,4.14-2.06,7.47-5.42,10.7-8.67.46-.47.25-1.02-.33-1.22-.65-.23-1.55.07-2.03.54-2.43,2.45-4.88,4.93-7.77,6.84-2.49,1.65-5.54,2.93-8.39,1.35-1.89-1.05-3.24-2.85-4.3-4.69-.73-1.27-1.65-2.93-1.19-4.45.67-2.22,3.98-2.7,5.9-2.98,3.46-.51,6.97-.48,10.47-.48.64,0,1.57-.18,1.88-.83s-.26-.98-.83-1.04c-2.19-.26-4.34-1.18-6.01-2.65-1.21-1.07-2.51-2.67-2.44-4.38s1.65-2.29,3.13-2.46c2.93-.34,6.46-.14,8.64,2.08s3.19,5.08,5.34,7.22c.72.72,2.53.28,2.76-.74.5-2.18,1.7-4.37,4.16-4.5s5.03,1.13,7.03,2.54c2.42,1.71,4.44,4.02,5.37,6.86.58,1.76.8,4.3-1.26,5.15-2.85,1.17-6.83-.37-9.44-1.5l-1.97,1.65c2.92.62,5.03,2.57,4.79,5.71-.21,2.76-1.8,5.5-3.93,7.23-4.93,4.02-12.84-.65-14.14-6.19-.86-3.67,1.15-6.77,4.5-8.2.48-.2,1.11-.78.72-1.33s-1.42-.34-1.92-.13h0Z"/>
      </g>
      <g>
        <path class="cls-2" d="M61.78,10.19c-2.13-.54-5.8.28-3.78,4.5,8.92,11.8,21.87.91,4.9-4.5"/>
        <path class="cls-1" d="M62.63,9.32c-1.49-.37-3.21-.27-4.59.43-.73.37-1.45.92-1.79,1.69s-.35,1.55-.15,2.35c.12.5.31,1.09.6,1.51.26.38.57.73.88,1.07.54.61,1.13,1.18,1.76,1.7,1.19.98,2.49,1.77,3.95,2.28,2.37.83,5.17.76,7.34-.59.86-.54,1.53-1.31,1.86-2.27.27-.78.17-1.68-.16-2.43-.51-1.15-1.38-2.02-2.36-2.78-1.4-1.08-3.04-1.82-4.68-2.44-.5-.19-1.01-.36-1.52-.53-.64-.2-1.58.04-2.03.54-.16.18-.35.45-.26.71s.32.4.58.49c.42.14.85.28,1.26.43.19.07.38.14.57.22.08.03.16.06.24.1.18.07-.05-.02-.07-.03.06.03.13.06.2.08.65.28,1.3.59,1.91.94.52.29,1.02.62,1.5.98.05.04.11.08.16.12.03.02.05.04.08.06.12.1-.08-.07-.09-.07.09.09.2.17.3.26.18.16.35.33.51.51.31.34.59.71.81,1.12l-.11-.21c.24.46.4.95.43,1.47v-.24c0,.18-.01.36-.04.54-.01.08-.03.15-.05.23-.01.04-.02.08-.03.13-.02.05-.08.24,0,.03s-.03.06-.06.12c-.04.08-.08.15-.13.23s-.1.15-.15.22c-.08.12.22-.27.1-.13-.04.04-.07.08-.1.12-.05.06-.11.12-.17.18-.03.03-.07.06-.1.09-.19.17.27-.21.11-.09s-.31.22-.47.32c-.14.09.42-.22.16-.09-.04.02-.08.04-.12.06-.1.05-.2.09-.3.13-.04.02-.09.03-.13.05-.05.02.47-.16.21-.07-.11.03-.22.07-.33.1-.1.03-.21.05-.31.07-.14.03.49-.08.2-.04-.06,0-.13.02-.19.03-.11.01-.22.03-.34.03-.16.01-.66,0-.06.01-.24,0-.48,0-.73-.03-.13-.01-.26-.03-.4-.05-.07,0-.31-.05-.04,0s-.02,0-.08-.02c-.57-.11-1.11-.29-1.65-.49-.18-.07.24.1.12.05-.04-.02-.07-.03-.11-.05-.07-.03-.15-.06-.22-.1-.15-.07-.29-.14-.44-.22-.29-.15-.58-.32-.86-.5-.34-.21-.66-.44-.98-.69-.08-.06-.16-.13-.24-.19.26.19-.03-.02-.09-.08-.17-.14-.33-.29-.49-.44-.7-.66-1.34-1.39-1.93-2.16l.11.21c-.31-.65-.56-1.34-.59-2.07v.24c0-.21.01-.42.06-.63.02-.09.05-.17.07-.26.04-.15-.1.22-.03.08.02-.04.04-.09.06-.13.04-.07.08-.14.12-.21.03-.04.13-.17,0,0s-.02.03.01,0c.06-.06.12-.12.18-.18.14-.14-.2.15-.13.11.04-.03.07-.06.11-.08.07-.05.14-.08.2-.13-.03.02-.37.19-.18.1.04-.02.09-.04.13-.06s.09-.04.13-.05c.18-.08-.41.13-.22.08.09-.03.17-.05.26-.08s.41-.08.08-.02.01,0,.1,0,.19-.02.28-.02c.04,0,.09,0,.13,0,.24-.01-.35,0-.17,0,.2,0,.39.01.59.03.05,0,.11.02.16.02.17.02-.36-.07-.15-.02.1.02.19.04.29.06.35.09.73.07,1.08-.02.32-.09.72-.26.95-.52.16-.18.35-.45.26-.71s-.32-.42-.58-.49h0Z"/>
      </g>
    </g>
  </g>
</svg>