<?xml version="1.0" encoding="UTF-8"?>
<svg id="Layer_2" data-name="Layer 2" xmlns="http://www.w3.org/2000/svg" xmlns:xlink="http://www.w3.org/1999/xlink" viewBox="132 52 62 53">
  <defs>
    <style>
      .cls-1 {
        fill: url(#linear-gradient-2);
      }

      .cls-2 {
        fill: #1d1d1b;
      }

      .cls-3 {
        fill: url(#linear-gradient-4);
      }

      .cls-4 {
        fill: url(#linear-gradient-3);
      }

      .cls-5 {
        fill: url(#linear-gradient-5);
      }

      .cls-6 {
        fill: url(#linear-gradient-8);
      }

      .cls-7 {
        fill: url(#linear-gradient-7);
      }

      .cls-8 {
        fill: url(#linear-gradient-6);
      }

      .cls-9 {
        fill: url(#linear-gradient);
      }
    </style>
    <linearGradient id="linear-gradient" x1="-335.93" y1="762.88" x2="-342.01" y2="778.99" gradientTransform="translate(-547.28 -504.45) rotate(-66.4) scale(.98) skewX(-.04)" gradientUnits="userSpaceOnUse">
      <stop offset=".16" stop-color="#fff6e3"/>
      <stop offset=".39" stop-color="#f49ab1"/>
      <stop offset=".61" stop-color="#e93f80"/>
    </linearGradient>
    <linearGradient id="linear-gradient-2" x1="-567.59" y1="134.46" x2="-573.64" y2="150.48" gradientTransform="translate(545.9 -334.96) rotate(-27.55) scale(.98) skewX(-.04)" xlink:href="#linear-gradient"/>
    <linearGradient id="linear-gradient-3" x1="1521.38" y1="-438.58" x2="1513.53" y2="-417.8" gradientTransform="translate(-1426.6757 649.7885) rotate(-5.3892) scale(1.0519 1.0823) skewX(9.9354)" xlink:href="#linear-gradient"/>
    <linearGradient id="linear-gradient-4" x1="-187.42" y1="914.66" x2="-191.6" y2="925.71" xlink:href="#linear-gradient"/>
    <linearGradient id="linear-gradient-5" x1="-638.31" y1="-189.42" x2="-645.56" y2="-170.22" gradientTransform="translate(760.86 414.21) rotate(22.54) scale(.98) skewX(-.04)" xlink:href="#linear-gradient"/>
    <linearGradient id="linear-gradient-6" x1="1549.35" y1="-144.84" x2="1534.77" y2="-106.22" gradientTransform="translate(-985.8792 1264.6181) rotate(-41.0509) scale(1.0934 1.1283) skewX(14.459)" xlink:href="#linear-gradient"/>
    <linearGradient id="linear-gradient-7" x1="-224.37" y1="800.81" x2="-228.54" y2="811.86" xlink:href="#linear-gradient"/>
    <linearGradient id="linear-gradient-8" x1="-104.5" y1="756.39" x2="-108.65" y2="767.39" gradientTransform="translate(58.8 -685.55) rotate(-25.93) scale(.98) skewX(-.04)" xlink:href="#linear-gradient"/>
  </defs>
  <g id="Ebene_1" data-name="Ebene 1">
    <g>
      <g>
        <path class="cls-9" d="M8.01,97.49c-3.66-2.84-7.68-.58-6.76,4.62.72,4.42,6.93,7.45,10.1,10,1.35-4.51,7.12-9.72,5.31-15.12-1.91-5.79-9.97-4.61-7.96,1.58"/>
        <path class="cls-2" d="M8.83,96.88c-1.49-1.13-3.38-1.73-5.23-1.21-1.73.48-2.95,1.85-3.39,3.56-1.07,4.17,1.95,7.41,5,9.71,1.73,1.31,3.61,2.43,5.31,3.79.47.38,1.65.12,1.84-.49,1.52-4.89,6.52-8.94,5.62-14.47-.34-2.08-1.62-3.95-3.56-4.82-1.66-.74-3.68-.63-5.21.35-1.92,1.24-2.22,3.51-1.58,5.56.3.97,2.43.38,2.14-.57-.4-1.28-.54-2.98.61-3.86.4-.31.76-.41,1.35-.41.49,0,1.13.18,1.62.44,1.57.86,2.44,2.66,2.56,4.4.16,2.29-.92,4.47-2.02,6.4-1.24,2.2-2.81,4.3-3.56,6.73l1.84-.49c-1.62-1.29-3.39-2.37-5.05-3.6s-3.36-2.61-4.28-4.47c-.81-1.62-1.04-4.14.17-5.63,1.14-1.4,2.98-.59,4.17.31.74.56,2.62-.49,1.65-1.22h0Z"/>
      </g>
      <g>
        <path class="cls-1" d="M116.34,42.17c-1.04-4.48-5.61-5.21-8.2-.59-2.25,3.88.66,10.1,1.5,14.04,3.92-2.68,11.72-3.16,13.75-8.48,2.19-5.69-4.83-9.76-7.2-3.7"/>
        <path class="cls-2" d="M117.41,41.88c-.39-1.56-1.29-3.08-2.85-3.68s-3.43-.21-4.83.65c-1.6.98-2.86,2.71-3.28,4.54-.45,1.94-.12,4.01.33,5.92.52,2.22,1.32,4.37,1.81,6.6.14.65,1.63.02,1.91-.17,1.85-1.24,4.12-1.83,6.18-2.63,2.23-.86,4.51-1.89,6.2-3.64,1.51-1.57,2.42-3.92,1.84-6.09-.47-1.76-1.93-3.17-3.76-3.44-2.63-.38-4.86,1.29-5.82,3.65-.23.56,1.86.33,2.12-.31.34-.84.83-1.74,1.64-2.2.31-.17.83-.12,1.33.08,1.53.61,2.41,2.22,2.51,3.81.26,4.45-4.29,6.47-7.75,7.76-2.12.79-4.29,1.51-6.18,2.78l1.91-.17c-.46-2.08-1.19-4.09-1.7-6.15s-.97-4.38-.35-6.49c.4-1.36,1.74-3.76,3.42-3.71,1.78.05,2.81,1.98,3.18,3.47.16.63,2.3.08,2.14-.57h0Z"/>
      </g>
      <g>
        <path class="cls-4" d="M42.71,40.59c-.07-6.4-6.27-9.75-11.34-5.08-4.36,3.89-2.2,13.54-2.24,19.13,6.34-1.44,17.46,2.04,21.95-3.85,4.85-6.27-3.77-15.29-8.97-8.62"/>
        <path class="cls-2" d="M43.79,40.51c-.07-2.54-.95-5.02-3.03-6.6-1.93-1.47-4.52-1.71-6.78-.91s-4.43,2.62-5.4,4.96-1.09,5.16-1.03,7.75c.08,3.01.49,6.01.49,9.02,0,.68.76.77,1.28.66,6.4-1.38,13.44,1.34,19.56-1.76,2.68-1.36,4.78-4.05,4.71-7.15-.06-2.68-1.57-5.3-3.93-6.61-3.01-1.66-6.37-.58-8.45,1.99-.85,1.05,1.17,1.4,1.79.64,1.52-1.88,3.58-2.45,5.64-1,1.86,1.31,2.98,3.68,2.76,5.95-.63,6.32-8.43,6.26-13.13,6.13-3.1-.09-6.27-.33-9.33.34l1.28.66c0-2.86-.37-5.71-.47-8.57s-.11-5.73,1.09-8.24c1.11-2.3,3.85-4.15,6.46-3.5,2.85.71,4.26,3.7,4.34,6.42.03,1.12,2.19.8,2.17-.16h0Z"/>
      </g>
      <g>
        <path class="cls-3" d="M200.8,23.27c-2.51-1.95-5.27-.4-4.64,3.17.49,3.03,4.76,5.11,6.93,6.86.92-3.1,4.88-6.67,3.64-10.37-1.31-3.97-6.84-3.16-5.46,1.08"/>
        <path class="cls-2" d="M201.47,23.03c-1.04-.78-2.25-1.07-3.51-.75-1.13.29-2.08.97-2.43,2.12-.83,2.79,1.21,4.98,3.25,6.53,1.19.9,2.47,1.67,3.64,2.6.23.18,1.29-.08,1.37-.37,1.02-3.28,4.53-6.14,3.81-9.86-.26-1.31-1.09-2.52-2.36-3-1.15-.43-2.54-.25-3.59.36-1.3.75-1.5,2.18-1.08,3.53.09.3,1.51-.11,1.42-.38-.31-.98-.38-2.25.5-2.97.08-.06.28-.19.29-.19.02,0,.23-.03.39-.02.47.03.92.2,1.31.45,1.09.68,1.68,1.94,1.77,3.19.11,1.62-.64,3.16-1.41,4.54-.85,1.51-1.93,2.95-2.44,4.62l1.37-.37c-2.17-1.73-5.15-3.03-6.48-5.6-.62-1.2-.77-2.89-.02-4.06.22-.34.53-.73.97-.7.7.04,1.34.4,1.89.81.3.23,1.52-.34,1.35-.47h0Z"/>
      </g>
      <g>
        <path class="cls-5" d="M253.35,8.72c3.34-4.35.53-9.01-5.71-7.82-5.3.94-8.82,8.29-11.82,12.06,5.47,1.48,11.86,8.13,18.32,5.89,6.93-2.36,5.33-11.79-2.07-9.29"/>
        <path class="cls-2" d="M254.36,8.8c1.16-1.56,1.95-3.66,1.21-5.57s-2.6-2.86-4.52-3.13c-5.09-.71-8.88,2.6-11.72,6.39-1.52,2.03-2.81,4.23-4.39,6.23-.28.36-.26.76.24.91,6.08,1.72,11.04,7.5,17.85,6.21,2.44-.46,4.9-1.86,6.01-4.17.81-1.69.85-3.77-.27-5.34-1.56-2.18-4.58-2.15-6.88-1.4-.36.12-1.03.43-.9.93.13.47.89.47,1.24.35,1.6-.52,3.37-.55,4.49.9.94,1.22.96,2.97.33,4.33-.85,1.85-2.71,2.95-4.71,3.14-2.73.26-5.41-1.04-7.76-2.29-2.65-1.42-5.22-3.16-8.14-3.98l.24.91c1.51-1.92,2.78-4.01,4.21-5.98s3.11-4.13,5.35-5.19c1.96-.94,4.95-1.01,6.52.72s.83,4.19-.43,5.89c-.32.43.28.74.62.77.54.06,1.08-.2,1.4-.62h0Z"/>
      </g>
      <g>
        <path class="cls-8" d="M162.89,63.48c-8.2-9.33-22.23-7.33-24.34,5.22-1.99,10.61,13.62,22.39,20.63,30.67,8.21-9.22,30.17-16.56,29.84-30.25-.26-14.67-25.27-18.28-25.07-2.64"/>
        <path class="cls-2" d="M163.86,62.99c-3.1-3.47-7.35-5.91-12.06-6.14-4.16-.2-8.27,1.35-11.02,4.52-2.9,3.34-4.17,8.25-3.08,12.54,1.28,5.02,4.83,9.33,8.22,13.1,3.97,4.4,8.43,8.34,12.28,12.85.49.58,1.42.38,1.88-.13,4.34-4.82,10.37-8.03,15.66-11.66s10.77-7.59,13.26-13.47c2.13-5.03,1.06-10.77-2.87-14.57-3.5-3.38-8.79-5.07-13.6-4.39-2.55.36-5.01,1.36-6.83,3.22-2.02,2.06-2.85,4.87-2.84,7.71,0,1.17,2.18.89,2.17-.14-.02-4.54,2.42-8.24,7.03-9.08,4.3-.79,9.04.78,12.21,3.74,3.7,3.45,4.62,8.87,2.58,13.45-2.42,5.44-7.8,9.2-12.55,12.47-5.45,3.75-11.56,7.06-16.03,12.02l1.88-.13c-6.17-7.24-14.33-13.16-18.82-21.73-2.06-3.94-2.46-8.11-.59-12.22,1.61-3.53,4.87-6.02,8.76-6.39,4.76-.45,9.29,1.93,12.4,5.42.69.77,2.7-.12,1.95-.97h0Z"/>
      </g>
      <g>
        <path class="cls-7" d="M84.42,11.75c-2.51-1.95-5.27-.4-4.64,3.17.49,3.03,4.76,5.11,6.93,6.86.92-3.1,4.88-6.67,3.64-10.37-1.31-3.97-6.84-3.16-5.46,1.08"/>
        <path class="cls-2" d="M85.42,11.34c-1.14-.86-2.51-1.25-3.92-.89-1.27.32-2.33,1.17-2.71,2.45-.85,2.84,1.21,5.12,3.3,6.7,1.19.9,2.47,1.67,3.64,2.6.52.41,1.85.11,2.06-.55,1.03-3.33,4.54-6.16,3.8-9.94-.27-1.36-1.15-2.62-2.45-3.15s-2.86-.38-4.05.34c-1.4.85-1.71,2.38-1.25,3.88.23.73,2.36.13,2.14-.57-.29-.94-.32-2.12.42-2.7-.14.11.06-.03.11-.06-.13.07.12-.03.03,0-.17.05.28-.08-.02,0,.04-.01.12-.02.17-.02-.25,0,.05,0,.08,0,.15,0-.05-.02.16.01.1.02.21.04.31.06.17.05.42.16.62.28,1.05.63,1.59,1.88,1.67,3.07.11,1.57-.67,3.11-1.43,4.44-.86,1.51-1.92,2.96-2.44,4.64l2.06-.55c-1.11-.89-2.33-1.62-3.47-2.47s-2.32-1.79-2.97-3.05c-.59-1.13-.79-2.82-.03-3.91.13-.19.33-.33.43-.42-.09.04-.08.04.04-.01-.12.03-.11.03.01,0-.28.07.27,0,.07,0,.55,0,1.17.32,1.63.67.39.3.99.19,1.41.01.19-.08.96-.55.57-.84h0Z"/>
      </g>
      <g>
        <path class="cls-6" d="M290.73,26.84c-.63-3.09-3.74-3.68-5.61-.56-1.62,2.62.26,6.94.76,9.66,2.74-1.76,8.1-1.95,9.59-5.56,1.62-3.86-3.12-6.78-4.86-2.67"/>
        <path class="cls-2" d="M291.79,26.56c-.25-1.13-.88-2.24-1.98-2.72-1.26-.56-2.72-.3-3.86.42s-2.07,1.98-2.4,3.31-.13,2.83.15,4.18c.31,1.51.81,2.97,1.1,4.49.13.71,1.4.33,1.75.11,1.13-.72,2.61-1.09,4.03-1.59,1.65-.58,3.32-1.25,4.61-2.47,1.16-1.1,1.91-2.75,1.62-4.37-.24-1.33-1.27-2.47-2.59-2.78-1.98-.47-3.84.72-4.63,2.51-.45,1.03,1.69.88,2.01.14.13-.29.27-.59.46-.85.09-.12.2-.23.31-.33.02-.02.28-.2.15-.12.05-.03.12-.06.17-.08-.04.01-.22.07-.01.01.05-.02.21-.04-.02,0,.05,0,.13-.02.18-.02-.27-.03.22.04.02,0,.1.02.29.07.33.08.9.34,1.51,1.42,1.53,2.43.03,1.25-.68,2.46-1.64,3.18-1.01.75-2.32,1.22-3.45,1.61-1.52.52-3.09.98-4.45,1.84l1.75.11c-.27-1.41-.72-2.78-1.03-4.18s-.58-2.98-.13-4.39c.21-.64.62-1.25,1.11-1.71.19-.17.41-.32.57-.4.14-.06.22-.08.36-.08.07,0,.26.03.42.1.22.1.42.24.59.41.47.47.7,1.08.83,1.71.19.85,2.33.31,2.14-.57h0Z"/>
      </g>
    </g>
  </g>
</svg>
